<svg width="115" height="45" viewBox="0 0 115 45" fill="none" xmlns="http://www.w3.org/2000/svg">
<path d="M7.09859 28L0.963876 6.91963H6.59423L9.77481 20.733H9.9498L13.5833 6.91963H18.174L21.8075 20.7639H21.9825L25.1734 6.91963H30.7934L24.669 28H19.7592L15.961 15.2159H15.7963L11.9981 28H7.09859ZM37.4138 6.91963V28H32.3187V6.91963H37.4138ZM40.0327 28V6.91963H45.1278V23.8622H53.8975V28H40.0327ZM63.7474 28H55.9554V6.91963H63.7371C65.8849 6.91963 67.7342 7.34165 69.2851 8.18569C70.8428 9.02286 72.0436 10.2306 72.8877 11.8089C73.7317 13.3803 74.1537 15.2605 74.1537 17.4495C74.1537 19.6454 73.7317 21.5325 72.8877 23.1108C72.0505 24.689 70.8531 25.9002 69.2954 26.7442C67.7377 27.5814 65.8883 28 63.7474 28ZM61.0505 23.6563H63.5518C64.7321 23.6563 65.7305 23.4573 66.5471 23.0593C67.3705 22.6544 67.9916 21.9991 68.4102 21.0933C68.8356 20.1806 69.0483 18.966 69.0483 17.4495C69.0483 15.933 68.8356 14.7253 68.4102 13.8263C67.9847 12.9205 67.3568 12.2686 66.5265 11.8706C65.7031 11.4658 64.6875 11.2633 63.4797 11.2633H61.0505V23.6563ZM76.5487 28V6.91963H91.2474V11.0575H81.6438V15.3806H90.496V19.5287H81.6438V23.8622H91.2474V28H76.5487ZM111.799 6.91963V28H107.476L99.0874 15.8335H98.9536V28H93.8585V6.91963H98.2434L106.54 19.0655H106.715V6.91963H111.799Z" fill="#282828"/>
<path d="M2.15642 42.1338C1.81674 42.1338 1.5251 42.0137 1.2815 41.7736C1.04132 41.5299 0.921237 41.2383 0.921237 40.8986C0.921237 40.5624 1.04132 40.2742 1.2815 40.034C1.5251 39.7938 1.81674 39.6737 2.15642 39.6737C2.4858 39.6737 2.774 39.7938 3.02104 40.034C3.26808 40.2742 3.39159 40.5624 3.39159 40.8986C3.39159 41.1251 3.33327 41.3327 3.21661 41.5214C3.10338 41.7066 2.95413 41.8559 2.76886 41.9691C2.58358 42.0789 2.37943 42.1338 2.15642 42.1338ZM11.4791 36.3491L9.47191 36.4726C9.4376 36.301 9.36383 36.1466 9.25061 36.0094C9.13738 35.8687 8.98813 35.7572 8.80286 35.6749C8.62101 35.5891 8.40314 35.5462 8.14924 35.5462C7.80957 35.5462 7.52307 35.6182 7.28976 35.7624C7.05645 35.903 6.9398 36.0917 6.9398 36.3285C6.9398 36.5172 7.01528 36.6767 7.16625 36.8071C7.31721 36.9375 7.57626 37.0421 7.94338 37.121L9.37413 37.4093C10.1427 37.5671 10.7157 37.821 11.0931 38.1709C11.4705 38.5209 11.6592 38.9807 11.6592 39.5502C11.6592 40.0683 11.5065 40.5229 11.2012 40.9141C10.8992 41.3052 10.4841 41.6106 9.95569 41.8302C9.43074 42.0463 8.82516 42.1544 8.13895 42.1544C7.09248 42.1544 6.25873 41.9365 5.63771 41.5008C5.02012 41.0616 4.65815 40.4646 4.55179 39.7098L6.7082 39.5965C6.77339 39.9156 6.93122 40.1592 7.18169 40.3274C7.43215 40.4921 7.75295 40.5744 8.14409 40.5744C8.52837 40.5744 8.83717 40.5006 9.07048 40.3531C9.30722 40.2021 9.42731 40.0083 9.43074 39.7715C9.42731 39.5725 9.34325 39.4096 9.17856 39.2826C9.01387 39.1522 8.75997 39.0527 8.41686 38.9841L7.04787 38.7113C6.27589 38.5569 5.70119 38.2893 5.32377 37.9085C4.94979 37.5276 4.76279 37.0421 4.76279 36.452C4.76279 35.9442 4.90004 35.5067 5.17452 35.1396C5.45244 34.7725 5.84186 34.4894 6.34279 34.2904C6.84716 34.0914 7.4373 33.9919 8.11322 33.9919C9.11165 33.9919 9.89736 34.2029 10.4703 34.625C11.0468 35.047 11.383 35.6217 11.4791 36.3491ZM16.9547 34.0949V35.7418H12.1941V34.0949H16.9547ZM13.2749 32.2009H15.4673V39.5708C15.4673 39.7732 15.4982 39.9311 15.5599 40.0443C15.6217 40.1541 15.7075 40.2313 15.8173 40.2759C15.9305 40.3205 16.0609 40.3428 16.2084 40.3428C16.3113 40.3428 16.4143 40.3342 16.5172 40.3171C16.6201 40.2965 16.6991 40.281 16.754 40.2708L17.0988 41.9022C16.989 41.9365 16.8346 41.976 16.6356 42.0206C16.4366 42.0686 16.1947 42.0978 15.9099 42.1081C15.3815 42.1287 14.9183 42.0583 14.5203 41.8971C14.1258 41.7358 13.8187 41.4853 13.5991 41.1457C13.3795 40.806 13.2714 40.3771 13.2749 39.859V32.2009ZM23.1624 38.6341V34.0949H25.3548V42H23.2499V40.5641H23.1675C22.9891 41.0273 22.6923 41.3996 22.2772 41.6809C21.8654 41.9623 21.3628 42.1029 20.7692 42.1029C20.2408 42.1029 19.7759 41.9828 19.3745 41.7427C18.9731 41.5025 18.6591 41.1611 18.4327 40.7185C18.2096 40.2759 18.0964 39.7458 18.093 39.1282V34.0949H20.2854V38.7371C20.2889 39.2037 20.4141 39.5725 20.6611 39.8436C20.9082 40.1146 21.2393 40.2502 21.6544 40.2502C21.9186 40.2502 22.1656 40.1901 22.3955 40.07C22.6254 39.9465 22.8107 39.7647 22.9514 39.5245C23.0955 39.2843 23.1658 38.9875 23.1624 38.6341ZM29.7316 42.1287C29.1312 42.1287 28.5874 41.9743 28.1001 41.6655C27.6164 41.3532 27.2321 40.8952 26.9473 40.2913C26.666 39.684 26.5253 38.9395 26.5253 38.0577C26.5253 37.1519 26.6711 36.3988 26.9628 35.7984C27.2544 35.1945 27.6421 34.7433 28.1259 34.4448C28.6131 34.1429 29.1466 33.9919 29.7265 33.9919C30.1691 33.9919 30.5379 34.0674 30.833 34.2184C31.1315 34.3659 31.3717 34.5512 31.5535 34.7742C31.7388 34.9938 31.8794 35.21 31.9755 35.4227H32.0424V31.4598H34.2297V42H32.0682V40.7339H31.9755C31.8726 40.9535 31.7268 41.1714 31.5381 41.3876C31.3528 41.6003 31.1109 41.777 30.8124 41.9177C30.5173 42.0583 30.1571 42.1287 29.7316 42.1287ZM30.4264 40.384C30.7798 40.384 31.0783 40.2879 31.3219 40.0958C31.5689 39.9002 31.7576 39.6274 31.888 39.2775C32.0218 38.9275 32.0887 38.5175 32.0887 38.0474C32.0887 37.5774 32.0235 37.1691 31.8932 36.8225C31.7628 36.476 31.5741 36.2084 31.327 36.0197C31.08 35.831 30.7798 35.7366 30.4264 35.7366C30.0661 35.7366 29.7625 35.8344 29.5155 36.03C29.2684 36.2255 29.0814 36.4966 28.9545 36.8431C28.8275 37.1897 28.7641 37.5911 28.7641 38.0474C28.7641 38.5072 28.8275 38.9138 28.9545 39.2672C29.0849 39.6171 29.2718 39.8916 29.5155 40.0906C29.7625 40.2862 30.0661 40.384 30.4264 40.384ZM35.7424 42V34.0949H37.9349V42H35.7424ZM36.8438 33.0758C36.5179 33.0758 36.2382 32.9678 36.0049 32.7516C35.775 32.532 35.6601 32.2695 35.6601 31.9642C35.6601 31.6622 35.775 31.4032 36.0049 31.187C36.2382 30.9675 36.5179 30.8577 36.8438 30.8577C37.1698 30.8577 37.4477 30.9675 37.6776 31.187C37.9109 31.4032 38.0275 31.6622 38.0275 31.9642C38.0275 32.2695 37.9109 32.532 37.6776 32.7516C37.4477 32.9678 37.1698 33.0758 36.8438 33.0758ZM42.973 42.1544C42.1736 42.1544 41.4822 41.9846 40.899 41.6449C40.3191 41.3018 39.8714 40.8249 39.5557 40.2141C39.24 39.6 39.0822 38.888 39.0822 38.0783C39.0822 37.2617 39.24 36.5481 39.5557 35.9373C39.8714 35.3232 40.3191 34.8463 40.899 34.5066C41.4822 34.1635 42.1736 33.9919 42.973 33.9919C43.7725 33.9919 44.4621 34.1635 45.0419 34.5066C45.6252 34.8463 46.0747 35.3232 46.3903 35.9373C46.706 36.5481 46.8638 37.2617 46.8638 38.0783C46.8638 38.888 46.706 39.6 46.3903 40.2141C46.0747 40.8249 45.6252 41.3018 45.0419 41.6449C44.4621 41.9846 43.7725 42.1544 42.973 42.1544ZM42.9833 40.456C43.347 40.456 43.6507 40.3531 43.8943 40.1472C44.1379 39.9379 44.3214 39.6532 44.4449 39.2929C44.5719 38.9326 44.6354 38.5226 44.6354 38.0629C44.6354 37.6031 44.5719 37.1931 44.4449 36.8328C44.3214 36.4726 44.1379 36.1878 43.8943 35.9785C43.6507 35.7692 43.347 35.6646 42.9833 35.6646C42.6162 35.6646 42.3074 35.7692 42.0569 35.9785C41.8099 36.1878 41.6229 36.4726 41.496 36.8328C41.3724 37.1931 41.3107 37.6031 41.3107 38.0629C41.3107 38.5226 41.3724 38.9326 41.496 39.2929C41.6229 39.6532 41.8099 39.9379 42.0569 40.1472C42.3074 40.3531 42.6162 40.456 42.9833 40.456Z" fill="#282828"/>
</svg>
