<svg width="760" height="400" viewBox="0 0 760 400" fill="none" xmlns="http://www.w3.org/2000/svg">
<path d="M253.148 109.136C265.453 109.136 275.858 113.614 284.362 122.572C292.958 131.438 297.255 142.069 297.255 154.465C297.255 166.77 292.958 177.401 284.362 186.358C275.858 195.315 265.453 199.794 253.148 199.794C240.843 199.794 230.393 195.315 221.797 186.358C213.202 177.401 208.904 166.77 208.904 154.465C208.904 142.069 213.202 131.438 221.797 122.572C230.393 113.614 240.843 109.136 253.148 109.136ZM253.148 178.351C259.481 178.351 264.865 175.998 269.298 171.294C273.731 166.498 275.948 160.889 275.948 154.465C275.948 147.95 273.731 142.341 269.298 137.636C264.865 132.841 259.481 130.443 253.148 130.443C246.724 130.443 241.295 132.841 236.862 137.636C232.428 142.341 230.212 147.95 230.212 154.465C230.212 160.889 232.428 166.498 236.862 171.294C241.295 175.998 246.724 178.351 253.148 178.351ZM351.7 111.714C360.748 111.714 368.439 115.062 374.772 121.757C380.834 128.362 383.865 136.234 383.865 145.372C383.865 154.42 380.834 162.246 374.772 168.851C368.439 175.546 360.748 178.894 351.7 178.894H325.372V196.944H304.065V111.714H351.7ZM351.7 157.586C354.777 157.586 357.355 156.32 359.436 153.786C361.517 151.253 362.558 148.448 362.558 145.372C362.558 142.205 361.517 139.355 359.436 136.822C357.355 134.288 354.777 133.022 351.7 133.022H325.372V157.586H351.7ZM431.46 111.036H467.018V132.615H431.46C424.132 132.615 418.567 136.143 414.767 143.2H450.868V164.779H414.767C418.567 171.836 424.132 175.365 431.46 175.365H467.018V196.944H431.46C419.97 196.944 410.289 192.692 402.417 184.187C394.546 175.682 390.61 165.639 390.61 154.058C390.61 142.477 394.546 132.434 402.417 123.929C410.289 115.333 419.97 111.036 431.46 111.036ZM514.421 108.864C525.821 108.864 535.502 113.162 543.464 121.757C551.155 130.081 555 140.034 555 151.615V196.944H533.693V151.615C533.693 146.005 531.838 141.074 528.128 136.822C524.509 132.479 519.94 130.307 514.421 130.307C508.902 130.307 504.287 132.479 500.578 136.822C496.959 141.074 495.149 146.005 495.149 151.615V196.944H473.842V151.615C473.842 140.034 477.732 130.036 485.513 121.622C493.385 113.117 503.021 108.864 514.421 108.864Z" fill="#282828"/>
<path d="M251.786 205.071C263.186 205.071 272.867 209.369 280.829 217.964C288.52 226.288 292.365 236.241 292.365 247.822V293.151H271.058V247.822C271.058 242.212 269.203 237.281 265.493 233.029C261.874 228.686 257.305 226.514 251.786 226.514C246.267 226.514 241.653 228.686 237.943 233.029C234.324 237.281 232.515 242.212 232.515 247.822V293.151H211.207V247.822C211.207 236.241 215.098 226.243 222.879 217.829C230.75 209.324 240.386 205.071 251.786 205.071ZM343.454 205.343C355.759 205.343 366.164 209.821 374.669 218.779C383.264 227.645 387.562 238.276 387.562 250.672C387.562 262.977 383.264 273.608 374.669 282.565C366.164 291.522 355.759 296.001 343.454 296.001C331.149 296.001 320.699 291.522 312.103 282.565C303.508 273.608 299.21 262.977 299.21 250.672C299.21 238.276 303.508 227.645 312.103 218.779C320.699 209.821 331.149 205.343 343.454 205.343ZM343.454 274.558C349.788 274.558 355.171 272.205 359.604 267.501C364.038 262.705 366.254 257.096 366.254 250.672C366.254 244.158 364.038 238.548 359.604 233.843C355.171 229.048 349.788 226.65 343.454 226.65C337.03 226.65 331.601 229.048 327.168 233.843C322.735 238.548 320.518 244.158 320.518 250.672C320.518 257.096 322.735 262.705 327.168 267.501C331.601 272.205 337.03 274.558 343.454 274.558ZM428.164 262.751L449.335 207.378H472.271L443.907 282.158C440.649 290.663 435.492 294.915 428.435 294.915C421.378 294.915 416.175 290.753 412.828 282.429L383.106 207.378H406.313L428.164 262.751ZM511.031 205.207C522.341 205.207 531.976 209.414 539.938 217.829C547.9 226.153 551.881 236.241 551.881 248.093V293.151H530.438V273.744H491.759V293.151H470.18V248.093C470.18 236.241 474.161 226.153 482.123 217.829C490.176 209.414 499.812 205.207 511.031 205.207ZM491.759 252.3H530.438V248.093C530.438 242.212 528.538 237.191 524.738 233.029C520.938 228.776 516.369 226.65 511.031 226.65C505.693 226.65 501.124 228.776 497.324 233.029C493.614 237.191 491.759 242.212 491.759 248.093V252.3Z" fill="#282828"/>
</svg>
