<svg width="760" height="400" viewBox="0 0 760 400" fill="none" xmlns="http://www.w3.org/2000/svg">
<mask id="mask0_1046_246" style="mask-type:luminance" maskUnits="userSpaceOnUse" x="137" y="115" width="509" height="163">
<path d="M646 115H137V277.235H646V115Z" fill="white"/>
</mask>
<g mask="url(#mask0_1046_246)">
<path d="M373.156 191.574H325.127V124.073H339.386V179.271H373.156V191.574ZM390.546 191.574H377.199V141.554H390.546V191.574ZM390.546 135.601H377.199V123.255H390.546V135.601ZM420.554 182.156C427.227 182.156 431.955 175.955 431.955 167.011C431.955 156.742 428.26 151.564 420.456 151.564C413.065 151.564 409.272 156.946 409.272 167.829C409.229 176.225 414.152 182.113 420.51 182.113L420.554 182.156ZM409.479 191.617H396.599V123.255H409.74V148.012C411.355 145.548 413.581 143.535 416.204 142.163C418.827 140.792 421.762 140.108 424.727 140.176C437.769 140.176 445.454 150.854 445.454 166.01C445.454 182.888 436.324 192.844 423.597 192.844C417.435 192.844 412.728 190.508 409.533 185.428L409.479 191.617ZM463.061 161.682H483.711C483.516 154.266 478.582 150.703 473.343 150.703C468.104 150.703 463.561 154.826 463.061 161.682ZM497.45 170.014H462.67C463.061 177.538 467.408 182.425 473.929 182.425C478.277 182.425 482.038 180.272 482.962 176.827H496.754C493.667 187.096 485.364 192.887 474.582 192.887C457.747 192.887 449.334 183.738 449.334 165.644C449.334 150.197 458.257 140.23 473.756 140.23C489.255 140.23 497.439 150.197 497.439 170.014H497.45ZM515.404 191.542H502.046V141.554H514.568V147.549C518.981 140.843 524.121 140.23 529.555 140.23H531.305V153.749C530.083 153.553 528.847 153.453 527.609 153.448C519.393 153.448 515.393 157.517 515.393 165.547L515.404 191.542ZM563.671 171.618V158.636H576.095V172.866C576.095 183.436 569.933 192.887 555.673 192.887C540.892 192.887 535.023 183.544 535.023 172.759V128.034H548.162V141.554H576.095V150.908H548.162V171.445C548.162 177.742 550.423 181.402 555.868 181.402C561.314 181.402 563.661 177.85 563.661 171.65L563.671 171.618ZM594.169 161.65H614.82C614.614 154.234 609.679 150.671 604.452 150.671C599.224 150.671 594.68 154.826 594.159 161.682L594.169 161.65ZM628.557 169.982H593.779C594.18 177.516 598.496 182.392 605.059 182.392C609.407 182.392 613.179 180.24 614.092 176.795H627.829C624.754 187.064 616.439 192.855 605.657 192.855C588.822 192.855 580.409 183.706 580.409 165.611C580.409 150.165 589.333 140.198 604.842 140.198C620.352 140.198 628.547 150.197 628.547 170.014L628.557 169.982ZM620.852 125.699L597.963 135.257L594.778 129.66L616.027 117.356L620.852 125.699ZM392.871 268.461H379.111L368.503 224.544L357.733 268.461H344.419L325.127 200.96H340.343L351.538 244.672L360.983 200.96H375.96L386.329 244.672L397.414 200.96H411.979L392.871 268.461ZM438.259 249.452L438.367 243.963C437.031 245.276 434.673 245.986 429.738 246.9C422.13 248.333 419.684 250.463 419.684 254.737C419.684 258.494 421.945 260.323 426.205 260.323C433.031 260.313 438.161 255.34 438.259 249.452ZM451.703 268.461H439.291C438.842 267.005 438.565 265.502 438.465 263.983C435.28 267.438 429.944 269.775 423.173 269.775C411.674 269.775 406.337 264.188 406.337 256.05C406.337 241.615 416.119 239.991 429.542 238.16C436.205 237.245 438.053 235.921 438.053 232.466C438.053 229.237 434.792 227.289 429.542 227.289C423.478 227.289 421.021 230.238 420.401 234.705H407.979C408.185 224.34 413.935 217.117 430.151 217.117C446.161 217.117 451.703 224.232 451.703 236.836V268.461ZM486.233 248.537V235.555H498.645V249.786C498.645 260.356 492.493 269.807 478.223 269.807C463.442 269.807 457.573 260.452 457.573 249.678V204.921H470.712V218.441H498.623V227.795H470.735V248.333C470.735 254.629 472.984 258.289 478.429 258.289C483.874 258.289 486.233 254.737 486.233 248.537ZM532.74 248.537V235.555H545.163V249.786C545.163 260.356 539 269.807 524.73 269.807C509.948 269.807 504.079 260.452 504.079 249.678V204.921H517.22V218.441H545.141V227.795H517.241V248.333C517.241 254.629 519.501 258.289 524.936 258.289C530.37 258.289 532.74 254.737 532.74 248.537ZM593.821 233.586H580.997C580.279 228.71 577.606 226.977 571.552 226.977C566.519 226.977 563.65 228.204 563.65 231.153C563.65 234.102 566.421 235.319 571.856 236.836C577.606 238.473 583.051 239.582 586.942 241.142C592.289 243.295 595.267 246.739 595.267 253.241C595.267 263.606 587.561 269.807 573.192 269.807C557.694 269.807 549.076 262.594 548.869 252.423H562.618C562.618 257.105 566.629 259.85 573.095 259.85C577.812 259.85 582.019 258.429 582.019 254.662C582.019 251.11 578.225 249.99 573.91 248.967C565.389 246.933 560.672 245.512 557.074 243.273C555.071 242.153 553.417 240.508 552.295 238.518C551.173 236.528 550.627 234.27 550.717 231.992C550.717 223.554 556.564 217.149 571.965 217.149C586.539 217.117 593.104 222.811 593.821 233.586Z" fill="#282828"/>
<path d="M291.183 115H147.977C141.915 115 137 119.867 137 125.872V266.363C137 272.368 141.915 277.235 147.977 277.235H291.183C297.245 277.235 302.16 272.368 302.16 266.363V125.872C302.16 119.867 297.245 115 291.183 115Z" fill="#282828"/>
<path d="M225.245 186.505L243.819 133.299C243.916 132.948 243.887 132.574 243.738 132.24C243.588 131.907 243.327 131.636 242.999 131.471C242.671 131.307 242.295 131.259 241.935 131.338C241.576 131.416 241.255 131.614 241.026 131.9L178.477 204.341C178.313 204.541 178.214 204.785 178.194 205.041C178.173 205.297 178.231 205.554 178.361 205.777C178.49 205.999 178.685 206.178 178.919 206.289C179.153 206.4 179.416 206.437 179.673 206.397L209.214 203.749" fill="white"/>
<path d="M213.949 206.074L195.375 259.323C195.278 259.675 195.307 260.049 195.456 260.382C195.606 260.715 195.867 260.987 196.195 261.152C196.523 261.316 196.899 261.363 197.258 261.285C197.618 261.206 197.939 261.008 198.168 260.723L260.717 188.195C260.877 187.995 260.973 187.752 260.991 187.498C261.01 187.244 260.951 186.99 260.822 186.769C260.692 186.549 260.5 186.372 260.268 186.261C260.036 186.151 259.775 186.112 259.521 186.15L229.98 188.787" fill="white"/>
</g>
</svg>
