<svg width="760" height="400" viewBox="0 0 760 400" fill="none" xmlns="http://www.w3.org/2000/svg">
<path fill-rule="evenodd" clip-rule="evenodd" d="M100 150.499H119.374L146.166 226.127H146.717L173.785 150.499H192.472L153.45 248.746H138.472L100 150.499Z" fill="#282828"/>
<path fill-rule="evenodd" clip-rule="evenodd" d="M229.325 248.746H246.638V150.499H229.325V248.746Z" fill="#282828"/>
<path fill-rule="evenodd" clip-rule="evenodd" d="M327.015 192.822C329.488 192.822 331.961 192.639 334.434 192.268C336.908 191.899 339.128 191.205 341.098 190.187C343.066 189.169 344.692 187.712 345.976 185.815C347.258 183.921 347.899 181.492 347.899 178.531C347.899 175.848 347.303 173.651 346.113 171.938C344.922 170.228 343.41 168.864 341.579 167.845C339.745 166.828 337.662 166.134 335.327 165.764C332.991 165.394 330.724 165.209 328.526 165.209H312.862V192.822H327.015ZM295.548 150.499H329.351C333.93 150.499 338.371 150.985 342.679 151.956C346.983 152.928 350.806 154.524 354.151 156.744C357.494 158.964 360.174 161.878 362.189 165.486C364.203 169.093 365.212 173.489 365.212 178.669C365.212 185.793 363.22 191.598 359.235 196.084C355.251 200.572 349.823 203.601 342.953 205.173C342.953 205.173 376.82 266.762 429.706 266.762L426.332 281.14C362.627 281.14 325.503 207.115 325.503 207.115H312.862V248.746H295.548V150.499Z" fill="#282828"/>
<path fill-rule="evenodd" clip-rule="evenodd" d="M494.626 243.61C489.68 246.017 484.252 247.891 478.344 249.231C472.436 250.57 465.634 251.242 457.94 251.242C450.061 251.242 442.871 249.969 436.368 247.427C429.863 244.884 424.276 241.321 419.605 236.742C414.932 232.162 411.292 226.705 408.681 220.367C406.07 214.032 404.765 207.024 404.765 199.344C404.765 191.482 406.115 184.381 408.818 178.043C411.519 171.708 415.228 166.317 419.948 161.877C424.665 157.436 430.23 154.015 436.642 151.608C443.053 149.203 450.015 148 457.527 148C465.313 148 472.435 149.134 478.894 151.4C485.352 153.668 490.55 156.652 494.489 160.351L482.535 173.395C480.062 170.619 476.603 168.26 472.161 166.317C467.717 164.375 462.886 163.404 457.664 163.404C452.533 163.404 447.885 164.329 443.719 166.179C439.549 168.03 436 170.573 433.07 173.811C430.137 177.051 427.87 180.842 426.268 185.189C424.665 189.54 423.863 194.257 423.863 199.344C423.863 204.617 424.665 209.452 426.268 213.845C427.87 218.24 430.161 222.056 433.139 225.293C436.115 228.533 439.734 231.052 443.994 232.856C448.253 234.66 453.084 235.562 458.489 235.562C465.909 235.562 472.367 234.406 477.863 232.092V207.114H457.39V192.683H494.626V243.61Z" fill="#282828"/>
<path fill-rule="evenodd" clip-rule="evenodd" d="M543.141 248.746H560.455V150.499H543.141V248.746Z" fill="#282828"/>
<path fill-rule="evenodd" clip-rule="evenodd" d="M609.33 150.499H626.642V233.204H668V248.746H609.33V150.499Z" fill="#282828"/>
</svg>
