<svg width="760" height="400" viewBox="0 0 760 400" fill="none" xmlns="http://www.w3.org/2000/svg">
<path d="M132.225 156.586C132.383 156.708 132.541 156.83 132.704 156.956C139.817 162.525 139.817 162.525 141.869 165.946C141.815 166.927 141.383 167.372 140.674 168.013C140.486 168.185 140.298 168.357 140.105 168.535C139.903 168.716 139.701 168.897 139.493 169.084C139.078 169.464 138.663 169.845 138.248 170.226C138.043 170.414 137.839 170.601 137.628 170.795C136.834 171.534 136.069 172.299 135.309 173.073C134.321 174.07 133.352 175.035 132.225 175.874C132.037 175.874 131.85 175.874 131.657 175.874C131.277 175.435 131.277 175.435 130.824 174.81C123.792 165.56 113.445 159.984 102.055 158.133C100.315 157.916 98.5725 157.935 96.8214 157.933C96.5263 157.933 96.5263 157.933 96.2253 157.932C93.1172 157.937 90.1517 158.119 87.124 158.855C86.9188 158.902 86.7135 158.949 86.502 158.998C78.587 160.848 71.7255 164.944 65.8502 170.485C65.6589 170.661 65.4677 170.837 65.2707 171.019C57.2626 178.659 53.1945 189.992 52.5185 200.835C52.498 201.158 52.4776 201.481 52.4565 201.814C52.2441 209.149 54.0967 216.427 57.3406 222.96C57.432 223.148 57.5234 223.335 57.6176 223.528C62.8586 234.188 72.1933 242.443 83.4188 246.29C85.7549 247.061 88.0988 247.554 90.5279 247.921C90.8646 247.977 90.8646 247.977 91.2082 248.035C100.746 249.387 110.463 245.937 118.042 240.263C126.322 233.833 130.525 225.784 132.225 215.585C122.677 215.585 113.129 215.585 103.292 215.585C103.292 211.279 103.292 206.974 103.292 202.537C117.988 202.537 132.684 202.537 147.825 202.537C147.825 218.847 144.918 233.632 133.359 245.652C133.22 245.801 133.08 245.949 132.937 246.102C129.222 250.04 125.13 253.116 120.311 255.58C120.118 255.679 119.925 255.779 119.725 255.881C107.192 262.243 92.3219 263.26 78.8981 259.268C78.6978 259.208 78.4976 259.149 78.2912 259.087C72.5819 257.339 67.253 254.562 62.4463 251.042C62.27 250.913 62.0937 250.784 61.912 250.652C58.4007 248.061 54.9638 245.098 52.2349 241.681C52.0038 241.401 51.7727 241.12 51.5346 240.831C43.7364 231.251 38.4077 218.977 38.0523 206.508C38.045 206.293 38.0377 206.077 38.0301 205.854C37.6395 192.813 41.0372 179.665 48.831 169.066C49.0008 168.832 49.0008 168.832 49.174 168.592C50.9653 166.128 52.9637 163.888 55.0714 161.691C55.2937 161.457 55.516 161.223 55.7451 160.982C64.5478 151.928 76.4789 146.792 88.8259 144.956C89.0195 144.926 89.213 144.897 89.4124 144.867C104.392 142.888 120.339 147.345 132.225 156.586Z" fill="#282828"/>
<path d="M472.324 129.922C476.817 129.922 481.31 129.922 485.939 129.922C485.939 172.512 485.939 215.102 485.939 258.983C481.446 258.983 476.953 258.983 472.324 258.983C472.23 255.707 472.137 252.431 472.04 249.056C471.543 249.652 471.046 250.249 470.533 250.864C465.451 256.811 458.917 260.791 451.05 261.536C442.57 262.143 434.175 259.769 427.652 254.25C420.352 247.913 416.329 238.618 415.361 229.092C415.247 227.434 415.24 225.773 415.239 224.112C415.239 223.917 415.238 223.721 415.238 223.52C415.243 220.424 415.424 217.466 416.161 214.45C416.209 214.242 416.258 214.034 416.308 213.819C417.886 207.195 420.948 201.609 425.521 196.58C425.686 196.392 425.85 196.204 426.02 196.011C431.23 190.382 439.343 187.572 446.816 187.173C454.872 186.967 462.044 189.76 467.886 195.265C469.419 196.79 470.841 198.469 472.04 200.267C472.134 177.053 472.227 153.839 472.324 129.922ZM435.165 206.224C430.884 211.184 428.801 217.66 428.836 224.147C428.838 224.458 428.84 224.769 428.841 225.089C428.939 231.687 431.086 237.815 435.449 242.815C435.596 242.99 435.744 243.164 435.896 243.344C439.098 246.852 444.081 249.088 448.777 249.374C455.116 249.659 460.686 248.054 465.569 243.879C470.571 239.178 472.955 232.401 473.238 225.652C473.428 218.46 471.515 211.612 466.764 206.09C462.536 201.635 456.971 199.54 450.908 199.346C444.831 199.415 439.387 201.848 435.165 206.224Z" fill="#282828"/>
<path d="M720.691 122.598C727.159 128.234 731.823 136.315 732.716 144.956C732.716 145.424 732.716 145.892 732.716 146.374C726.07 146.374 719.424 146.374 712.577 146.374C712.296 145.625 712.015 144.876 711.726 144.105C710.142 140.077 707.79 137.223 703.807 135.384C699.928 133.806 695.546 133.522 691.575 134.956C687.33 136.756 684.567 139.388 682.776 143.695C681.448 147.488 681.369 152.062 683.077 155.735C684.352 157.943 685.806 159.908 687.899 161.408C688.101 161.555 688.304 161.702 688.512 161.854C691.789 164.026 695.629 164.981 699.529 164.528C703.093 163.804 706.836 162.097 709.05 159.105C710.189 157.334 710.53 155.855 710.308 153.749C709.756 152.54 708.991 152.205 707.802 151.744C705.964 151.098 704.209 150.974 702.274 150.899C701.925 150.882 701.577 150.865 701.218 150.847C700.118 150.793 699.017 150.746 697.916 150.7C697.165 150.664 696.414 150.629 695.663 150.592C693.831 150.505 692 150.423 690.168 150.345C690.168 150.064 690.168 149.784 690.168 149.494C704.303 149.494 718.437 149.494 733 149.494C733 153.195 733 153.195 732.681 155.043C732.644 155.259 732.606 155.475 732.568 155.697C731.208 163.007 727.618 169.143 722.505 174.456C722.329 174.653 722.153 174.85 721.972 175.053C716.99 180.458 708.751 184.273 701.423 184.725C700.401 184.753 699.381 184.76 698.359 184.756C697.996 184.755 697.633 184.753 697.26 184.752C694.521 184.719 691.971 184.48 689.318 183.816C688.98 183.734 688.643 183.652 688.295 183.567C679.5 181.234 671.948 176.17 667.305 168.241C662.297 159.388 660.519 149.601 663.091 139.689C664.754 133.834 667.83 128.91 672.015 124.533C672.188 124.342 672.361 124.151 672.539 123.955C685.147 110.516 707.189 111.303 720.691 122.598Z" fill="#282828"/>
<path d="M547.21 194.311C549.355 196.218 550.884 198.194 552.599 200.552C552.693 196.901 552.786 193.251 552.883 189.489C557.376 189.489 561.869 189.489 566.498 189.489C566.498 212.423 566.498 235.356 566.498 258.984C562.005 258.984 557.512 258.984 552.883 258.984C552.789 255.614 552.695 252.244 552.599 248.773C551.335 250.317 551.335 250.317 550.046 251.893C545.112 257.37 538.503 261.112 531.035 261.572C523.043 261.864 514.654 260.005 508.521 254.575C508.277 254.345 508.033 254.115 507.782 253.878C507.637 253.746 507.491 253.613 507.342 253.476C499.346 246.149 496.029 235.564 495.533 224.969C495.416 218.568 496.644 212.345 499.273 206.508C499.403 206.215 499.534 205.922 499.669 205.62C501.282 202.208 503.479 199.299 506.08 196.581C506.253 196.389 506.427 196.198 506.605 196.001C517.185 184.723 535.754 184.497 547.21 194.311ZM515.558 206.276C511.686 210.799 509.426 216.726 509.2 222.677C509.189 222.933 509.178 223.19 509.166 223.454C509.013 230.25 510.991 236.61 515.157 241.965C515.283 242.137 515.409 242.31 515.539 242.488C518.417 246.179 523.175 248.443 527.72 249.215C533.883 249.948 539.994 248.679 544.94 244.801C549.915 240.536 552.731 234.546 553.45 228.066C553.962 220.489 552.863 213.207 547.995 207.138C547.376 206.43 546.738 205.756 546.075 205.09C545.905 204.913 545.734 204.736 545.559 204.554C541.544 200.695 535.785 199.295 530.367 199.357C524.511 199.698 519.635 202.043 515.558 206.276Z" fill="#282828"/>
<path d="M305.819 193.744C306.085 193.963 306.351 194.182 306.624 194.407C308.718 196.219 310.024 197.991 311.776 200.268C311.869 196.711 311.963 193.154 312.059 189.489C316.552 189.489 321.045 189.489 325.675 189.489C325.675 212.422 325.675 235.355 325.675 258.984C321.182 258.984 316.689 258.984 312.059 258.984C311.966 255.707 311.872 252.431 311.776 249.056C311.278 249.653 310.781 250.249 310.269 250.864C305.217 256.792 298.682 260.846 290.785 261.536C281.959 262 273.633 259.628 266.927 253.802C260.675 248.146 257.188 240.504 255.613 232.32C255.549 232.004 255.485 231.689 255.419 231.363C253.679 220.996 255.677 209.357 261.817 200.693C267.362 193.233 274.691 188.747 283.894 187.39C291.947 186.429 299.579 188.591 305.819 193.744ZM275.185 205.941C269.953 211.944 268.265 219.405 268.661 227.215C269.292 234.128 272.251 240.495 277.545 245.057C282.169 248.677 287.878 249.876 293.652 249.278C299.277 248.49 304.368 245.61 307.84 241.096C312.286 234.652 313.899 226.77 312.573 219.06C311.392 212.916 308.704 207.202 303.567 203.423C300.142 201.206 296.325 199.589 292.204 199.417C291.955 199.402 291.707 199.388 291.451 199.372C285.311 199.175 279.459 201.498 275.185 205.941Z" fill="#282828"/>
<path d="M621.22 187.174C628.089 186.989 634.77 188.584 639.908 193.363C642.843 196.502 644.445 200.249 645.564 204.345C645.62 204.549 645.677 204.752 645.735 204.962C646.705 208.752 646.853 212.59 646.834 216.478C646.834 216.945 646.834 217.412 646.834 217.88C646.834 219.133 646.831 220.386 646.827 221.639C646.823 222.955 646.823 224.27 646.822 225.586C646.821 228.07 646.816 230.554 646.81 233.039C646.804 235.87 646.801 238.701 646.798 241.532C646.792 247.349 646.782 253.166 646.77 258.984C642.276 258.984 637.783 258.984 633.154 258.984C633.149 257.63 633.143 256.276 633.137 254.881C633.118 250.4 633.096 245.918 633.073 241.437C633.059 238.721 633.045 236.005 633.035 233.289C633.025 230.921 633.014 228.552 633 226.183C632.993 224.93 632.987 223.677 632.983 222.424C632.979 221.242 632.973 220.06 632.965 218.878C632.962 218.447 632.961 218.016 632.96 217.585C632.952 212.722 632.654 207.34 629.467 203.388C626.947 200.957 623.574 199.851 620.106 199.701C619.681 199.679 619.681 199.679 619.246 199.656C614.608 199.531 609.856 200.338 606.349 203.619C600.811 209.806 601.254 218.739 601.242 226.508C601.239 227.654 601.232 228.799 601.225 229.945C601.212 232.105 601.204 234.264 601.198 236.424C601.19 238.887 601.177 241.349 601.165 243.812C601.138 248.869 601.119 253.927 601.102 258.984C596.609 258.984 592.116 258.984 587.486 258.984C587.486 236.051 587.486 213.117 587.486 189.489C591.979 189.489 596.472 189.489 601.102 189.489C601.195 192.297 601.289 195.105 601.385 197.999C602.134 196.969 602.883 195.939 603.654 194.879C607.582 190.309 613.795 187.757 619.711 187.256C620.214 187.229 620.717 187.202 621.22 187.174Z" fill="#282828"/>
<path d="M343.264 189.489C347.757 189.489 352.25 189.489 356.879 189.489C356.882 190.783 356.884 192.076 356.887 193.409C356.897 197.7 356.912 201.991 356.931 206.282C356.942 208.881 356.952 211.481 356.956 214.081C356.96 216.349 356.967 218.617 356.98 220.886C356.986 222.085 356.991 223.283 356.99 224.482C356.876 235.558 356.876 235.558 361.985 245.085C365.732 248.08 370.343 248.885 375.033 248.489C377.553 248.118 380.033 247.431 382.124 245.936C382.318 245.8 382.512 245.664 382.711 245.524C386.279 242.729 387.501 238.045 388.081 233.739C388.335 231.033 388.41 228.336 388.423 225.62C388.425 225.222 388.428 224.825 388.431 224.427C388.439 223.362 388.445 222.297 388.45 221.232C388.457 220.113 388.464 218.995 388.472 217.877C388.486 215.765 388.499 213.654 388.511 211.542C388.525 209.136 388.541 206.73 388.556 204.323C388.589 199.378 388.619 194.434 388.648 189.489C393.141 189.489 397.634 189.489 402.263 189.489C402.276 194.981 402.287 200.472 402.293 205.964C402.296 208.514 402.3 211.064 402.306 213.615C402.312 215.84 402.315 218.065 402.317 220.291C402.317 221.467 402.319 222.643 402.323 223.819C402.363 235.585 402.363 235.585 401.076 240.742C401.015 240.987 400.955 241.233 400.893 241.486C399.255 247.834 395.699 253.758 390.066 257.282C381.788 262.079 371.664 262.702 362.475 260.393C358.578 259.324 355.058 257.443 352.057 254.729C351.857 254.549 351.656 254.368 351.45 254.182C345.959 248.964 343.397 240.825 343.17 233.387C343.155 232.387 343.16 231.386 343.167 230.385C343.167 229.935 343.167 229.484 343.167 229.033C343.167 227.828 343.172 226.623 343.178 225.418C343.183 224.152 343.183 222.885 343.184 221.619C343.187 219.229 343.194 216.839 343.203 214.45C343.212 211.726 343.217 209.002 343.221 206.278C343.23 200.681 343.245 195.085 343.264 189.489Z" fill="#282828"/>
<path d="M183.848 189.489C188.902 189.489 193.957 189.489 199.165 189.489C201.493 194.412 203.81 199.337 206.055 204.298C207.519 207.536 209.002 210.764 210.493 213.99C212.196 217.674 213.894 221.361 215.581 225.052C215.676 225.26 215.771 225.468 215.869 225.682C216.836 227.795 217.799 229.911 218.737 232.037C220.237 229.084 221.671 226.106 223.051 223.094C223.49 222.136 223.93 221.179 224.371 220.221C224.602 219.718 224.834 219.214 225.065 218.711C226.195 216.253 227.332 213.799 228.471 211.345C230.617 206.719 232.757 202.091 234.891 197.46C234.991 197.242 235.092 197.024 235.195 196.8C235.377 196.405 235.559 196.011 235.741 195.616C236.684 193.57 237.64 191.531 238.592 189.489C243.647 189.489 248.702 189.489 253.91 189.489C253.482 190.773 253.041 191.876 252.451 193.08C252.362 193.263 252.273 193.446 252.181 193.635C251.884 194.245 251.585 194.854 251.286 195.464C251.072 195.902 250.858 196.34 250.644 196.778C250.061 197.973 249.476 199.168 248.891 200.362C248.261 201.649 247.631 202.937 247.002 204.225C246.214 205.839 245.425 207.452 244.635 209.066C242.931 212.549 241.23 216.034 239.532 219.521C239.422 219.746 239.313 219.971 239.2 220.203C238.649 221.333 238.099 222.463 237.549 223.593C236.438 225.876 235.326 228.159 234.214 230.441C234.047 230.783 234.047 230.783 233.878 231.131C231.56 235.888 229.24 240.644 226.92 245.4C226.162 246.954 225.404 248.507 224.647 250.061C224.126 251.129 223.605 252.198 223.084 253.266C222.836 253.775 222.588 254.283 222.34 254.792C221.996 255.498 221.652 256.205 221.307 256.911C221.207 257.117 221.107 257.322 221.004 257.534C220.351 258.873 219.688 260.206 219.02 261.537C218.308 260.852 217.891 260.233 217.452 259.343C217.25 258.937 217.25 258.937 217.044 258.523C216.9 258.231 216.757 257.938 216.609 257.637C216.458 257.329 216.306 257.022 216.149 256.706C215.068 254.513 214.008 252.309 212.958 250.101C211.669 247.392 210.355 244.696 209.039 242C208.569 241.036 208.099 240.072 207.629 239.108C207.513 238.87 207.396 238.632 207.277 238.386C206.165 236.106 205.058 233.824 203.951 231.541C203.581 230.776 203.211 230.012 202.84 229.247C202.748 229.058 202.657 228.869 202.562 228.674C201.484 226.45 200.404 224.226 199.324 222.003C199.224 221.797 199.124 221.591 199.021 221.379C198.515 220.337 198.009 219.295 197.503 218.254C196.898 217.009 196.294 215.764 195.689 214.519C195.59 214.315 195.49 214.11 195.388 213.899C194.887 212.868 194.386 211.836 193.885 210.805C192.863 208.701 191.841 206.597 190.818 204.494C189.814 202.428 188.81 200.362 187.808 198.296C187.443 197.542 187.077 196.788 186.71 196.034C186.222 195.029 185.735 194.023 185.248 193.017C185.032 192.574 185.032 192.574 184.812 192.122C184.684 191.856 184.555 191.589 184.423 191.314C184.311 191.083 184.199 190.852 184.084 190.614C183.848 190.057 183.848 190.057 183.848 189.489Z" fill="#282828"/>
<path d="M160.873 189.489C165.366 189.489 169.859 189.489 174.488 189.489C174.488 212.422 174.488 235.356 174.488 258.984C169.995 258.984 165.502 258.984 160.873 258.984C160.873 236.051 160.873 213.117 160.873 189.489Z" fill="#282828"/>
<path d="M172.503 149.494C175.122 151.36 176.451 153.431 177.041 156.585C177.365 158.962 176.705 161.409 175.304 163.34C173.616 165.336 171.388 166.746 168.762 167.009C166.054 167.21 163.521 166.625 161.403 164.88C159.592 163.175 158.468 161.344 158.243 158.845C158.157 155.93 158.707 153.539 160.536 151.213C163.594 147.999 168.653 147.217 172.503 149.494Z" fill="#282828"/>
</svg>
