<svg width="760" height="400" viewBox="0 0 760 400" fill="none" xmlns="http://www.w3.org/2000/svg">
<path d="M103.515 167.328C103.706 167.327 103.897 167.325 104.094 167.324C104.738 167.32 105.382 167.321 106.025 167.321C106.486 167.319 106.946 167.317 107.406 167.315C108.659 167.31 109.911 167.308 111.164 167.308C112.208 167.308 113.253 167.305 114.298 167.303C116.762 167.298 119.226 167.297 121.691 167.297C124.235 167.298 126.779 167.292 129.323 167.282C131.505 167.275 133.688 167.271 135.87 167.272C137.174 167.272 138.478 167.27 139.783 167.264C141.009 167.258 142.236 167.258 143.462 167.263C143.913 167.263 144.363 167.262 144.814 167.258C145.428 167.254 146.043 167.256 146.657 167.261C147.001 167.261 147.345 167.26 147.7 167.26C148.77 167.439 149.107 167.731 149.756 168.587C150.005 169.387 150.19 170.127 150.345 170.945C150.394 171.182 150.443 171.418 150.493 171.662C150.652 172.443 150.805 173.224 150.958 174.006C151.067 174.55 151.177 175.094 151.288 175.637C151.577 177.068 151.861 178.5 152.144 179.932C152.433 181.387 152.727 182.842 153.02 184.296C153.535 186.854 154.045 189.413 154.553 191.973C154.723 192.831 154.894 193.689 155.066 194.546C155.26 194.546 155.455 194.546 155.656 194.546C155.684 194.354 155.711 194.161 155.74 193.962C156.489 188.793 157.296 183.636 158.153 178.483C158.318 177.486 158.482 176.488 158.644 175.489C158.803 174.522 158.964 173.556 159.124 172.589C159.182 172.233 159.24 171.877 159.299 171.51C159.355 171.181 159.41 170.853 159.467 170.514C159.514 170.226 159.562 169.939 159.611 169.642C159.78 168.906 159.98 168.344 160.376 167.702C161.222 167.279 161.944 167.369 162.89 167.367C163.189 167.366 163.189 167.366 163.495 167.365C164.168 167.363 164.841 167.364 165.514 167.364C165.995 167.363 166.476 167.362 166.957 167.361C168.266 167.358 169.575 167.358 170.885 167.357C171.976 167.357 173.068 167.356 174.16 167.355C176.734 167.353 179.309 167.352 181.884 167.352C184.542 167.352 187.201 167.349 189.86 167.345C192.141 167.341 194.421 167.339 196.701 167.339C198.064 167.339 199.427 167.339 200.791 167.335C202.072 167.333 203.354 167.333 204.635 167.335C205.106 167.335 205.577 167.334 206.048 167.332C206.69 167.33 207.332 167.332 207.974 167.334C208.333 167.334 208.693 167.334 209.063 167.333C209.935 167.407 209.935 167.407 210.82 167.997C210.931 168.66 210.931 168.66 210.931 169.505C210.934 169.827 210.936 170.148 210.938 170.479C210.936 170.835 210.934 171.191 210.932 171.558C210.934 171.934 210.935 172.31 210.937 172.697C210.94 173.744 210.938 174.791 210.936 175.838C210.934 176.966 210.937 178.093 210.939 179.221C210.943 181.432 210.942 183.642 210.94 185.853C210.938 187.649 210.937 189.444 210.938 191.24C210.939 191.496 210.939 191.751 210.939 192.014C210.939 192.532 210.939 193.05 210.94 193.569C210.942 198.434 210.939 203.299 210.935 208.165C210.931 212.343 210.931 216.522 210.935 220.7C210.94 225.548 210.942 230.395 210.939 235.243C210.939 235.759 210.939 236.276 210.938 236.792C210.938 237.046 210.938 237.3 210.938 237.562C210.937 239.357 210.939 241.151 210.941 242.946C210.943 245.132 210.942 247.318 210.938 249.503C210.935 250.62 210.935 251.736 210.937 252.852C210.941 254.059 210.937 255.267 210.932 256.475C210.934 256.831 210.936 257.187 210.938 257.553C210.936 257.875 210.934 258.196 210.931 258.527C210.931 258.946 210.931 258.946 210.931 259.373C210.894 259.592 210.858 259.81 210.82 260.036C209.676 260.799 208.705 260.726 207.376 260.739C206.984 260.747 206.984 260.747 206.584 260.754C205.717 260.769 204.851 260.778 203.984 260.787C203.54 260.792 203.54 260.792 203.087 260.797C201.52 260.812 199.953 260.824 198.386 260.832C197.09 260.84 195.794 260.857 194.498 260.881C192.932 260.91 191.367 260.924 189.801 260.929C189.205 260.932 188.609 260.941 188.013 260.956C183.347 261.06 183.347 261.06 181.995 259.995C181.462 259.24 181.101 258.52 180.73 257.676C180.406 257.217 180.068 256.768 179.716 256.33C179.478 256.023 179.478 256.023 179.235 255.709C178.682 255.015 178.682 255.015 178.056 254.429C176.594 252.991 176.035 251.995 176.012 249.939C176.02 249.639 176.029 249.34 176.038 249.031C176.037 248.709 176.037 248.386 176.036 248.054C176.038 246.995 176.056 245.938 176.075 244.879C176.079 244.142 176.083 243.405 176.085 242.668C176.093 240.932 176.112 239.196 176.135 237.459C176.165 235.287 176.177 233.114 176.19 230.941C176.215 227.069 176.255 223.198 176.305 219.326C175.615 219.584 175.615 219.584 175.427 220.48C175.316 220.899 175.209 221.318 175.104 221.738C175.042 221.979 174.98 222.219 174.917 222.467C173.807 226.869 172.824 231.304 171.814 235.73C171.522 237.01 171.229 238.29 170.936 239.57C170.365 242.065 169.795 244.56 169.226 247.056C168.098 246.685 166.994 246.285 165.892 245.844C157.065 242.366 148.974 243.02 140.021 245.581C139.734 244.34 139.449 243.099 139.164 241.858C139.059 241.402 138.954 240.947 138.85 240.491C138.194 237.641 137.556 234.789 136.944 231.929C136.826 231.378 136.707 230.827 136.589 230.276C136.415 229.469 136.243 228.661 136.073 227.853C135.914 227.098 135.753 226.343 135.59 225.588C135.544 225.364 135.498 225.14 135.451 224.909C135.185 223.691 134.878 222.687 134.121 221.686C133.926 221.686 133.732 221.686 133.531 221.686C133.148 222.834 133.22 223.907 133.246 225.102C133.254 225.638 133.263 226.175 133.271 226.711C133.276 226.996 133.281 227.28 133.285 227.574C133.312 229.403 133.317 231.232 133.326 233.061C133.334 234.666 133.351 236.27 133.385 237.875C133.417 239.429 133.428 240.982 133.424 242.537C133.426 243.127 133.436 243.717 133.454 244.306C133.598 249.158 133.598 249.158 131.98 250.889C131.064 251.731 130.079 252.441 129.054 253.142C126.846 254.799 125.291 257.392 123.878 259.716C123.501 260.331 123.501 260.331 123.206 260.626C122.54 260.657 121.872 260.667 121.205 260.669C120.996 260.67 120.787 260.67 120.571 260.672C119.877 260.674 119.182 260.675 118.487 260.675C118.006 260.676 117.525 260.677 117.044 260.678C116.035 260.68 115.025 260.681 114.016 260.68C112.72 260.68 111.424 260.684 110.128 260.689C109.134 260.693 108.14 260.693 107.147 260.693C106.669 260.693 106.191 260.695 105.713 260.697C105.045 260.7 104.378 260.699 103.71 260.697C103.33 260.698 102.95 260.698 102.558 260.699C101.671 260.626 101.671 260.626 101.081 260.036C101.007 259.373 101.007 259.373 101.007 258.527C101.006 258.206 101.004 257.884 101.002 257.553C101.004 257.197 101.005 256.841 101.006 256.475C101.005 255.911 101.005 255.911 101.004 255.335C101.001 254.288 101.002 253.242 101.004 252.195C101.006 251.067 101.004 249.939 101.002 248.811C100.999 246.601 101 244.39 101.002 242.18C101.003 240.384 101.003 238.588 101.002 236.792C101.002 236.537 101.002 236.282 101.002 236.019C101.002 235.5 101.002 234.982 101.002 234.464C101 229.598 101.002 224.733 101.005 219.868C101.008 215.689 101.007 211.511 101.004 207.332C101.001 202.485 101 197.637 101.002 192.79C101.002 192.273 101.002 191.757 101.002 191.24C101.002 190.986 101.003 190.732 101.003 190.47C101.003 188.676 101.002 186.881 101.001 185.086C100.999 182.901 101 180.715 101.003 178.529C101.004 177.413 101.005 176.297 101.003 175.181C101.001 173.973 101.003 172.766 101.006 171.558C101.005 171.202 101.004 170.846 101.002 170.479C101.004 170.158 101.006 169.836 101.007 169.505C101.007 169.226 101.007 168.947 101.007 168.66C101.177 167.138 102.25 167.332 103.515 167.328Z" fill="#282828"/>
<path d="M302.964 167.293C303.346 167.289 303.346 167.289 303.737 167.284C304.014 167.286 304.292 167.287 304.578 167.288C305.019 167.285 305.019 167.285 305.469 167.282C306.442 167.277 307.415 167.278 308.388 167.28C309.064 167.278 309.74 167.277 310.416 167.275C311.834 167.272 313.251 167.273 314.668 167.276C316.485 167.279 318.301 167.273 320.118 167.265C321.514 167.259 322.91 167.26 324.306 167.261C324.976 167.261 325.646 167.259 326.316 167.256C327.252 167.251 328.188 167.255 329.125 167.26C329.402 167.257 329.679 167.254 329.964 167.251C331.162 167.265 331.883 167.306 332.94 167.905C333.602 168.66 333.908 169.264 334.24 170.21C334.417 170.7 334.417 170.7 334.596 171.201C334.78 171.733 334.78 171.733 334.967 172.276C335.099 172.65 335.232 173.024 335.366 173.398C335.648 174.191 335.928 174.985 336.205 175.78C336.635 177.015 337.072 178.248 337.51 179.481C337.945 180.706 338.38 181.932 338.813 183.158C340.027 186.597 341.287 190.019 342.572 193.432C342.722 193.83 342.871 194.227 343.02 194.625C343.206 195.12 343.393 195.616 343.58 196.111C343.813 196.768 344.006 197.408 344.158 198.087C344.45 197.99 344.742 197.893 345.043 197.792C345.55 196.778 345.38 195.611 345.38 194.496C345.381 194.215 345.382 193.934 345.383 193.645C345.385 193.034 345.386 192.424 345.387 191.813C345.39 190.847 345.394 189.882 345.4 188.916C345.415 186.17 345.429 183.424 345.434 180.678C345.437 179 345.445 177.322 345.458 175.644C345.461 175.003 345.463 174.363 345.462 173.722C345.462 172.827 345.468 171.932 345.476 171.038C345.474 170.771 345.472 170.505 345.47 170.231C345.497 168.481 345.497 168.481 346.07 167.686C347.176 167.272 348.25 167.282 349.415 167.288C349.808 167.285 349.808 167.285 350.21 167.282C351.078 167.277 351.945 167.278 352.813 167.28C353.416 167.278 354.019 167.277 354.623 167.275C355.887 167.272 357.152 167.273 358.416 167.276C360.036 167.279 361.656 167.273 363.277 167.265C364.523 167.259 365.768 167.26 367.014 167.261C367.612 167.261 368.209 167.259 368.806 167.256C369.642 167.251 370.477 167.255 371.312 167.26C371.559 167.257 371.806 167.254 372.06 167.251C372.403 167.255 372.403 167.255 372.753 167.26C373.048 167.26 373.048 167.26 373.35 167.26C374.365 167.509 374.745 167.773 375.427 168.588C375.655 169.779 375.625 170.962 375.613 172.171C375.615 172.542 375.617 172.913 375.619 173.296C375.625 174.327 375.621 175.358 375.616 176.389C375.612 177.5 375.616 178.612 375.62 179.724C375.625 181.902 375.623 184.079 375.618 186.257C375.613 188.027 375.612 189.797 375.613 191.567C375.613 191.818 375.614 192.07 375.614 192.329C375.614 192.84 375.614 193.352 375.615 193.863C375.617 198.386 375.612 202.908 375.603 207.431C375.595 211.822 375.593 216.212 375.597 220.603C375.602 225.382 375.604 230.161 375.598 234.939C375.598 235.449 375.597 235.958 375.597 236.468C375.596 236.718 375.596 236.969 375.596 237.227C375.594 238.995 375.595 240.763 375.597 242.531C375.599 244.685 375.597 246.839 375.59 248.993C375.586 250.093 375.585 251.192 375.588 252.291C375.591 253.482 375.586 254.673 375.579 255.863C375.582 256.212 375.584 256.562 375.587 256.922C375.583 257.24 375.58 257.558 375.577 257.886C375.576 258.161 375.576 258.435 375.576 258.719C375.382 259.67 374.993 260.025 374.247 260.626C373.585 260.774 373.585 260.774 372.848 260.774C372.567 260.777 372.287 260.78 371.998 260.783C371.693 260.78 371.387 260.777 371.072 260.774C370.749 260.776 370.425 260.778 370.092 260.779C369.022 260.783 367.952 260.778 366.882 260.773C366.139 260.773 365.396 260.773 364.653 260.774C363.096 260.775 361.538 260.771 359.981 260.764C358.181 260.756 356.382 260.756 354.582 260.759C352.85 260.762 351.117 260.761 349.385 260.756C348.648 260.755 347.912 260.755 347.175 260.756C346.146 260.757 345.117 260.752 344.088 260.746C343.63 260.748 343.63 260.748 343.162 260.75C342.741 260.745 342.741 260.745 342.312 260.741C342.069 260.74 341.826 260.739 341.575 260.739C340.743 260.598 340.345 260.316 339.733 259.741C339.41 259.004 339.152 258.312 338.913 257.548C338.84 257.325 338.767 257.102 338.692 256.873C338.534 256.39 338.378 255.907 338.224 255.423C337.979 254.656 337.73 253.892 337.479 253.128C336.947 251.505 336.422 249.88 335.898 248.255C335.29 246.373 334.679 244.491 334.063 242.612C333.818 241.859 333.577 241.105 333.336 240.351C333.185 239.889 333.034 239.426 332.882 238.964C332.817 238.754 332.751 238.545 332.683 238.329C332.285 237.132 331.855 236.364 330.883 235.552C330.378 236.056 330.55 236.695 330.546 237.368C330.546 237.586 330.546 237.804 330.546 238.028C330.544 238.37 330.544 238.37 330.543 238.72C330.541 239.217 330.539 239.715 330.538 240.212C330.536 241 330.531 241.787 330.526 242.574C330.51 244.813 330.496 247.052 330.492 249.291C330.489 250.659 330.48 252.027 330.468 253.395C330.464 253.916 330.463 254.438 330.463 254.96C330.464 255.691 330.457 256.421 330.449 257.151C330.452 257.475 330.452 257.475 330.455 257.805C330.438 258.738 330.341 259.365 329.86 260.171C328.74 260.854 327.737 260.789 326.447 260.774C326.044 260.777 326.044 260.777 325.632 260.779C324.742 260.783 323.853 260.778 322.963 260.773C322.345 260.773 321.727 260.773 321.109 260.774C319.814 260.775 318.52 260.771 317.225 260.764C315.564 260.756 313.903 260.757 312.241 260.76C310.966 260.762 309.69 260.76 308.414 260.756C307.801 260.755 307.189 260.755 306.576 260.756C305.721 260.757 304.866 260.752 304.01 260.746C303.629 260.748 303.629 260.748 303.24 260.75C301.529 260.728 301.529 260.728 300.876 260.273C300.365 259.555 300.387 259.085 300.386 258.207C300.384 257.887 300.381 257.567 300.379 257.238C300.381 256.709 300.381 256.709 300.384 256.169C300.382 255.796 300.381 255.422 300.379 255.037C300.375 253.998 300.376 252.959 300.378 251.92C300.38 250.801 300.376 249.681 300.373 248.561C300.368 246.367 300.368 244.173 300.369 241.979C300.37 240.196 300.37 238.413 300.368 236.63C300.368 236.25 300.368 236.25 300.368 235.862C300.367 235.347 300.367 234.833 300.366 234.318C300.362 229.487 300.364 224.656 300.367 219.826C300.37 215.403 300.366 210.979 300.359 206.556C300.352 202.018 300.349 197.481 300.351 192.943C300.352 190.393 300.352 187.844 300.346 185.295C300.342 183.125 300.342 180.955 300.347 178.785C300.35 177.678 300.35 176.57 300.346 175.462C300.341 174.263 300.345 173.064 300.35 171.865C300.348 171.512 300.345 171.16 300.342 170.796C300.345 170.476 300.348 170.157 300.351 169.827C300.351 169.55 300.351 169.273 300.351 168.988C300.498 168.293 300.498 168.293 301.059 167.761C301.759 167.361 302.162 167.296 302.964 167.293Z" fill="#282828"/>
<path d="M462.253 135.728C462.643 135.723 462.643 135.723 463.041 135.719C463.326 135.72 463.611 135.722 463.904 135.723C464.354 135.72 464.354 135.72 464.814 135.717C465.809 135.711 466.804 135.713 467.799 135.714C468.49 135.713 469.18 135.711 469.87 135.71C471.318 135.707 472.766 135.708 474.214 135.711C476.072 135.714 477.929 135.708 479.786 135.699C481.212 135.694 482.638 135.694 484.065 135.696C484.749 135.696 485.434 135.694 486.119 135.69C487.076 135.686 488.033 135.689 488.99 135.694C489.274 135.691 489.558 135.688 489.851 135.686C490.992 135.698 491.73 135.708 492.72 136.304C493.279 137.275 493.29 138.125 493.267 139.214C493.267 139.433 493.268 139.652 493.268 139.877C493.267 140.599 493.258 141.32 493.248 142.042C493.246 142.543 493.245 143.044 493.243 143.545C493.239 144.862 493.227 146.179 493.214 147.496C493.202 148.841 493.197 150.185 493.191 151.53C493.178 154.167 493.158 156.805 493.133 159.442C494.257 158.693 494.292 158.229 494.673 156.949C494.732 156.754 494.792 156.559 494.852 156.357C495.048 155.711 495.238 155.062 495.429 154.414C495.564 153.964 495.699 153.513 495.835 153.063C496.193 151.875 496.546 150.685 496.899 149.496C497.463 147.597 498.032 145.7 498.601 143.803C498.799 143.142 498.995 142.481 499.191 141.819C499.313 141.41 499.436 141 499.558 140.591C499.663 140.235 499.769 139.88 499.877 139.514C500.837 136.606 500.837 136.606 501.983 135.842C502.584 135.769 502.584 135.769 503.286 135.769C503.552 135.768 503.819 135.767 504.093 135.766C504.53 135.768 504.53 135.768 504.976 135.771C505.438 135.77 505.438 135.77 505.908 135.769C506.927 135.768 507.945 135.771 508.964 135.774C509.67 135.775 510.375 135.775 511.081 135.775C512.561 135.775 514.04 135.778 515.52 135.781C517.421 135.786 519.322 135.788 521.223 135.787C522.68 135.787 524.137 135.789 525.594 135.791C526.295 135.792 526.997 135.793 527.698 135.793C528.676 135.794 529.653 135.796 530.631 135.799C530.923 135.799 531.216 135.799 531.518 135.799C531.782 135.8 532.047 135.801 532.32 135.803C532.551 135.803 532.783 135.804 533.021 135.804C533.548 135.842 533.548 135.842 533.843 136.137C534.08 137.897 533.348 139.111 532.552 140.617C532.418 140.878 532.284 141.139 532.146 141.407C531.732 142.209 531.313 143.008 530.893 143.807C530.66 144.255 530.428 144.702 530.196 145.15C529.133 147.188 528.05 149.214 526.96 151.237C524.504 155.797 522.11 160.386 519.748 164.996C519.585 165.314 519.585 165.314 519.419 165.638C519.259 165.95 519.259 165.95 519.096 166.268C518.269 167.882 517.432 169.49 516.585 171.094C516.475 171.304 516.364 171.515 516.25 171.731C515.65 172.867 515.045 173.999 514.436 175.13C514.299 175.386 514.163 175.642 514.022 175.906C513.76 176.395 513.497 176.883 513.232 177.37C513.115 177.589 512.999 177.808 512.878 178.034C512.775 178.225 512.672 178.416 512.565 178.614C512.148 179.576 511.91 180.323 512.206 181.352C512.317 181.585 512.427 181.818 512.541 182.058C512.734 182.471 512.734 182.471 512.931 182.894C513.078 183.198 513.226 183.502 513.377 183.816C513.531 184.142 513.685 184.468 513.844 184.803C514.406 185.99 514.979 187.171 515.553 188.352C515.67 188.592 515.786 188.832 515.906 189.079C517.363 192.079 518.828 195.075 520.296 198.069C521.486 200.496 522.662 202.93 523.823 205.371C524.981 207.804 526.157 210.228 527.334 212.652C528.795 215.661 530.254 218.671 531.704 221.686C531.845 221.978 531.985 222.27 532.13 222.57C532.388 223.107 532.644 223.645 532.898 224.183C533.134 224.681 533.375 225.177 533.621 225.67C533.732 225.901 533.843 226.131 533.958 226.369C534.106 226.669 534.106 226.669 534.258 226.975C534.48 227.753 534.314 228.282 534.138 229.061C529.845 229.096 525.553 229.121 521.26 229.137C519.267 229.145 517.274 229.155 515.281 229.172C513.359 229.189 511.436 229.197 509.514 229.201C508.78 229.204 508.045 229.209 507.31 229.217C506.284 229.228 505.258 229.229 504.232 229.229C503.926 229.234 503.62 229.239 503.305 229.245C501.267 229.23 501.267 229.23 500.503 228.465C500.141 227.367 499.807 226.271 499.526 225.149C499.464 224.907 499.401 224.666 499.337 224.417C499.202 223.895 499.068 223.373 498.936 222.85C498.726 222.024 498.513 221.199 498.299 220.374C497.77 218.326 497.245 216.277 496.721 214.228C496.276 212.493 495.83 210.759 495.381 209.026C495.171 208.211 494.964 207.396 494.757 206.58C494.629 206.084 494.5 205.587 494.372 205.091C494.315 204.863 494.258 204.635 494.199 204.399C494.058 203.863 493.893 203.334 493.723 202.806C493.529 202.709 493.334 202.612 493.133 202.511C493.137 202.822 493.14 203.133 493.143 203.453C493.173 206.383 493.195 209.313 493.21 212.243C493.217 213.749 493.228 215.255 493.244 216.762C493.261 218.215 493.269 219.669 493.273 221.123C493.276 221.677 493.281 222.232 493.289 222.786C493.3 223.563 493.301 224.34 493.301 225.117C493.306 225.346 493.311 225.575 493.317 225.811C493.306 226.906 493.163 227.54 492.567 228.466C491.285 229.306 490.255 229.268 488.752 229.252C488.315 229.256 488.315 229.256 487.869 229.26C486.907 229.266 485.946 229.262 484.984 229.257C484.315 229.258 483.646 229.259 482.977 229.261C481.575 229.263 480.174 229.26 478.772 229.253C476.976 229.245 475.179 229.25 473.383 229.259C472.002 229.264 470.62 229.262 469.239 229.258C468.577 229.257 467.914 229.259 467.252 229.262C466.326 229.266 465.401 229.26 464.475 229.252C464.201 229.255 463.927 229.258 463.645 229.261C463.392 229.257 463.139 229.253 462.878 229.248C462.66 229.248 462.441 229.247 462.216 229.247C461.122 228.933 460.75 228.523 460.094 227.586C459.873 226.38 459.897 225.188 459.91 223.965C459.908 223.594 459.907 223.222 459.905 222.839C459.9 221.808 459.904 220.777 459.909 219.746C459.914 218.634 459.91 217.522 459.907 216.41C459.903 214.232 459.906 212.054 459.913 209.876C459.92 207.341 459.919 204.806 459.919 202.271C459.918 197.749 459.924 193.227 459.934 188.704C459.944 184.314 459.948 179.923 459.946 175.532C459.944 170.753 459.945 165.974 459.95 161.194C459.951 160.942 459.951 160.689 459.951 160.429C459.952 159.922 459.953 159.415 459.953 158.907C459.955 157.139 459.955 155.371 459.955 153.602C459.955 151.449 459.957 149.295 459.964 147.141C459.968 146.042 459.97 144.943 459.968 143.843C459.966 142.653 459.972 141.463 459.977 140.273C459.976 139.923 459.974 139.573 459.973 139.213C459.975 138.895 459.978 138.578 459.981 138.251C459.981 137.976 459.982 137.701 459.982 137.418C460.202 136.059 460.969 135.732 462.253 135.728Z" fill="#282828"/>
<path d="M670.945 144.515C675.997 149.304 678.78 155.749 679.008 162.687C679.021 163.727 679.026 164.766 679.026 165.806C679.028 166.204 679.029 166.602 679.031 167.001C679.035 168.076 679.037 169.151 679.038 170.227C679.039 170.901 679.04 171.576 679.041 172.251C679.045 174.371 679.048 176.491 679.049 178.611C679.051 181.042 679.056 183.473 679.064 185.903C679.071 187.793 679.074 189.682 679.074 191.572C679.075 192.695 679.076 193.818 679.082 194.942C679.125 204.68 678.235 212.705 671.254 220.083C665.788 225.38 658.357 227.978 650.954 229.062C650.767 229.089 650.58 229.117 650.387 229.146C639.566 230.563 627.439 228.893 618.483 222.357C612.832 217.966 609.226 212.077 608.241 204.96C608.096 203.36 608.133 201.748 608.132 200.142C608.131 199.722 608.129 199.302 608.128 198.882C608.124 197.745 608.122 196.608 608.121 195.471C608.12 194.759 608.119 194.046 608.117 193.334C608.113 191.099 608.11 188.863 608.109 186.628C608.108 184.059 608.103 181.491 608.094 178.922C608.088 176.93 608.085 174.937 608.085 172.944C608.084 171.757 608.083 170.571 608.077 169.384C608.072 168.265 608.072 167.146 608.074 166.028C608.075 165.43 608.071 164.832 608.066 164.234C608.099 156.829 610.44 150.637 615.555 145.283C615.714 145.101 615.873 144.92 616.038 144.733C628.848 130.696 657.583 132.927 670.945 144.515ZM641.699 162.19C641.025 163.304 640.887 164.107 640.883 165.384C640.881 165.698 640.88 166.012 640.878 166.335C640.878 166.68 640.877 167.024 640.877 167.379C640.875 167.742 640.874 168.104 640.872 168.478C640.869 169.473 640.867 170.469 640.865 171.464C640.864 172.086 640.863 172.708 640.862 173.33C640.858 175.277 640.855 177.225 640.854 179.172C640.853 181.418 640.847 183.664 640.839 185.911C640.832 187.648 640.83 189.385 640.829 191.122C640.829 192.159 640.827 193.196 640.822 194.234C640.816 195.391 640.817 196.548 640.819 197.706C640.817 198.048 640.814 198.391 640.811 198.744C640.812 201.053 640.812 201.053 641.809 203.102C642.786 203.616 642.786 203.616 643.874 203.692C644.752 203.302 645.264 202.893 645.939 202.217C646.211 201.204 646.272 200.246 646.274 199.201C646.275 198.897 646.276 198.592 646.278 198.279C646.277 197.783 646.277 197.783 646.277 197.276C646.278 196.926 646.279 196.575 646.28 196.213C646.283 195.253 646.283 194.293 646.284 193.333C646.284 192.733 646.285 192.133 646.285 191.532C646.288 189.435 646.289 187.338 646.289 185.242C646.289 183.29 646.292 181.339 646.297 179.388C646.3 177.71 646.302 176.031 646.302 174.353C646.302 173.352 646.303 172.351 646.306 171.35C646.309 170.233 646.308 169.116 646.306 167.999C646.308 167.67 646.309 167.34 646.311 167.001C646.352 164.225 646.352 164.225 645.147 161.821C643.811 161.207 642.774 161.143 641.699 162.19Z" fill="#282828"/>
<path d="M241.305 167.226C241.643 167.224 241.98 167.222 242.328 167.221C243.445 167.217 244.561 167.224 245.678 167.232C246.453 167.232 247.229 167.232 248.004 167.232C249.629 167.232 251.254 167.238 252.879 167.247C254.757 167.258 256.635 167.261 258.513 167.259C260.321 167.257 262.129 167.26 263.937 167.266C264.706 167.268 265.475 167.269 266.244 167.268C267.317 167.269 268.391 167.275 269.464 167.283C269.943 167.282 269.943 167.282 270.431 167.281C270.869 167.286 270.869 167.286 271.317 167.291C271.697 167.292 271.697 167.292 272.085 167.294C272.933 167.434 273.331 167.703 273.95 168.292C274.241 169.067 274.459 169.787 274.655 170.586C274.751 170.954 274.751 170.954 274.849 171.328C275.07 172.177 275.284 173.028 275.499 173.879C275.662 174.51 275.825 175.141 275.989 175.771C276.317 177.039 276.644 178.307 276.969 179.575C277.758 182.65 278.56 185.721 279.363 188.792C279.65 189.892 279.938 190.992 280.225 192.092C280.335 192.511 280.335 192.511 280.447 192.939C281.291 196.169 282.133 199.399 282.974 202.629C283.289 203.839 283.605 205.05 283.92 206.26C283.998 206.56 284.076 206.86 284.157 207.169C285.159 211.015 286.162 214.86 287.166 218.706C287.317 219.285 287.468 219.864 287.619 220.442C287.693 220.728 287.767 221.013 287.844 221.306C288.363 223.293 288.88 225.28 289.398 227.268C289.687 228.376 289.976 229.485 290.265 230.594C290.371 231 290.371 231 290.478 231.414C291.437 235.09 292.402 238.765 293.373 242.438C293.753 243.874 294.131 245.311 294.509 246.747C294.858 248.072 295.209 249.396 295.561 250.719C295.723 251.328 295.884 251.937 296.044 252.546C296.236 253.277 296.43 254.007 296.626 254.736C297.492 258.055 297.492 258.055 297.255 259.446C296.408 260.392 295.728 260.702 294.493 260.778C293.971 260.786 293.449 260.787 292.928 260.783C292.642 260.786 292.357 260.788 292.062 260.791C291.12 260.798 290.177 260.796 289.235 260.793C288.579 260.795 287.923 260.796 287.267 260.799C285.894 260.802 284.52 260.8 283.146 260.796C281.385 260.791 279.625 260.798 277.864 260.808C276.51 260.815 275.156 260.814 273.802 260.812C273.153 260.812 272.504 260.814 271.854 260.818C270.947 260.823 270.04 260.819 269.132 260.812C268.864 260.816 268.596 260.819 268.319 260.823C267.047 260.803 266.451 260.749 265.394 259.988C264.755 259.079 264.532 258.465 264.34 257.377C264.275 257.027 264.21 256.677 264.143 256.315C264.08 255.94 264.017 255.564 263.951 255.177C263.881 254.785 263.811 254.393 263.739 254.001C263.554 252.973 263.376 251.943 263.2 250.913C263.054 250.073 262.904 249.234 262.753 248.395C262.442 246.66 262.134 244.924 261.835 243.186C261.782 242.879 261.728 242.572 261.674 242.255C261.56 241.451 261.56 241.451 261.56 240.271C260.45 239.918 259.39 239.938 258.231 239.937C258.025 239.937 257.82 239.936 257.608 239.936C257.174 239.936 256.74 239.936 256.307 239.938C255.643 239.939 254.98 239.938 254.316 239.936C253.894 239.936 253.472 239.936 253.05 239.937C252.667 239.937 252.284 239.938 251.889 239.938C250.935 239.932 250.935 239.932 250.055 240.271C249.155 242.567 248.96 245.296 248.555 247.72C248.5 248.047 248.446 248.374 248.389 248.71C248.046 250.766 248.046 250.766 247.712 252.822C247.55 253.833 247.38 254.842 247.209 255.851C247.161 256.16 247.114 256.47 247.065 256.788C247.014 257.077 246.964 257.366 246.913 257.663C246.871 257.916 246.83 258.168 246.788 258.428C246.388 259.489 245.959 259.953 245.04 260.626C244.067 260.835 243.117 260.819 242.125 260.803C241.833 260.804 241.54 260.805 241.239 260.806C240.275 260.808 239.31 260.8 238.345 260.791C237.675 260.789 237.005 260.789 236.334 260.789C234.93 260.787 233.526 260.78 232.122 260.77C230.32 260.756 228.519 260.752 226.717 260.751C225.333 260.749 223.949 260.745 222.565 260.739C221.901 260.737 221.236 260.735 220.572 260.733C219.645 260.731 218.717 260.724 217.79 260.716C217.514 260.716 217.238 260.716 216.954 260.716C216.576 260.711 216.576 260.711 216.19 260.707C215.971 260.705 215.751 260.704 215.526 260.703C214.951 260.626 214.951 260.626 214.066 260.036C213.719 258.961 213.783 258.184 214.058 257.102C214.129 256.815 214.201 256.528 214.274 256.233C214.355 255.92 214.436 255.608 214.52 255.287C214.603 254.954 214.687 254.622 214.773 254.279C215.004 253.364 215.238 252.449 215.473 251.534C215.722 250.562 215.967 249.589 216.213 248.616C216.633 246.955 217.055 245.295 217.479 243.636C218.087 241.256 218.691 238.876 219.295 236.496C220.212 232.876 221.132 229.257 222.054 225.639C222.977 222.017 223.897 218.394 224.814 214.77C225.034 213.898 225.255 213.026 225.476 212.154C225.527 211.951 225.579 211.747 225.632 211.538C226.182 209.363 226.734 207.189 227.287 205.014C228.151 201.609 229.014 198.204 229.875 194.798C230.077 194 230.279 193.202 230.481 192.404C231.265 189.304 231.265 189.304 232.048 186.204C232.109 185.965 232.169 185.726 232.232 185.479C232.351 185.005 232.471 184.531 232.591 184.056C232.878 182.92 233.166 181.784 233.456 180.649C233.567 180.214 233.678 179.78 233.788 179.346C233.842 179.136 233.896 178.925 233.951 178.709C234.262 177.487 234.564 176.262 234.858 175.036C234.995 174.469 235.134 173.902 235.273 173.335C235.44 172.655 235.603 171.974 235.762 171.291C235.836 170.993 235.91 170.695 235.986 170.387C236.048 170.13 236.109 169.873 236.172 169.609C237.242 167.13 238.904 167.196 241.305 167.226ZM255.365 211.656C254.496 214.187 254.009 216.789 253.515 219.411C253.373 220.16 253.227 220.908 253.08 221.656C252.989 222.135 252.898 222.614 252.807 223.093C252.763 223.315 252.719 223.537 252.674 223.766C252.445 225.008 252.455 225.721 252.71 226.996C254.657 226.996 256.604 226.996 258.61 226.996C258.898 225.569 258.898 225.569 258.732 224.24C258.686 223.997 258.641 223.754 258.594 223.503C258.543 223.244 258.491 222.985 258.439 222.719C258.387 222.449 258.336 222.18 258.283 221.902C258.174 221.334 258.063 220.766 257.952 220.198C257.781 219.33 257.616 218.462 257.45 217.593C257.344 217.04 257.237 216.487 257.13 215.934C257.08 215.675 257.031 215.416 256.98 215.15C256.738 213.927 256.479 212.796 255.955 211.656C255.761 211.656 255.566 211.656 255.365 211.656Z" fill="#282828"/>
<path d="M384.068 167.331C384.326 167.329 384.584 167.327 384.85 167.324C385.132 167.325 385.415 167.326 385.705 167.327C386.152 167.324 386.152 167.324 386.608 167.322C387.595 167.318 388.582 167.318 389.569 167.319C390.254 167.318 390.938 167.316 391.623 167.315C393.058 167.313 394.493 167.313 395.929 167.314C397.771 167.316 399.613 167.311 401.455 167.304C402.869 167.3 404.282 167.3 405.696 167.301C406.375 167.301 407.055 167.299 407.734 167.296C408.683 167.292 409.631 167.294 410.58 167.298C410.862 167.296 411.144 167.293 411.435 167.291C411.693 167.293 411.951 167.295 412.217 167.297C412.441 167.297 412.666 167.297 412.897 167.297C413.655 167.44 413.883 167.7 414.367 168.293C414.455 169.16 414.487 169.965 414.481 170.833C414.483 171.095 414.484 171.358 414.486 171.628C414.49 172.511 414.488 173.394 414.486 174.278C414.487 174.91 414.489 175.541 414.492 176.173C414.496 177.535 414.498 178.898 414.498 180.26C414.497 182.413 414.503 184.566 414.509 186.718C414.522 190.9 414.527 195.081 414.532 199.262C414.538 204.583 414.548 209.904 414.563 215.226C414.569 217.367 414.572 219.508 414.573 221.649C414.573 222.98 414.577 224.311 414.58 225.642C414.582 226.26 414.582 226.879 414.581 227.497C414.58 228.34 414.583 229.182 414.586 230.024C414.585 230.271 414.584 230.517 414.583 230.77C414.579 232.373 414.579 232.373 415.252 233.782C416.176 234.244 417.197 234.236 418.202 234.077C418.867 233.813 418.867 233.813 419.382 233.192C419.499 232.306 419.539 231.527 419.527 230.641C419.529 230.377 419.53 230.113 419.532 229.842C419.535 228.954 419.53 228.067 419.525 227.18C419.525 226.545 419.526 225.91 419.528 225.276C419.531 223.907 419.53 222.538 419.526 221.17C419.52 219.007 419.523 216.844 419.527 214.682C419.535 209.7 419.532 204.718 419.529 199.736C419.526 195.172 419.526 190.608 419.535 186.043C419.539 183.892 419.537 181.741 419.531 179.59C419.528 178.253 419.531 176.916 419.534 175.579C419.535 174.958 419.533 174.336 419.53 173.715C419.525 172.869 419.528 172.023 419.532 171.176C419.529 170.929 419.526 170.682 419.523 170.427C419.535 169.376 419.586 168.718 420.195 167.845C420.93 167.36 421.286 167.26 422.158 167.26C422.546 167.255 422.546 167.255 422.941 167.251C423.363 167.255 423.363 167.255 423.794 167.26C424.091 167.258 424.389 167.256 424.696 167.255C425.682 167.251 426.667 167.256 427.653 167.261C428.337 167.261 429.021 167.261 429.705 167.26C431.138 167.26 432.572 167.263 434.005 167.27C435.845 167.278 437.685 167.278 439.525 167.274C440.937 167.272 442.35 167.274 443.762 167.278C444.441 167.279 445.119 167.279 445.798 167.278C446.745 167.277 447.692 167.282 448.639 167.288C449.062 167.286 449.062 167.286 449.493 167.284C449.751 167.287 450.008 167.29 450.274 167.293C450.498 167.294 450.722 167.295 450.952 167.295C451.711 167.441 451.939 167.698 452.422 168.293C452.533 168.84 452.533 168.84 452.533 169.468C452.536 169.708 452.538 169.947 452.54 170.194C452.537 170.589 452.537 170.589 452.534 170.992C452.536 171.272 452.537 171.551 452.538 171.84C452.542 172.781 452.539 173.723 452.536 174.664C452.538 175.338 452.539 176.011 452.541 176.685C452.545 178.518 452.544 180.352 452.541 182.185C452.539 184.105 452.541 186.024 452.542 187.943C452.544 191.378 452.541 194.812 452.536 198.246C452.533 201.353 452.533 204.459 452.537 207.566C452.542 211.177 452.544 214.787 452.541 218.398C452.54 220.308 452.54 222.218 452.543 224.128C452.545 225.928 452.543 227.727 452.538 229.526C452.537 230.184 452.537 230.842 452.539 231.5C452.56 239.243 450.916 245.162 445.591 250.972C444.673 251.852 443.737 252.537 442.687 253.252C442.317 252.914 442.317 252.914 441.939 252.571C435.123 246.477 426.451 242.887 417.205 243.249C409.291 243.751 402.05 246.558 396.078 251.777C395.867 251.952 395.656 252.126 395.439 252.307C394.635 252.975 394.006 253.556 393.423 254.432C392.088 254.009 391.208 253.261 390.215 252.311C390.059 252.164 389.903 252.017 389.742 251.865C389.433 251.573 389.126 251.28 388.819 250.987C388.486 250.671 388.145 250.363 387.802 250.058C384.554 247.088 382.206 242.199 381.863 237.795C381.842 237.033 381.838 236.273 381.841 235.51C381.84 235.22 381.839 234.93 381.837 234.632C381.834 233.667 381.836 232.702 381.837 231.738C381.835 231.044 381.834 230.35 381.832 229.656C381.828 227.775 381.828 225.895 381.829 224.015C381.829 222.248 381.827 220.48 381.826 218.712C381.823 215.001 381.823 211.289 381.825 207.577C381.826 204.18 381.823 200.782 381.818 197.384C381.812 193.894 381.809 190.403 381.811 186.913C381.811 184.954 381.81 182.995 381.806 181.036C381.802 179.196 381.803 177.357 381.807 175.518C381.808 174.841 381.807 174.164 381.804 173.488C381.801 172.567 381.804 171.647 381.807 170.727C381.805 170.457 381.803 170.186 381.801 169.907C381.807 169.164 381.807 169.164 381.918 167.998C382.834 167.387 383.03 167.334 384.068 167.331Z" fill="#282828"/>
<path d="M541.97 135.697C542.223 135.695 542.477 135.694 542.738 135.692C543.588 135.689 544.437 135.694 545.286 135.699C545.896 135.699 546.505 135.698 547.114 135.696C548.768 135.693 550.422 135.698 552.076 135.704C553.806 135.709 555.535 135.708 557.265 135.707C560.169 135.708 563.073 135.713 565.977 135.721C569.337 135.731 572.697 135.734 576.057 135.733C579.287 135.733 582.517 135.736 585.747 135.741C587.122 135.743 588.498 135.744 589.874 135.744C591.493 135.745 593.112 135.748 594.731 135.754C595.326 135.756 595.921 135.757 596.517 135.756C597.327 135.756 598.137 135.759 598.947 135.764C599.303 135.762 599.303 135.762 599.667 135.761C600.793 135.771 601.32 135.792 602.281 136.433C602.368 137.206 602.398 137.91 602.39 138.684C602.391 138.916 602.392 139.148 602.394 139.387C602.396 140.157 602.392 140.927 602.388 141.696C602.388 142.23 602.388 142.763 602.388 143.297C602.388 144.416 602.385 145.535 602.38 146.654C602.373 148.09 602.373 149.527 602.375 150.963C602.376 152.065 602.374 153.167 602.371 154.269C602.37 154.798 602.369 155.328 602.37 155.858C602.37 156.597 602.366 157.337 602.362 158.076C602.362 158.297 602.363 158.517 602.364 158.744C602.348 160.26 602.348 160.26 601.691 160.917C601.154 160.994 601.154 160.994 600.492 160.998C600.242 161 599.991 161.003 599.733 161.006C599.457 161.006 599.182 161.007 598.898 161.007C598.463 161.01 598.463 161.01 598.02 161.014C597.059 161.022 596.097 161.025 595.136 161.029C594.47 161.034 593.805 161.039 593.139 161.044C591.383 161.058 589.628 161.068 587.873 161.077C585.063 161.093 582.253 161.112 579.443 161.133C578.458 161.14 577.474 161.144 576.49 161.149C575.89 161.153 575.289 161.157 574.689 161.161C574.275 161.162 574.275 161.162 573.854 161.163C573.478 161.167 573.478 161.167 573.094 161.17C572.766 161.171 572.766 161.171 572.432 161.173C571.866 161.18 571.866 161.18 571.306 161.507C571.306 163.941 571.306 166.375 571.306 168.882C572.02 169.239 572.482 169.218 573.28 169.224C573.568 169.227 573.855 169.23 574.151 169.233C574.463 169.235 574.774 169.237 575.095 169.239C575.749 169.248 576.403 169.256 577.057 169.265C578.092 169.277 579.128 169.288 580.163 169.296C581.159 169.304 582.155 169.317 583.152 169.332C583.619 169.333 583.619 169.333 584.095 169.335C584.526 169.342 584.526 169.342 584.966 169.349C585.347 169.353 585.347 169.353 585.735 169.357C585.938 169.395 586.141 169.433 586.351 169.472C587.058 170.533 587.026 171.299 587.022 172.524C587.023 172.744 587.025 172.964 587.026 173.19C587.03 173.917 587.03 174.644 587.029 175.371C587.031 175.876 587.032 176.381 587.033 176.887C587.035 177.946 587.035 179.005 587.034 180.064C587.032 181.421 587.037 182.779 587.044 184.136C587.048 185.179 587.049 186.223 587.048 187.266C587.048 187.767 587.049 188.267 587.052 188.768C587.056 189.467 587.054 190.167 587.051 190.867C587.053 191.074 587.055 191.28 587.057 191.493C587.048 192.367 586.975 193.004 586.584 193.79C585.888 194.399 585.497 194.402 584.579 194.408C584.279 194.413 583.978 194.418 583.669 194.423C583.346 194.422 583.022 194.422 582.689 194.421C582.357 194.426 582.025 194.43 581.683 194.434C580.621 194.446 579.559 194.451 578.496 194.455C577.432 194.463 576.368 194.473 575.304 194.485C574.641 194.492 573.978 194.496 573.315 194.499C572.868 194.502 572.868 194.502 572.411 194.505C572.147 194.506 571.884 194.507 571.612 194.508C571.012 194.48 571.012 194.48 570.716 194.842C570.686 195.407 570.677 195.973 570.677 196.538C570.676 196.882 570.676 197.226 570.676 197.58C570.677 197.942 570.678 198.304 570.679 198.677C570.678 199.039 570.677 199.401 570.676 199.774C570.676 200.118 570.676 200.461 570.677 200.816C570.677 201.292 570.677 201.292 570.678 201.779C570.633 202.495 570.633 202.495 571.011 202.807C571.408 202.837 571.807 202.848 572.205 202.85C572.462 202.852 572.72 202.854 572.985 202.856C573.269 202.856 573.554 202.857 573.847 202.858C574.144 202.86 574.442 202.862 574.749 202.864C575.398 202.868 576.048 202.872 576.697 202.875C577.723 202.879 578.749 202.886 579.776 202.894C582.694 202.915 585.613 202.932 588.532 202.947C590.315 202.957 592.098 202.969 593.881 202.983C594.562 202.988 595.243 202.991 595.924 202.994C596.876 202.997 597.827 203.005 598.778 203.012C599.062 203.013 599.345 203.013 599.637 203.013C600.025 203.017 600.025 203.017 600.421 203.022C600.646 203.023 600.871 203.024 601.103 203.025C601.691 203.102 601.691 203.102 602.576 203.692C602.665 204.491 602.696 205.224 602.69 206.024C602.692 206.385 602.692 206.385 602.695 206.754C602.699 207.552 602.696 208.351 602.693 209.149C602.694 209.703 602.694 210.256 602.696 210.809C602.697 211.97 602.695 213.13 602.691 214.291C602.686 215.781 602.689 217.271 602.694 218.761C602.697 219.904 602.696 221.047 602.694 222.19C602.693 222.739 602.694 223.289 602.696 223.838C602.698 224.605 602.695 225.372 602.69 226.139C602.692 226.368 602.694 226.597 602.695 226.832C602.688 227.464 602.688 227.464 602.576 228.472C601.445 229.225 600.528 229.145 599.218 229.14C598.835 229.142 598.835 229.142 598.444 229.144C597.585 229.148 596.727 229.148 595.868 229.147C595.254 229.149 594.639 229.151 594.025 229.153C592.354 229.158 590.682 229.16 589.011 229.16C587.617 229.161 586.224 229.163 584.83 229.165C581.543 229.17 578.256 229.171 574.969 229.171C571.574 229.17 568.18 229.177 564.786 229.186C561.874 229.194 558.963 229.197 556.051 229.197C554.311 229.196 552.571 229.198 550.831 229.204C549.195 229.21 547.559 229.21 545.923 229.206C545.322 229.205 544.72 229.207 544.119 229.21C543.3 229.215 542.481 229.212 541.661 229.207C541.422 229.21 541.183 229.213 540.936 229.217C539.938 229.204 539.305 229.18 538.501 228.56C537.861 227.74 537.823 227.351 537.822 226.321C537.819 226.003 537.815 225.684 537.812 225.357C537.816 224.833 537.816 224.833 537.819 224.298C537.816 223.741 537.816 223.741 537.813 223.173C537.808 222.142 537.81 221.111 537.813 220.08C537.815 218.969 537.81 217.857 537.806 216.746C537.8 214.568 537.8 212.39 537.802 210.212C537.804 208.442 537.804 206.672 537.802 204.903C537.802 204.651 537.801 204.399 537.801 204.14C537.801 203.629 537.8 203.117 537.799 202.606C537.795 197.81 537.797 193.014 537.802 188.218C537.806 183.827 537.802 179.437 537.794 175.046C537.785 170.541 537.782 166.035 537.785 161.53C537.785 161.02 537.785 160.511 537.785 160.002C537.786 159.751 537.786 159.5 537.786 159.242C537.786 157.474 537.784 155.706 537.779 153.938C537.774 151.784 537.774 149.63 537.781 147.476C537.784 146.377 537.785 145.277 537.78 144.178C537.774 142.987 537.779 141.797 537.786 140.606C537.782 140.257 537.779 139.907 537.775 139.548C537.802 137.253 537.802 137.253 538.563 136.218C539.712 135.73 540.742 135.681 541.97 135.697Z" fill="#282828"/>
</svg>
