<svg width="760" height="400" viewBox="0 0 760 400" fill="none" xmlns="http://www.w3.org/2000/svg">
<mask id="mask0_1046_317" style="mask-type:luminance" maskUnits="userSpaceOnUse" x="57" y="145" width="648" height="134">
<path d="M705 145H57.7012V278.201H705V145Z" fill="white"/>
</mask>
<g mask="url(#mask0_1046_317)">
<path d="M198.043 213.307H234.904V223.713H197.152C189.627 223.713 186.746 219.84 186.746 213.528V149.543H198.043V213.307Z" fill="#282828"/>
<path d="M262.57 186.517C262.57 165.155 279.396 148.216 300.322 148.216C313.047 148.216 324.672 154.749 330.321 165.597L321.128 170.905C316.813 163.487 309.395 158.951 299.873 158.951C285.487 158.951 274.196 170.905 274.196 186.511C274.196 202.344 285.373 214.406 299.873 214.406C309.395 214.406 316.932 209.869 321.128 202.452L330.321 207.765C324.672 218.614 313.047 225.033 300.322 225.033C279.396 225.039 262.57 208.107 262.57 186.517Z" fill="#282828"/>
<path d="M378.137 158.515C380.349 151.565 385.77 148.216 391.974 148.216C398.293 148.216 403.706 151.539 405.917 158.515L426.174 223.713H414.683L409.263 205.56L374.7 205.655L369.279 223.7H357.875L378.137 158.515ZM377.803 195.375H406.234L396.29 161.832C395.513 159.507 394.186 158.401 392.082 158.401C389.87 158.401 388.537 159.507 387.874 161.832L377.803 195.375Z" fill="#282828"/>
<path d="M473.767 208.77H508.517V223.713H471.873C461.578 223.713 457.592 218.399 457.592 209.876V149.221H473.754L473.767 208.77Z" fill="#282828"/>
<path d="M534.652 149.214V223.712H518.49V149.214H534.652Z" fill="#282828"/>
<path d="M552.58 223.712V159.399C552.58 151.981 558 147.666 564.092 147.666C568.964 147.666 572.837 149.435 575.27 153.529L604.718 204.006V149.214H619.991V213.527C619.991 220.945 614.567 225.153 608.697 225.153C603.942 225.153 599.853 223.491 597.407 219.397L567.965 168.586V223.712H552.58Z" fill="#282828"/>
<path d="M638.141 223.712V149.214H654.303V179.213H663.825C664.874 176.684 666.25 174.302 667.916 172.13L685.962 149.214H704.335L683.08 176.553C680.092 180.54 678.546 183.307 678.546 186.074C678.546 188.842 680.092 191.502 683.08 195.482L705 223.712H685.186L667.916 201.017C666.264 198.902 664.922 196.562 663.93 194.067H654.303V223.763L638.141 223.712Z" fill="#282828"/>
<path d="M150.909 192.652L152.962 200.342C154.664 206.741 153.883 213.548 150.777 219.396C147.67 225.244 142.468 229.702 136.213 231.876L133.686 222.481C137.463 220.997 140.563 218.176 142.396 214.556C144.23 210.935 144.669 206.767 143.63 202.844L141.545 195.154L150.909 192.652Z" fill="#282828"/>
<path d="M143.1 163.512C141.1 157.033 136.669 151.579 130.736 148.294C124.803 145.009 117.829 144.148 111.275 145.891L95.0815 150.219C88.3689 152.021 82.6454 156.413 79.1666 162.43C75.6877 168.447 74.7377 175.599 76.5249 182.316L80.2148 196.133L77.1567 196.955C70.4462 198.755 64.7234 203.143 61.2435 209.156C57.7636 215.17 56.8107 222.318 58.5937 229.033L66.5484 258.729C68.351 265.443 72.7433 271.168 78.7616 274.648C84.78 278.128 91.9329 279.079 98.6515 277.291L114.839 272.963C121.552 271.163 127.277 266.771 130.756 260.754C134.235 254.736 135.184 247.584 133.395 240.867L125.46 211.171C123.902 205.355 120.382 200.257 115.496 196.74L128.132 193.366C133.814 191.839 138.659 188.122 141.607 183.03C144.554 177.938 145.364 171.885 143.859 166.198L143.397 164.473C143.29 164.132 143.195 163.822 143.1 163.512ZM124.044 243.388C125.164 247.62 124.562 252.124 122.369 255.913C120.176 259.702 116.571 262.468 112.343 263.606L96.1557 267.928C91.923 269.049 87.4187 268.447 83.6291 266.254C79.8395 264.061 77.0736 260.455 75.9373 256.227L68.0016 226.531C66.8711 222.301 67.4631 217.795 69.6481 214.001C71.833 210.206 75.4328 207.433 79.6588 206.287L82.7168 205.472L86.1349 218.203C87.9361 224.915 92.3264 230.639 98.3425 234.118C104.359 237.597 111.509 238.547 118.225 236.76L122.016 235.755L124.044 243.388ZM134.47 168.675C135.323 171.881 134.872 175.295 133.214 178.169C131.556 181.043 128.827 183.143 125.624 184.009L94.4434 192.33L96.9706 201.738C101.078 200.94 105.335 201.729 108.884 203.946C112.432 206.164 115.007 209.644 116.09 213.686L119.489 226.392L115.698 227.396C111.466 228.521 106.961 227.922 103.171 225.729C99.3802 223.537 96.6142 219.931 95.4798 215.701L85.8885 179.814C84.767 175.582 85.368 171.078 87.56 167.289C89.7519 163.499 93.3563 160.733 97.5835 159.595L113.777 155.267C118.009 154.146 122.513 154.747 126.302 156.939C130.091 159.131 132.858 162.735 133.996 166.962L134.47 168.675Z" fill="#282828"/>
<path d="M226.739 245.642L219.033 266.482H215.777L208.07 245.642H211.544L217.296 262.249H217.513L223.266 245.642H226.739ZM238.957 266.916C236.949 266.916 235.217 266.473 233.761 265.586C232.313 264.691 231.196 263.443 230.409 261.842C229.631 260.232 229.242 258.359 229.242 256.225C229.242 254.09 229.631 252.209 230.409 250.581C231.196 248.944 232.291 247.668 233.693 246.755C235.104 245.832 236.75 245.371 238.631 245.371C239.717 245.371 240.789 245.551 241.847 245.913C242.905 246.275 243.868 246.863 244.737 247.677C245.605 248.482 246.297 249.55 246.812 250.879C247.328 252.209 247.586 253.846 247.586 255.791V257.147H231.522V254.38H244.33C244.33 253.204 244.095 252.155 243.624 251.232C243.163 250.309 242.503 249.581 241.643 249.048C240.793 248.514 239.789 248.247 238.631 248.247C237.356 248.247 236.252 248.564 235.321 249.197C234.398 249.821 233.688 250.635 233.191 251.639C232.693 252.643 232.445 253.719 232.445 254.868V256.713C232.445 258.287 232.716 259.621 233.258 260.716C233.81 261.801 234.574 262.629 235.552 263.199C236.528 263.759 237.663 264.04 238.957 264.04C239.798 264.04 240.558 263.922 241.236 263.687C241.924 263.443 242.516 263.081 243.014 262.602C243.511 262.113 243.896 261.507 244.167 260.783L247.26 261.652C246.935 262.701 246.387 263.624 245.619 264.42C244.85 265.207 243.9 265.822 242.769 266.265C241.639 266.699 240.368 266.916 238.957 266.916ZM255.659 253.946V266.482H252.457V245.642H255.55V248.898H255.822C256.31 247.84 257.052 246.99 258.047 246.348C259.042 245.696 260.326 245.371 261.9 245.371C263.311 245.371 264.545 245.66 265.604 246.239C266.662 246.809 267.485 247.677 268.073 248.844C268.661 250.002 268.955 251.467 268.955 253.24V266.482H265.753V253.457C265.753 251.82 265.328 250.545 264.478 249.631C263.627 248.708 262.46 248.247 260.977 248.247C259.955 248.247 259.042 248.469 258.237 248.912C257.44 249.355 256.812 250.002 256.351 250.852C255.889 251.702 255.659 252.733 255.659 253.946ZM282.675 266.916C280.938 266.916 279.405 266.478 278.076 265.6C276.746 264.714 275.706 263.465 274.955 261.856C274.204 260.236 273.829 258.323 273.829 256.116C273.829 253.928 274.204 252.028 274.955 250.418C275.706 248.808 276.751 247.564 278.089 246.687C279.428 245.809 280.975 245.371 282.729 245.371C284.086 245.371 285.158 245.597 285.945 246.049C286.741 246.492 287.347 246.999 287.763 247.569C288.188 248.129 288.518 248.591 288.753 248.953H289.025V238.696H292.227V266.482H289.134V263.28H288.753C288.518 263.66 288.184 264.139 287.749 264.718C287.315 265.288 286.696 265.799 285.891 266.251C285.086 266.695 284.014 266.916 282.675 266.916ZM283.109 264.04C284.394 264.04 285.479 263.705 286.366 263.036C287.252 262.357 287.926 261.421 288.387 260.227C288.848 259.024 289.079 257.636 289.079 256.062C289.079 254.506 288.853 253.145 288.401 251.978C287.949 250.802 287.279 249.889 286.393 249.238C285.506 248.577 284.412 248.247 283.109 248.247C281.753 248.247 280.622 248.595 279.717 249.292C278.822 249.979 278.148 250.916 277.696 252.1C277.253 253.276 277.031 254.597 277.031 256.062C277.031 257.546 277.257 258.893 277.709 260.105C278.171 261.308 278.849 262.267 279.745 262.982C280.649 263.687 281.771 264.04 283.109 264.04ZM307.273 266.916C305.265 266.916 303.533 266.473 302.077 265.586C300.63 264.691 299.512 263.443 298.726 261.842C297.948 260.232 297.559 258.359 297.559 256.225C297.559 254.09 297.948 252.209 298.726 250.581C299.512 248.944 300.607 247.668 302.009 246.755C303.42 245.832 305.066 245.371 306.948 245.371C308.033 245.371 309.105 245.551 310.163 245.913C311.221 246.275 312.185 246.863 313.053 247.677C313.921 248.482 314.613 249.55 315.129 250.879C315.645 252.209 315.902 253.846 315.902 255.791V257.147H299.838V254.38H312.646C312.646 253.204 312.411 252.155 311.941 251.232C311.479 250.309 310.819 249.581 309.96 249.048C309.11 248.514 308.106 248.247 306.948 248.247C305.672 248.247 304.569 248.564 303.637 249.197C302.715 249.821 302.005 250.635 301.507 251.639C301.009 252.643 300.761 253.719 300.761 254.868V256.713C300.761 258.287 301.032 259.621 301.575 260.716C302.127 261.801 302.891 262.629 303.868 263.199C304.845 263.759 305.98 264.04 307.273 264.04C308.114 264.04 308.874 263.922 309.553 263.687C310.24 263.443 310.833 263.081 311.33 262.602C311.828 262.113 312.212 261.507 312.483 260.783L315.577 261.652C315.251 262.701 314.704 263.624 313.935 264.42C313.166 265.207 312.217 265.822 311.086 266.265C309.955 266.699 308.684 266.916 307.273 266.916ZM320.176 266.482V264.04L332.007 248.844V248.627H320.556V245.642H336.132V248.193L324.626 263.28V263.497H336.512V266.482H320.176ZM369.23 245.642L361.524 266.482H358.267L350.561 245.642H354.034L359.787 262.249H360.004L365.757 245.642H369.23ZM381.176 266.916C379.295 266.916 377.644 266.468 376.224 265.573C374.813 264.677 373.71 263.425 372.913 261.815C372.127 260.205 371.733 258.323 371.733 256.171C371.733 254 372.127 252.105 372.913 250.486C373.71 248.867 374.813 247.61 376.224 246.714C377.644 245.819 379.295 245.371 381.176 245.371C383.058 245.371 384.704 245.819 386.115 246.714C387.535 247.61 388.638 248.867 389.425 250.486C390.222 252.105 390.619 254 390.619 256.171C390.619 258.323 390.222 260.205 389.425 261.815C388.638 263.425 387.535 264.677 386.115 265.573C384.704 266.468 383.058 266.916 381.176 266.916ZM381.176 264.04C382.606 264.04 383.781 263.673 384.704 262.941C385.626 262.208 386.309 261.245 386.753 260.051C387.196 258.857 387.417 257.564 387.417 256.171C387.417 254.778 387.196 253.48 386.753 252.277C386.309 251.074 385.626 250.101 384.704 249.36C383.781 248.618 382.606 248.247 381.176 248.247C379.747 248.247 378.571 248.618 377.649 249.36C376.726 250.101 376.043 251.074 375.6 252.277C375.157 253.48 374.935 254.778 374.935 256.171C374.935 257.564 375.157 258.857 375.6 260.051C376.043 261.245 376.726 262.208 377.649 262.941C378.571 263.673 379.747 264.04 381.176 264.04ZM410.268 250.309L407.393 251.123C407.212 250.644 406.943 250.178 406.592 249.726C406.248 249.265 405.778 248.885 405.182 248.586C404.585 248.288 403.819 248.139 402.889 248.139C401.611 248.139 400.548 248.433 399.7 249.02C398.859 249.599 398.436 250.336 398.436 251.232C398.436 252.028 398.726 252.656 399.305 253.118C399.884 253.579 400.79 253.964 402.02 254.271L405.113 255.031C406.977 255.483 408.364 256.175 409.277 257.107C410.193 258.029 410.65 259.219 410.65 260.675C410.65 261.869 410.305 262.936 409.617 263.877C408.939 264.818 407.989 265.559 406.769 266.102C405.546 266.645 404.125 266.916 402.507 266.916C400.381 266.916 398.623 266.455 397.23 265.532C395.837 264.61 394.955 263.262 394.585 261.489L397.624 260.729C397.913 261.851 398.46 262.692 399.264 263.253C400.078 263.814 401.141 264.094 402.453 264.094C403.945 264.094 405.131 263.777 406.009 263.144C406.895 262.502 407.338 261.733 407.338 260.838C407.338 260.114 407.086 259.508 406.578 259.02C406.071 258.522 405.294 258.151 404.245 257.907L400.77 257.093C398.862 256.641 397.461 255.94 396.565 254.99C395.679 254.031 395.236 252.833 395.236 251.395C395.236 250.219 395.566 249.179 396.226 248.274C396.896 247.37 397.804 246.66 398.954 246.144C400.112 245.628 401.424 245.371 402.889 245.371C404.95 245.371 406.568 245.823 407.744 246.728C408.929 247.632 409.771 248.826 410.268 250.309ZM434.951 266.916C432.944 266.916 431.21 266.473 429.755 265.586C428.307 264.691 427.19 263.443 426.403 261.842C425.626 260.232 425.238 258.359 425.238 256.225C425.238 254.09 425.626 252.209 426.403 250.581C427.19 248.944 428.287 247.668 429.687 246.755C431.097 245.832 432.746 245.371 434.627 245.371C435.71 245.371 436.783 245.551 437.843 245.913C438.899 246.275 439.863 246.863 440.732 247.677C441.601 248.482 442.292 249.55 442.807 250.879C443.325 252.209 443.58 253.846 443.58 255.791V257.147H427.517V254.38H440.323C440.323 253.204 440.088 252.155 439.618 251.232C439.158 250.309 438.497 249.581 437.639 249.048C436.787 248.514 435.785 248.247 434.627 248.247C433.349 248.247 432.245 248.564 431.315 249.197C430.392 249.821 429.684 250.635 429.186 251.639C428.689 252.643 428.44 253.719 428.44 254.868V256.713C428.44 258.287 428.709 259.621 429.254 260.716C429.806 261.801 430.569 262.629 431.547 263.199C432.521 263.759 433.659 264.04 434.951 264.04C435.792 264.04 436.552 263.922 437.23 263.687C437.918 263.443 438.511 263.081 439.008 262.602C439.505 262.113 439.89 261.507 440.163 260.783L443.256 261.652C442.929 262.701 442.381 263.624 441.614 264.42C440.844 265.207 439.894 265.822 438.763 266.265C437.635 266.699 436.361 266.916 434.951 266.916ZM450.281 245.642L455.272 254.163L460.267 245.642H463.956L457.228 256.062L463.956 266.482H460.267L455.272 258.396L450.281 266.482H446.588L453.211 256.062L446.588 245.642H450.281ZM468.525 274.297V245.642H471.618V248.953H471.996C472.232 248.591 472.559 248.129 472.974 247.569C473.4 246.999 474.007 246.492 474.793 246.049C475.587 245.597 476.664 245.371 478.023 245.371C479.778 245.371 481.324 245.809 482.663 246.687C484.002 247.564 485.045 248.808 485.798 250.418C486.547 252.028 486.922 253.928 486.922 256.116C486.922 258.323 486.547 260.236 485.798 261.856C485.045 263.465 484.006 264.714 482.677 265.6C481.345 266.478 479.812 266.916 478.078 266.916C476.739 266.916 475.666 266.695 474.862 266.251C474.054 265.799 473.438 265.288 473.001 264.718C472.569 264.139 472.232 263.66 471.996 263.28H471.727V274.297H468.525ZM471.673 256.062C471.673 257.636 471.904 259.024 472.364 260.227C472.824 261.421 473.499 262.357 474.385 263.036C475.274 263.705 476.357 264.04 477.642 264.04C478.98 264.04 480.098 263.687 480.994 262.982C481.897 262.267 482.575 261.308 483.028 260.105C483.491 258.893 483.719 257.546 483.719 256.062C483.719 254.597 483.495 253.276 483.041 252.1C482.599 250.916 481.924 249.979 481.021 249.292C480.125 248.595 478.998 248.247 477.642 248.247C476.34 248.247 475.247 248.577 474.357 249.238C473.472 249.889 472.804 250.802 472.351 251.978C471.898 253.145 471.673 254.506 471.673 256.062ZM500.546 266.916C498.536 266.916 496.805 266.473 495.347 265.586C493.902 264.691 492.785 263.443 491.998 261.842C491.218 260.232 490.829 258.359 490.829 256.225C490.829 254.09 491.218 252.209 491.998 250.581C492.785 248.944 493.879 247.668 495.279 246.755C496.693 245.832 498.338 245.371 500.219 245.371C501.305 245.371 502.375 245.551 503.435 245.913C504.491 246.275 505.455 246.863 506.324 247.677C507.192 248.482 507.884 249.55 508.399 250.879C508.916 252.209 509.172 253.846 509.172 255.791V257.147H493.109V254.38H505.918C505.918 253.204 505.683 252.155 505.213 251.232C504.75 250.309 504.089 249.581 503.23 249.048C502.382 248.514 501.377 248.247 500.219 248.247C498.945 248.247 497.841 248.564 496.907 249.197C495.984 249.821 495.275 250.635 494.778 251.639C494.281 252.643 494.032 253.719 494.032 254.868V256.713C494.032 258.287 494.304 259.621 494.846 260.716C495.398 261.801 496.161 262.629 497.139 263.199C498.117 263.759 499.251 264.04 500.546 264.04C501.387 264.04 502.147 263.922 502.825 263.687C503.51 263.443 504.102 263.081 504.6 262.602C505.097 262.113 505.482 261.507 505.755 260.783L508.848 261.652C508.521 262.701 507.976 263.624 507.206 264.42C506.436 265.207 505.489 265.822 504.358 266.265C503.227 266.699 501.956 266.916 500.546 266.916ZM514.044 266.482V245.642H517.137V248.79H517.355C517.733 247.759 518.421 246.922 519.416 246.28C520.411 245.638 521.532 245.316 522.782 245.316C523.017 245.316 523.31 245.321 523.664 245.33C524.015 245.339 524.285 245.353 524.465 245.371V248.627C524.356 248.6 524.107 248.559 523.719 248.505C523.337 248.441 522.935 248.41 522.51 248.41C521.498 248.41 520.592 248.622 519.798 249.048C519.011 249.464 518.387 250.042 517.924 250.784C517.471 251.517 517.246 252.354 517.246 253.294V266.482H514.044ZM538.627 245.642V248.356H527.828V245.642H538.627ZM530.976 240.649H534.178V260.512C534.178 261.417 534.311 262.095 534.573 262.547C534.842 262.991 535.186 263.289 535.602 263.443C536.028 263.588 536.478 263.66 536.948 263.66C537.299 263.66 537.588 263.642 537.813 263.606C538.041 263.56 538.222 263.524 538.358 263.497L539.009 266.373C538.791 266.455 538.488 266.536 538.099 266.618C537.711 266.708 537.217 266.753 536.621 266.753C535.718 266.753 534.829 266.559 533.96 266.17C533.101 265.781 532.386 265.188 531.817 264.393C531.258 263.596 530.976 262.592 530.976 261.381V240.649ZM543.445 266.482V245.642H546.647V266.482H543.445ZM545.073 242.169C544.45 242.169 543.911 241.956 543.458 241.531C543.015 241.106 542.794 240.595 542.794 239.998C542.794 239.401 543.015 238.89 543.458 238.465C543.911 238.04 544.45 237.827 545.073 237.827C545.697 237.827 546.231 238.04 546.674 238.465C547.127 238.89 547.352 239.401 547.352 239.998C547.352 240.595 547.127 241.106 546.674 241.531C546.231 241.956 545.697 242.169 545.073 242.169ZM567.272 250.309L564.397 251.123C564.216 250.644 563.95 250.178 563.596 249.726C563.252 249.265 562.782 248.885 562.186 248.586C561.589 248.288 560.823 248.139 559.893 248.139C558.619 248.139 557.556 248.433 556.704 249.02C555.862 249.599 555.443 250.336 555.443 251.232C555.443 252.028 555.733 252.656 556.312 253.118C556.888 253.579 557.794 253.964 559.024 254.271L562.117 255.031C563.981 255.483 565.371 256.175 566.284 257.107C567.197 258.029 567.654 259.219 567.654 260.675C567.654 261.869 567.309 262.936 566.621 263.877C565.943 264.818 564.993 265.559 563.773 266.102C562.554 266.645 561.133 266.916 559.511 266.916C557.389 266.916 555.627 266.455 554.234 265.532C552.841 264.61 551.962 263.262 551.59 261.489L554.629 260.729C554.919 261.851 555.464 262.692 556.271 263.253C557.086 263.814 558.148 264.094 559.46 264.094C560.952 264.094 562.134 263.777 563.013 263.144C563.899 262.502 564.342 261.733 564.342 260.838C564.342 260.114 564.09 259.508 563.582 259.02C563.078 258.522 562.298 258.151 561.249 257.907L557.777 257.093C555.866 256.641 554.466 255.94 553.57 254.99C552.684 254.031 552.241 252.833 552.241 251.395C552.241 250.219 552.571 249.179 553.232 248.274C553.9 247.37 554.81 246.66 555.958 246.144C557.116 245.628 558.428 245.371 559.893 245.371C561.954 245.371 563.576 245.823 564.751 246.728C565.933 247.632 566.775 248.826 567.272 250.309ZM581.209 266.916C579.203 266.916 577.472 266.473 576.014 265.586C574.566 264.691 573.449 263.443 572.662 261.842C571.885 260.232 571.496 258.359 571.496 256.225C571.496 254.09 571.885 252.209 572.662 250.581C573.449 248.944 574.546 247.668 575.946 246.755C577.356 245.832 579.005 245.371 580.886 245.371C581.969 245.371 583.042 245.551 584.102 245.913C585.158 246.275 586.122 246.863 586.991 247.677C587.859 248.482 588.551 249.55 589.066 250.879C589.583 252.209 589.839 253.846 589.839 255.791V257.147H573.776V254.38H586.582C586.582 253.204 586.347 252.155 585.877 251.232C585.417 250.309 584.756 249.581 583.897 249.048C583.046 248.514 582.044 248.247 580.886 248.247C579.608 248.247 578.508 248.564 577.574 249.197C576.651 249.821 575.942 250.635 575.445 251.639C574.948 252.643 574.699 253.719 574.699 254.868V256.713C574.699 258.287 574.968 259.621 575.513 260.716C576.065 261.801 576.828 262.629 577.806 263.199C578.784 263.759 579.918 264.04 581.209 264.04C582.051 264.04 582.811 263.922 583.489 263.687C584.177 263.443 584.769 263.081 585.267 262.602C585.764 262.113 586.149 261.507 586.422 260.783L589.515 261.652C589.188 262.701 588.64 263.624 587.873 264.42C587.103 265.207 586.153 265.822 585.022 266.265C583.894 266.699 582.623 266.916 581.209 266.916ZM609.472 250.309L606.597 251.123C606.417 250.644 606.147 250.178 605.796 249.726C605.452 249.265 604.982 248.885 604.383 248.586C603.786 248.288 603.023 248.139 602.09 248.139C600.816 248.139 599.753 248.433 598.904 249.02C598.063 249.599 597.641 250.336 597.641 251.232C597.641 252.028 597.93 252.656 598.509 253.118C599.088 253.579 599.991 253.964 601.225 254.271L604.318 255.031C606.178 255.483 607.568 256.175 608.481 257.107C609.394 258.029 609.851 259.219 609.851 260.675C609.851 261.869 609.51 262.936 608.822 263.877C608.144 264.818 607.193 265.559 605.97 266.102C604.751 266.645 603.33 266.916 601.712 266.916C599.586 266.916 597.828 266.455 596.434 265.532C595.041 264.61 594.159 263.262 593.787 261.489L596.826 260.729C597.116 261.851 597.664 262.692 598.468 263.253C599.283 263.814 600.346 264.094 601.657 264.094C603.149 264.094 604.335 263.777 605.211 263.144C606.1 262.502 606.543 261.733 606.543 260.838C606.543 260.114 606.287 259.508 605.783 259.02C605.275 258.522 604.498 258.151 603.449 257.907L599.974 257.093C598.066 256.641 596.663 255.94 595.77 254.99C594.881 254.031 594.438 252.833 594.438 251.395C594.438 250.219 594.769 249.179 595.429 248.274C596.101 247.37 597.007 246.66 598.158 246.144C599.313 245.628 600.625 245.371 602.09 245.371C604.154 245.371 605.773 245.823 606.948 246.728C608.134 247.632 608.975 248.826 609.472 250.309Z" fill="#282828"/>
</g>
</svg>
