<svg width="760" height="400" viewBox="0 0 760 400" fill="none" xmlns="http://www.w3.org/2000/svg">
<g clip-path="url(#clip0_1046_267)">
<path d="M217.191 176.05C217.371 175.845 217.552 175.641 217.738 175.43C218.573 174.497 219.426 173.584 220.281 172.67C220.564 172.348 220.848 172.025 221.14 171.693C221.43 171.388 221.72 171.083 222.018 170.769C222.277 170.486 222.536 170.202 222.803 169.911C223.951 169.29 223.951 169.29 228.599 169.29C228.599 182.814 228.599 196.339 228.599 210.273C226.647 210.273 224.695 210.273 222.684 210.273C222.56 209.736 222.437 209.2 222.311 208.647C219.336 196.018 213.702 184.244 202.565 176.915C195.188 172.451 186.604 171.755 178.314 173.717C172.122 175.414 167.627 179.491 164.273 184.896C163.876 185.604 163.488 186.317 163.111 187.035C162.832 187.56 162.832 187.56 162.547 188.096C158.566 196.166 158.331 205.185 158.351 213.989C158.351 214.87 158.35 215.751 158.349 216.632C158.348 218.47 158.349 220.308 158.353 222.146C158.358 224.479 158.355 226.811 158.35 229.144C158.347 230.962 158.348 232.779 158.35 234.597C158.351 235.456 158.35 236.315 158.348 237.173C158.336 243.983 158.582 250.809 160.048 257.487C160.119 257.815 160.191 258.143 160.265 258.48C161.835 265.287 164.839 271.652 170.716 275.76C178.14 280.242 186.407 281.957 194.917 279.988C205.74 277.055 213.298 268.889 218.743 259.449C222.142 253.314 224.768 246.939 226.909 240.27C228.024 240.27 229.139 240.27 230.289 240.27C230.289 254.77 230.289 269.27 230.289 284.21C225.641 284.21 225.641 284.21 224.352 283.39C224.037 283.024 223.721 282.659 223.397 282.282C223.055 281.9 222.714 281.517 222.362 281.122C222.05 280.747 221.738 280.372 221.416 279.985C221.143 279.675 220.87 279.365 220.589 279.046C220.008 278.383 219.442 277.707 218.881 277.028C217.205 277.309 215.965 278.136 214.524 279.008C202.615 285.974 187.797 287.576 174.449 284.36C158.45 280.111 146.276 269.08 138.02 255.058C135.428 250.494 133.702 245.731 132.269 240.693C132.115 240.168 131.962 239.643 131.805 239.102C129.789 230.587 130.309 220.331 132.691 211.963C132.775 211.651 132.859 211.339 132.945 211.018C135.813 200.561 141.716 191.786 149.169 184.078C149.428 183.797 149.687 183.516 149.954 183.226C158.028 174.672 169.679 169.276 181.279 168.023C181.943 167.945 181.943 167.945 182.62 167.866C195.3 166.659 206.359 169.516 217.191 176.05Z" fill="#282828"/>
<path d="M533.299 210.986C533.795 210.983 534.292 210.981 534.804 210.979C541.243 211.031 546.94 211.814 551.727 216.406C558.521 224.094 556.946 237.336 556.828 246.822C556.818 247.796 556.808 248.771 556.798 249.745C556.772 252.283 556.742 254.821 556.713 257.359C556.682 259.959 556.655 262.559 556.628 265.16C556.574 270.242 556.516 275.325 556.457 280.408C559.943 280.408 563.428 280.408 567.019 280.408C567.019 282.22 567.019 284.033 567.019 285.9C554.192 285.9 541.365 285.9 528.149 285.9C528.149 284.088 528.149 282.275 528.149 280.408C531.635 280.408 535.121 280.408 538.712 280.408C538.676 274.002 538.636 267.597 538.59 261.191C538.569 258.217 538.55 255.242 538.534 252.267C538.518 249.394 538.498 246.52 538.476 243.646C538.468 242.553 538.462 241.46 538.457 240.366C538.45 238.828 538.437 237.291 538.424 235.753C538.423 235.306 538.422 234.86 538.421 234.4C538.371 229.817 538.212 224.631 535.332 220.835C531.525 217.738 524.839 217.924 520.122 218.3C517.608 218.766 515.743 219.556 514.207 221.68C511.967 226.473 512.098 232.641 511.868 237.844C511.85 238.246 511.833 238.648 511.814 239.062C511.633 243.353 511.577 247.644 511.538 251.938C511.529 252.768 511.521 253.598 511.512 254.428C511.489 256.577 511.468 258.726 511.447 260.874C511.426 263.081 511.402 265.288 511.379 267.495C511.334 271.799 511.291 276.103 511.249 280.408C514.735 280.408 518.221 280.408 521.812 280.408C521.812 282.22 521.812 284.033 521.812 285.9C508.009 285.9 494.206 285.9 479.984 285.9C479.984 284.088 479.984 282.275 479.984 280.408C484.446 280.408 488.908 280.408 493.504 280.408C493.504 259.633 493.504 238.859 493.504 217.455C489.74 217.455 485.975 217.455 482.097 217.455C482.097 215.782 482.097 214.109 482.097 212.385C485.336 212.274 488.576 212.164 491.816 212.055C493.32 212.004 494.825 211.953 496.329 211.901C498.063 211.842 499.797 211.783 501.53 211.725C502.065 211.707 502.6 211.688 503.151 211.669C505.852 211.579 508.547 211.52 511.249 211.54C511.459 214.468 511.459 214.468 511.672 217.455C512.443 216.789 512.443 216.789 513.23 216.108C519 211.652 526.268 211.014 533.299 210.986Z" fill="#282828"/>
<path d="M264.256 211.958C264.566 211.958 264.877 211.958 265.196 211.959C265.953 211.959 266.71 211.961 267.467 211.962C267.468 212.286 267.469 212.609 267.47 212.943C267.495 220.821 267.527 228.699 267.567 236.576C267.586 240.386 267.602 244.196 267.613 248.006C267.623 251.327 267.637 254.648 267.657 257.969C267.667 259.727 267.675 261.485 267.677 263.243C267.68 264.9 267.688 266.556 267.701 268.212C267.705 268.818 267.706 269.424 267.706 270.031C267.703 273.195 267.737 275.852 269.157 278.717C270.6 280.13 272.574 280.521 274.544 280.645C278.911 280.424 282.342 278.264 285.407 275.278C292.828 266.92 293.277 256.406 293.373 245.852C293.382 245.043 293.391 244.234 293.4 243.426C293.423 241.31 293.444 239.194 293.464 237.079C293.486 234.915 293.509 232.751 293.532 230.587C293.578 226.351 293.62 222.114 293.662 217.877C289.619 217.877 285.575 217.877 281.41 217.877C281.41 216.204 281.41 214.531 281.41 212.807C284.535 212.685 287.66 212.565 290.786 212.446C291.846 212.406 292.907 212.365 293.967 212.323C295.502 212.263 297.038 212.205 298.574 212.147C299.038 212.129 299.502 212.11 299.98 212.091C303.656 211.955 307.298 211.962 310.985 211.962C310.985 234.27 310.985 256.578 310.985 279.562C314.749 279.562 318.513 279.562 322.392 279.562C322.392 281.235 322.392 282.909 322.392 284.632C321.845 284.626 321.845 284.626 321.286 284.619C312.004 284.522 302.899 284.874 293.662 285.9C293.523 280.881 293.383 275.861 293.24 270.69C292.264 272.363 291.288 274.036 290.282 275.76C286.22 281.096 280.901 284.744 274.275 286.161C267.651 286.975 260.256 286.484 254.795 282.297C251.024 278.858 249.93 274.329 249.648 269.387C249.619 268.013 249.617 266.641 249.626 265.266C249.626 264.75 249.626 264.235 249.626 263.703C249.626 262.306 249.63 260.909 249.636 259.511C249.642 258.045 249.642 256.578 249.643 255.112C249.646 252.342 249.653 249.573 249.661 246.803C249.671 243.647 249.675 240.49 249.68 237.334C249.688 230.849 249.704 224.363 249.722 217.877C246.376 217.877 243.03 217.877 239.582 217.877C239.582 216.204 239.582 214.531 239.582 212.807C242.467 212.685 245.351 212.565 248.236 212.446C249.215 212.406 250.193 212.365 251.171 212.323C252.59 212.263 254.008 212.205 255.426 212.147C256.067 212.12 256.067 212.12 256.72 212.091C259.234 211.991 261.741 211.952 264.256 211.958Z" fill="#282828"/>
<path d="M626.171 217.456C627.668 218.643 629.043 219.91 630.396 221.258C630.846 221.693 630.846 221.693 631.306 222.138C636.548 227.561 638.222 234.318 638.128 241.645C638.001 243.228 638.001 243.228 637.156 244.073C636.307 244.177 636.307 244.177 635.242 244.175C634.839 244.176 634.436 244.177 634.021 244.178C633.578 244.175 633.134 244.172 632.678 244.169C632.212 244.169 631.746 244.169 631.266 244.169C629.721 244.169 628.175 244.162 626.63 244.156C625.561 244.154 624.492 244.153 623.422 244.152C620.892 244.149 618.362 244.142 615.832 244.134C612.951 244.124 610.071 244.12 607.191 244.116C601.265 244.107 595.339 244.092 589.414 244.073C589.453 246.845 589.498 249.617 589.548 252.389C589.564 253.33 589.579 254.27 589.592 255.21C589.31 267.452 589.31 267.452 594.52 278.02C597.821 280.869 602.147 281.415 606.366 281.385C606.887 281.382 606.887 281.382 607.419 281.379C614.091 281.253 620.808 279.63 625.749 274.916C628.035 272.453 629.391 269.476 630.819 266.466C631.097 265.908 631.376 265.35 631.664 264.776C633.337 264.776 635.01 264.776 636.734 264.776C635.165 271.4 632.129 277.572 626.171 281.253C617.485 286.514 604.225 287.19 594.484 285.056C588.873 283.628 584.131 281.15 579.696 277.451C579.288 277.127 578.88 276.804 578.46 276.47C571.508 270.65 567.42 260.94 566.599 252.101C565.964 241.856 569.262 232.201 575.869 224.344C588.572 210.123 610.013 206.279 626.171 217.456ZM593.35 218.06C588.124 223.507 589.414 232.306 589.414 239.003C598.337 239.003 607.26 239.003 616.454 239.003C617.696 228.351 617.696 228.351 613.919 218.723C610.885 215.69 607.719 215.133 603.582 214.921C599.866 214.921 596.242 215.603 593.35 218.06Z" fill="#282828"/>
<path d="M316.03 102.746C316.362 102.751 316.695 102.755 317.037 102.76C321.605 102.908 325.402 104.516 328.546 107.869C331.797 111.739 333.198 116.058 333.085 121.064C332.524 126.853 329.235 131.158 324.92 134.831C324.083 135.49 324.083 135.49 322.816 136.335C323.332 136.32 323.847 136.305 324.379 136.29C331.088 136.154 337.039 136.698 342.305 141.355C346.001 145.298 347.937 150.691 347.833 156.069C347.474 159.969 346.169 163.145 343.941 166.332C343.645 166.759 343.348 167.186 343.043 167.626C337.26 174.105 328.255 176.48 320.334 179.166C318.489 179.797 316.644 180.429 314.8 181.062C314.354 181.215 313.909 181.367 313.45 181.524C309.616 182.838 305.803 184.202 302.009 185.625C301.644 185.76 301.279 185.894 300.904 186.033C300.602 186.147 300.3 186.26 299.989 186.377C299.156 186.612 299.156 186.612 297.466 186.612C297.257 185.148 297.257 185.148 297.043 183.655C301.268 181.965 301.268 181.965 305.493 180.275C301.459 168.757 297.422 157.239 293.347 145.736C293.131 145.128 293.131 145.128 292.912 144.507C291.414 140.279 289.912 136.053 288.402 131.829C287.765 130.044 287.128 128.259 286.49 126.474C286.041 125.216 285.59 123.959 285.139 122.701C284.868 121.944 284.598 121.186 284.327 120.428C284.202 120.081 284.077 119.734 283.948 119.377C283.101 116.996 283.101 116.996 283.101 116.055C282.724 116.189 282.724 116.189 282.339 116.326C281.203 116.73 280.066 117.132 278.929 117.534C278.533 117.675 278.137 117.816 277.729 117.961C277.35 118.095 276.972 118.228 276.582 118.365C276.232 118.489 275.883 118.613 275.523 118.741C274.651 119.012 274.651 119.012 273.806 119.012C273.388 117.548 273.388 117.548 272.961 116.055C276.198 114.552 279.516 113.329 282.875 112.134C283.165 112.03 283.455 111.926 283.754 111.82C285.29 111.271 286.828 110.724 288.366 110.178C289.621 109.733 290.875 109.285 292.128 108.834C309.517 102.578 309.517 102.578 316.03 102.746ZM301.057 109.268C300.6 109.426 300.142 109.584 299.671 109.746C297.474 110.484 297.474 110.484 295.353 111.407C295.621 112.887 295.997 114.269 296.488 115.689C296.634 116.111 296.779 116.533 296.929 116.968C297.087 117.42 297.244 117.873 297.407 118.339C297.57 118.811 297.733 119.282 297.901 119.768C298.247 120.767 298.594 121.766 298.941 122.764C299.467 124.276 299.99 125.788 300.513 127.301C300.85 128.274 301.188 129.248 301.526 130.222C301.68 130.667 301.834 131.113 301.993 131.572C303.095 134.735 304.275 137.863 305.493 140.982C308.21 140.319 310.835 139.51 313.442 138.5C313.959 138.301 314.475 138.102 315.008 137.896C317.164 136.846 318.973 135.606 319.99 133.351C320.12 133.076 320.249 132.801 320.382 132.518C322.363 127.407 320.355 121.581 318.432 116.715C316.893 113.255 315.017 110.187 311.831 108.027C308.085 106.779 304.63 107.988 301.057 109.268ZM306.761 143.94C307.651 147.424 308.756 150.802 309.956 154.19C310.139 154.71 310.322 155.23 310.51 155.766C310.894 156.858 311.279 157.95 311.665 159.041C312.156 160.432 312.646 161.822 313.135 163.213C315.387 169.651 315.387 169.651 317.746 176.05C320.407 175.662 322.783 174.81 325.298 173.885C325.742 173.73 326.186 173.575 326.643 173.416C329.713 172.286 332.758 170.916 334.31 167.867C336.46 162.208 334.026 155.126 331.73 149.819C329.748 145.658 327.463 142.091 323.027 140.428C317.464 139.335 311.91 142.03 306.761 143.94Z" fill="#282828"/>
<path d="M414.22 215.633C414.451 215.816 414.682 215.999 414.92 216.188C415.063 215.883 415.207 215.578 415.355 215.264C415.56 214.871 415.765 214.479 415.976 214.075C416.172 213.683 416.368 213.291 416.57 212.887C416.862 212.582 417.154 212.277 417.455 211.963C418.57 211.963 419.685 211.963 420.835 211.963C420.835 219.213 420.835 226.463 420.835 233.933C419.301 233.933 417.767 233.933 416.187 233.933C416.099 233.539 416.012 233.145 415.921 232.74C414.493 226.828 412.228 221.061 406.866 217.746C403.192 215.627 399.861 214.878 395.689 215.856C392.58 216.839 390.056 218.475 388.302 221.258C386.669 224.468 386.524 228.124 387.404 231.583C390.789 235.664 397.736 236.105 402.632 237.154C417.606 240.364 417.606 240.364 421.562 246.129C426.04 253.605 425.895 263.433 423.871 271.664C422.364 276.601 419.594 280.583 415.043 283.17C408.672 286.218 400.882 286.832 394.151 284.616C391.394 283.537 389.004 282.139 386.612 280.408C385.985 279.989 385.985 279.989 385.345 279.563C385.109 279.868 384.874 280.173 384.632 280.487C384.148 281.075 384.148 281.075 383.655 281.675C383.184 282.263 383.184 282.263 382.704 282.864C381.542 283.788 381.542 283.788 378.162 283.788C378.162 275.143 378.162 266.499 378.162 257.593C379.696 257.593 381.229 257.593 382.81 257.593C382.938 258.144 383.066 258.695 383.197 259.263C385.054 267.09 387.393 274.742 394.64 279.243C398.495 281.306 402.677 281.895 406.958 280.962C411.329 279.638 413.867 277.767 416.133 273.803C417.451 271.039 417.574 267.496 416.728 264.569C415.509 261.958 413.846 260.735 411.178 259.723C408.492 258.764 405.792 258.289 402.984 257.83C395.341 256.49 387.578 254.655 382.519 248.238C378.45 242.093 377.955 233.732 379.301 226.623C380.104 223.536 381.412 220.91 383.232 218.3C383.476 217.926 383.72 217.551 383.971 217.165C391.922 208.993 405.268 209.188 414.22 215.633Z" fill="#282828"/>
<path d="M351.545 211.54C351.545 234.684 351.545 257.829 351.545 281.675C355.309 281.675 359.074 281.675 362.952 281.675C362.952 283.069 362.952 284.463 362.952 285.9C350.543 285.9 338.134 285.9 325.35 285.9C325.35 284.505 325.35 283.111 325.35 281.675C328.138 281.675 330.927 281.675 333.8 281.675C333.8 260.064 333.8 238.453 333.8 216.187C331.569 216.187 329.338 216.187 327.04 216.187C327.04 214.793 327.04 213.399 327.04 211.962C329.171 211.9 331.303 211.84 333.435 211.782C334.156 211.762 334.877 211.741 335.598 211.72C336.651 211.69 337.704 211.661 338.757 211.632C339.065 211.623 339.373 211.614 339.689 211.604C343.643 211.5 347.586 211.54 351.545 211.54Z" fill="#282828"/>
<path d="M462.663 211.54C462.663 234.684 462.663 257.829 462.663 281.675C466.567 281.675 470.471 281.675 474.493 281.675C474.493 283.069 474.493 284.463 474.493 285.9C462.084 285.9 449.675 285.9 436.891 285.9C436.891 284.505 436.891 283.111 436.891 281.675C439.679 281.675 442.468 281.675 445.341 281.675C445.341 260.064 445.341 238.453 445.341 216.187C442.97 216.187 440.6 216.187 438.158 216.187C438.158 214.793 438.158 213.399 438.158 211.962C440.29 211.9 442.422 211.84 444.553 211.782C445.274 211.762 445.995 211.741 446.716 211.72C447.769 211.69 448.823 211.661 449.876 211.632C450.183 211.623 450.491 211.614 450.808 211.604C454.761 211.5 458.704 211.54 462.663 211.54Z" fill="#282828"/>
<path d="M396.753 130.842C400.215 131.465 403.586 132.521 406.957 133.509C407.958 133.802 408.961 134.089 409.963 134.377C410.599 134.563 411.235 134.749 411.871 134.935C412.171 135.02 412.471 135.106 412.78 135.194C413.502 135.408 414.213 135.657 414.921 135.912C415.343 136.757 415.343 136.757 415.067 137.798C414.912 138.237 414.758 138.676 414.599 139.129C414.338 139.877 414.338 139.877 414.072 140.64C413.876 141.19 413.681 141.74 413.485 142.291C413.285 142.861 413.085 143.431 412.885 144.001C412.355 145.515 411.82 147.026 411.285 148.538C410.861 149.738 410.439 150.939 410.018 152.14C406.53 162.081 406.53 162.081 404.908 166.482C404.731 166.962 404.555 167.443 404.373 167.938C404.047 168.824 403.718 169.709 403.385 170.592C401.955 174.352 401.955 174.352 402.061 178.294C403.227 179.662 404.481 180.18 406.255 180.411C410.261 180.576 413.56 179.293 416.665 176.787C421.975 171.832 423.934 164.657 426.208 157.996C426.702 156.549 427.202 155.105 427.702 153.66C428.018 152.743 428.333 151.825 428.649 150.907C428.798 150.475 428.947 150.042 429.101 149.596C429.237 149.198 429.372 148.8 429.512 148.39C429.632 148.04 429.752 147.689 429.875 147.328C430.171 146.488 430.171 146.488 430.131 145.629C427.761 144.793 425.391 143.956 422.948 143.094C423.371 140.559 423.371 140.559 423.793 139.714C427.504 140.706 431.196 141.761 434.883 142.836C435.541 143.028 436.201 143.218 436.86 143.408C437.822 143.684 438.784 143.964 439.744 144.245C440.04 144.329 440.335 144.413 440.639 144.499C442.71 145.11 442.71 145.11 443.651 146.052C442.208 150.189 440.764 154.326 439.32 158.463C439.161 158.919 439.161 158.919 438.999 159.383C435.779 168.607 432.552 177.827 429.286 187.034C429.958 187.305 430.63 187.576 431.303 187.846C431.677 187.997 432.051 188.148 432.437 188.303C433.627 188.77 434.827 189.184 436.046 189.569C435.676 191.999 435.676 191.999 435.201 192.949C432.666 192.439 430.268 191.756 427.834 190.89C424.013 189.567 420.148 188.675 416.188 187.879C416.416 185.954 416.778 184.272 417.482 182.466C418.098 180.986 418.098 180.986 418.301 179.429C418.024 179.623 417.748 179.817 417.463 180.017C412.616 183.275 408.134 184.765 402.246 184.077C398.29 183.145 394.442 181.556 391.938 178.22C390.465 175.781 390.114 173.371 390.416 170.557C390.641 169.696 390.891 168.842 391.16 167.995C391.391 167.269 391.391 167.269 391.627 166.527C392.345 164.335 393.087 162.153 393.845 159.974C394.006 159.512 394.166 159.049 394.332 158.572C394.839 157.109 395.347 155.647 395.856 154.185C396.193 153.212 396.53 152.24 396.867 151.267C398.645 146.143 400.433 141.023 402.246 135.912C401.98 135.856 401.714 135.799 401.44 135.741C399.55 135.339 397.731 134.876 395.908 134.222C396.278 131.317 396.278 131.317 396.753 130.842Z" fill="#282828"/>
<path d="M479.564 124.504C480.819 129.098 481.661 133.766 482.521 138.446C485.444 138.212 488.264 137.766 491.13 137.152C491.863 136.996 492.597 136.842 493.332 136.689C493.809 136.587 493.809 136.587 494.296 136.482C495.196 136.334 495.196 136.334 496.886 136.334C497.305 138.844 497.305 138.844 497.731 141.404C495.958 141.767 494.184 142.128 492.409 142.487C491.806 142.609 491.202 142.732 490.599 142.856C489.731 143.034 488.863 143.209 487.994 143.384C487.211 143.544 487.211 143.544 486.412 143.706C485.056 143.939 485.056 143.939 483.366 143.939C483.419 144.18 483.471 144.421 483.525 144.67C483.799 145.931 484.071 147.193 484.344 148.454C484.506 149.204 484.506 149.204 484.672 149.968C485.389 153.293 486.077 156.624 486.744 159.96C487.149 161.987 487.56 164.013 487.97 166.04C488.175 167.061 488.378 168.083 488.579 169.105C488.866 170.562 489.161 172.017 489.456 173.473C489.541 173.914 489.626 174.356 489.714 174.81C490.17 177.016 490.536 178.674 492.239 180.274C494.023 180.984 495.232 180.529 496.966 179.825C497.628 179.569 497.628 179.569 498.304 179.308C499.714 178.394 499.903 177.655 500.266 176.049C501.94 176.049 503.613 176.049 505.336 176.049C505.292 178.882 504.859 180.434 502.861 182.477C498.809 185.857 493.664 186.711 488.542 186.796C488.207 186.806 487.873 186.815 487.528 186.825C484.718 186.814 482.587 186.021 480.414 184.228C480.229 184.004 480.045 183.779 479.854 183.548C479.664 183.328 479.474 183.108 479.278 182.882C477.226 179.514 476.762 175.47 476.034 171.659C475.903 170.986 475.772 170.313 475.641 169.639C475.369 168.235 475.098 166.83 474.829 165.425C474.484 163.625 474.135 161.825 473.784 160.026C473.515 158.639 473.246 157.252 472.979 155.864C472.851 155.2 472.722 154.537 472.593 153.873C472.414 152.947 472.236 152.021 472.059 151.095C471.958 150.568 471.857 150.042 471.753 149.499C471.536 148.164 471.536 148.164 471.536 146.474C470.796 146.657 470.796 146.657 470.04 146.844C469.386 147.002 468.731 147.161 468.077 147.319C467.752 147.4 467.428 147.48 467.093 147.563C466.776 147.639 466.458 147.716 466.131 147.794C465.697 147.9 465.697 147.9 465.253 148.009C464.354 148.164 464.354 148.164 462.241 148.164C461.963 146.491 461.684 144.818 461.396 143.094C461.84 143.001 462.284 142.909 462.742 142.813C466.925 141.891 470.653 140.964 473.2 137.232C475.223 133.52 475.149 129.469 475.339 125.349C478.138 124.504 478.138 124.504 479.564 124.504Z" fill="#282828"/>
<path d="M387.604 134.95C389.143 136.14 390.214 137.424 390.837 139.293C391.129 142.297 391.052 144.492 389.147 146.898C387.176 148.319 385.167 148.537 382.81 148.165C380.959 147.308 379.925 146.367 379.2 144.425C378.811 142.593 378.916 140.731 379.007 138.87C376.321 139.394 375.021 140.94 373.515 143.095C370.154 148.848 369.69 155.658 369.579 162.175C369.57 162.611 369.561 163.046 369.552 163.495C369.525 164.872 369.5 166.249 369.475 167.626C369.456 168.566 369.438 169.505 369.419 170.444C369.374 172.735 369.332 175.026 369.29 177.318C372.078 177.318 374.867 177.318 377.74 177.318C377.74 178.433 377.74 179.548 377.74 180.698C368.956 180.698 360.172 180.698 351.122 180.698C351.122 179.582 351.122 178.467 351.122 177.318C353.074 177.318 355.026 177.318 357.037 177.318C357.037 164.63 357.037 151.942 357.037 138.87C354.807 138.87 352.576 138.87 350.277 138.87C350.277 137.755 350.277 136.639 350.277 135.49C356.336 135.24 362.38 135.007 368.445 135.068C368.654 138.832 368.654 138.832 368.867 142.673C369.286 142.036 369.704 141.4 370.135 140.745C373.999 135.269 381.008 131.032 387.604 134.95Z" fill="#282828"/>
<path d="M460.128 127.463C460.128 141.824 460.128 156.185 460.128 170.981C462.777 170.981 465.426 170.981 468.155 170.981C468.155 172.096 468.155 173.211 468.155 174.361C458.814 174.361 449.472 174.361 439.848 174.361C439.848 173.245 439.848 172.13 439.848 170.981C442.497 170.981 445.146 170.981 447.875 170.981C447.875 157.875 447.875 144.769 447.875 131.266C445.226 131.266 442.577 131.266 439.848 131.266C439.848 130.15 439.848 129.035 439.848 127.886C441.853 127.824 443.858 127.764 445.864 127.705C446.544 127.685 447.223 127.664 447.903 127.644C448.89 127.613 449.877 127.584 450.864 127.556C451.159 127.546 451.454 127.537 451.758 127.528C454.551 127.448 457.329 127.463 460.128 127.463Z" fill="#282828"/>
<path d="M261.13 161.684C261.13 171.304 261.13 180.924 261.13 190.836C262.106 190.836 263.082 190.836 264.088 190.836C264.088 191.254 264.088 191.673 264.088 192.104C261.257 192.4 258.484 192.573 255.638 192.526C255.498 192.108 255.359 191.69 255.215 191.259C254.614 191.677 254.614 191.677 254.001 192.104C252.043 193.207 250.23 193.347 248.033 192.949C245.437 191.862 243.646 190.159 242.435 187.615C241.738 184.48 241.75 181.52 243.215 178.615C244.512 176.697 246.252 175.372 248.191 174.147C249.979 173.807 251.758 173.931 253.525 174.359C254.083 174.777 254.641 175.195 255.215 175.626C255.355 171.722 255.494 167.818 255.638 163.796C254.662 163.796 253.686 163.796 252.68 163.796C252.68 163.238 252.68 162.681 252.68 162.106C253.692 162.035 254.705 161.965 255.717 161.895C256.002 161.875 256.286 161.855 256.579 161.834C258.104 161.73 259.599 161.684 261.13 161.684ZM248.455 176.471C247.548 178.285 247.92 180.688 247.908 182.702C247.901 183.595 247.882 184.486 247.864 185.378C247.859 185.947 247.856 186.515 247.853 187.083C247.847 187.6 247.841 188.117 247.834 188.649C247.929 190.021 247.929 190.021 248.798 191.018C249.73 191.822 249.73 191.822 251.175 191.681C253.035 191.159 254.253 190.466 255.264 188.785C255.935 187.157 255.794 185.471 255.796 183.733C255.807 183.362 255.817 182.992 255.828 182.61C255.839 180.057 255.458 178.547 253.948 176.471C251.584 175.005 250.739 174.949 248.455 176.471Z" fill="#282828"/>
<path d="M457.304 190.203C459.492 191.48 461.437 193.494 462.242 195.907C462.654 199.12 462.078 201.741 460.129 204.357C457.853 206.386 455.807 207.196 452.788 207.42C450.186 207.24 448.004 206.222 446.187 204.357C444.383 201.648 443.562 199.155 444.074 195.907C445.007 193.305 446.869 191.508 449.144 189.992C451.699 189.14 454.816 189.096 457.304 190.203Z" fill="#282828"/>
<path d="M346.213 190.414C348.525 191.74 350.174 193.4 350.992 195.976C351.471 198.802 350.883 201.61 349.246 203.969C347.105 206.334 344.706 207.145 341.591 207.473C338.295 207.113 336.533 206.086 334.412 203.527C332.977 201.505 332.51 199.645 332.534 197.174C333.11 194.111 334.986 191.833 337.446 190.018C340.422 189.081 343.349 189.134 346.213 190.414Z" fill="#282828"/>
<path d="M530.263 161.684C530.263 171.304 530.263 180.924 530.263 190.836C531.239 190.836 532.215 190.836 533.221 190.836C533.221 191.254 533.221 191.673 533.221 192.104C529.665 192.313 529.665 192.313 526.038 192.526C525.899 191.968 525.759 191.411 525.616 190.836C525.363 191.106 525.11 191.376 524.85 191.655C523.421 193.002 522.077 193.096 520.148 193.067C518.245 192.807 517.064 191.597 515.793 190.255C513.914 187.438 513.89 184.396 514.208 181.119C515.026 178.099 516.598 176.145 519.199 174.411C521.048 173.759 522.014 173.896 523.926 174.359C524.483 174.916 525.041 175.474 525.616 176.049C525.755 172.005 525.895 167.962 526.038 163.796C525.062 163.796 524.086 163.796 523.081 163.796C523.081 163.238 523.081 162.681 523.081 162.106C523.961 162.035 524.841 161.965 525.721 161.895C526.211 161.856 526.702 161.816 527.207 161.776C528.224 161.707 529.244 161.684 530.263 161.684ZM520.297 176.079C519.054 177.589 519.011 178.303 519.012 180.236C519.012 180.793 519.011 181.35 519.01 181.925C519.015 182.213 519.021 182.501 519.026 182.798C519.04 183.679 519.035 184.559 519.026 185.44C518.893 188.421 518.893 188.421 520.074 191.013C520.92 191.779 520.92 191.779 521.998 191.707C523.725 190.991 524.823 189.875 525.668 188.21C526.557 185.383 526.482 181.531 525.51 178.716C524.639 177.067 523.897 176.074 522.262 175.177C521.271 175.12 521.271 175.12 520.297 176.079Z" fill="#282828"/>
<path d="M274.651 173.937C274.79 179.374 274.929 184.812 275.073 190.414C276.735 191.022 276.735 191.022 278.057 190.203C279.841 188.684 280.446 187.242 280.705 184.959C280.784 183.546 280.828 182.137 280.856 180.723C280.87 180.232 280.885 179.742 280.9 179.237C280.934 178.033 280.964 176.83 280.988 175.627C279.873 175.627 278.757 175.627 277.608 175.627C277.608 175.208 277.608 174.79 277.608 174.359C280.494 173.98 283.1 173.937 286.058 173.937C286.058 179.514 286.058 185.091 286.058 190.837C287.034 190.837 288.01 190.837 289.016 190.837C289.016 191.255 289.016 191.673 289.016 192.104C286.366 192.243 283.717 192.383 280.988 192.527C280.849 191.829 280.709 191.132 280.566 190.414C280.173 190.754 279.781 191.094 279.377 191.444C277.581 193.001 275.908 193.091 273.601 193.071C272.053 192.893 271.148 192.286 270.003 191.259C269.491 189.724 269.528 188.322 269.539 186.725C269.54 186.408 269.54 186.091 269.541 185.765C269.543 184.753 269.549 183.741 269.554 182.73C269.556 182.044 269.558 181.357 269.56 180.671C269.565 178.989 269.572 177.308 269.581 175.627C268.605 175.627 267.629 175.627 266.623 175.627C266.623 175.208 266.623 174.79 266.623 174.359C269.383 173.942 271.789 173.937 274.651 173.937Z" fill="#282828"/>
<path d="M553.498 175.204C554.173 175.664 554.173 175.664 554.765 176.472C554.876 177.565 554.913 178.554 554.889 179.645C554.887 179.953 554.886 180.261 554.884 180.578C554.877 181.559 554.861 182.54 554.845 183.522C554.838 184.188 554.832 184.854 554.827 185.52C554.813 187.151 554.791 188.783 554.765 190.414C555.602 190.135 556.438 189.856 557.3 189.569C557.3 191.259 557.3 191.259 556.455 192.21C554.856 193.143 553.619 193.391 551.808 192.949C550.54 191.893 550.54 191.893 549.695 190.837C549.304 191.065 549.304 191.065 548.905 191.299C546.479 192.628 544.454 193.464 541.668 192.949C540.386 192.433 540.021 192.166 539.212 190.995C538.604 189.267 538.575 187.914 539.133 186.189C540.71 183.731 542.48 182.872 545.233 182.096C546.73 181.914 548.188 181.938 549.695 181.964C549.695 180.012 549.695 178.06 549.695 176.049C546.938 175.625 546.938 175.625 544.203 176.049C544.351 176.354 544.499 176.659 544.652 176.973C545.098 178.311 545.056 178.947 544.625 180.274C543.78 181.119 543.78 181.119 542.539 181.251C541.245 181.119 541.245 181.119 540.427 180.67C539.677 179.302 539.996 178.359 540.4 176.894C543.488 172.924 549.263 173.06 553.498 175.204ZM544.388 185.001C543.573 186.594 543.7 187.448 544.203 189.147C544.885 190.046 544.885 190.046 545.893 190.414C547.31 190.414 547.883 190.091 548.982 189.199C550.037 187.247 549.832 185.406 549.695 183.232C547.614 183.232 545.951 183.667 544.388 185.001Z" fill="#282828"/>
<path d="M564.061 173.938C564.2 174.774 564.34 175.611 564.483 176.473C564.806 176.133 565.128 175.793 565.46 175.443C567.026 173.95 568.256 173.785 570.398 173.821C571.787 174.013 572.438 174.602 573.356 175.628C574.16 177.557 574.3 179.196 574.283 181.275C574.282 181.562 574.281 181.85 574.28 182.145C574.275 183.054 574.264 183.962 574.254 184.87C574.249 185.489 574.245 186.109 574.242 186.728C574.233 188.239 574.218 189.75 574.201 191.26C574.898 191.26 575.595 191.26 576.313 191.26C576.313 191.818 576.313 192.376 576.313 192.95C573.385 192.95 570.457 192.95 567.441 192.95C567.441 192.393 567.441 191.835 567.441 191.26C568.277 191.26 569.114 191.26 569.976 191.26C569.936 189.562 569.891 187.863 569.842 186.165C569.826 185.588 569.811 185.011 569.798 184.434C569.778 183.601 569.753 182.768 569.728 181.935C569.715 181.435 569.702 180.935 569.688 180.42C569.552 178.989 569.217 177.813 568.708 176.473C567.703 176.454 567.703 176.454 566.596 176.895C564.946 179.279 564.468 181.316 564.35 184.205C564.332 184.617 564.314 185.03 564.296 185.455C564.279 185.881 564.263 186.306 564.246 186.745C564.227 187.179 564.209 187.612 564.19 188.059C564.146 189.126 564.103 190.193 564.061 191.26C564.897 191.26 565.734 191.26 566.596 191.26C566.596 191.818 566.596 192.376 566.596 192.95C563.528 192.95 560.461 192.95 557.301 192.95C557.301 192.393 557.301 191.835 557.301 191.26C558.137 191.26 558.974 191.26 559.836 191.26C559.836 186.101 559.836 180.943 559.836 175.628C558.999 175.628 558.163 175.628 557.301 175.628C557.301 175.209 557.301 174.791 557.301 174.36C558.031 174.289 558.762 174.218 559.492 174.149C559.899 174.11 560.306 174.071 560.725 174.03C561.843 173.946 562.94 173.921 564.061 173.938Z" fill="#282828"/>
<path d="M634.451 175.665C635.355 176.9 635.198 178.175 635.166 179.645C635.164 179.953 635.162 180.261 635.16 180.578C635.153 181.559 635.137 182.541 635.121 183.522C635.115 184.188 635.109 184.854 635.104 185.52C635.09 187.151 635.068 188.783 635.042 190.414C636.018 190.135 636.994 189.856 637.999 189.569C637.886 190.964 637.763 191.523 636.679 192.447C635.135 193.085 634.166 193.182 632.507 192.949C631.526 192.329 630.811 191.655 629.972 190.837C629.384 191.242 629.384 191.242 628.784 191.655C626.649 193.036 624.848 193.198 622.367 192.949C620.831 192.263 620.35 191.825 619.409 190.414C619.132 188.719 619.044 186.976 619.779 185.394C621.261 183.454 623.215 182.753 625.483 182.096C627.12 181.901 628.748 181.932 630.394 181.964C630.335 181.137 630.273 180.309 630.21 179.482C630.175 179.021 630.141 178.56 630.106 178.086C630.044 176.916 630.044 176.916 629.549 176.049C627.936 175.72 626.901 175.524 625.324 176.049C625.339 176.309 625.354 176.569 625.369 176.836C625.38 177.178 625.392 177.519 625.404 177.871C625.418 178.209 625.433 178.548 625.448 178.896C625.324 179.852 625.324 179.852 624.781 180.616C624.057 181.119 624.057 181.119 622.525 181.013C621.099 180.697 621.099 180.697 620.677 180.274C620.38 177.308 620.38 177.308 621.548 175.679C625.159 173.067 630.748 173.144 634.451 175.665ZM627.199 183.813C626.868 183.92 626.536 184.028 626.194 184.139C625.251 184.464 625.251 184.464 624.479 185.344C624.27 186.628 624.289 187.861 624.479 189.147C625.122 190.113 625.122 190.113 626.169 190.414C627.252 190.479 627.252 190.479 628.282 189.992C630.021 188.204 630.38 187.041 630.421 184.605C630.412 184.152 630.403 183.698 630.394 183.232C629.15 183.232 628.368 183.424 627.199 183.813Z" fill="#282828"/>
<path d="M610.962 161.684C610.962 171.443 610.962 181.203 610.962 191.259C611.798 191.259 612.635 191.259 613.497 191.259C613.497 191.816 613.497 192.374 613.497 192.949C610.29 192.949 607.083 192.949 603.779 192.949C603.779 192.391 603.779 191.833 603.779 191.259C604.616 191.259 605.452 191.259 606.314 191.259C606.314 182.196 606.314 173.133 606.314 163.796C605.478 163.796 604.641 163.796 603.779 163.796C603.779 163.238 603.779 162.681 603.779 162.106C604.659 162.035 605.54 161.965 606.42 161.895C606.91 161.856 607.4 161.816 607.905 161.776C608.922 161.707 609.942 161.684 610.962 161.684Z" fill="#282828"/>
<path d="M455.48 99.9998C457.533 100.97 458.721 102.179 459.705 104.225C460.111 106.692 459.854 108.932 458.605 111.114C457.146 112.887 455.292 113.442 453.077 113.705C450.931 113.421 449.793 112.581 448.403 110.985C446.865 108.934 446.801 107.126 447.03 104.647C447.638 102.891 448.524 101.539 450.014 100.388C451.76 99.5605 453.612 99.7018 455.48 99.9998Z" fill="#282828"/>
<path d="M588.99 174.782C589.547 174.643 590.105 174.503 590.68 174.36C590.68 176.172 590.68 177.985 590.68 179.852C590.122 179.852 589.564 179.852 588.99 179.852C588.824 179.39 588.658 178.929 588.488 178.453C587.998 177.324 587.706 176.88 586.745 176.05C585.328 175.522 584.516 175.633 583.075 176.05C581.991 177.134 582.001 177.941 581.807 179.43C582.332 179.527 582.856 179.625 583.396 179.725C584.09 179.864 584.784 180.003 585.478 180.143C585.823 180.206 586.168 180.269 586.523 180.333C588.783 180.8 590.032 181.361 591.525 183.232C592.313 184.992 592.221 187.287 591.723 189.134C591.109 190.708 590.465 191.697 588.99 192.527C586.757 193.271 584.481 193.32 582.335 192.29C580.879 191.488 580.879 191.488 578.85 192.105C578.85 189.874 578.85 187.643 578.85 185.345C579.407 185.345 579.965 185.345 580.54 185.345C580.632 185.63 580.725 185.916 580.82 186.21C581.478 188.06 581.979 189.331 583.418 190.705C585.087 191.393 585.996 191.326 587.722 190.837C588.586 190.396 588.586 190.396 588.99 189.57C589.095 188.249 589.095 188.249 588.99 187.035C587.455 186.372 585.977 185.975 584.342 185.635C582.144 185.103 581.022 184.641 579.695 182.81C578.99 180.695 578.893 178.571 579.827 176.525C582.407 173.276 585.283 173.519 588.99 174.782Z" fill="#282828"/>
</g>
<defs>
<clipPath id="clip0_1046_267">
<rect width="507" height="186.322" fill="white" transform="translate(131 100)"/>
</clipPath>
</defs>
</svg>
