<svg width="760" height="400" viewBox="0 0 760 400" fill="none" xmlns="http://www.w3.org/2000/svg">
<path d="M447.876 137.279H432.732C431.875 137.279 431.303 137.851 431.303 138.708V181.282C423.874 172.424 412.445 167.567 399.016 167.567C373.3 167.567 354.156 188.711 354.156 216.998C354.156 244.999 373.586 266.143 399.016 266.143C413.017 266.143 424.732 261.286 431.875 252.428V262.715C431.875 263.572 432.446 264.143 433.303 264.143H447.876C448.733 264.143 449.304 263.572 449.304 262.715V138.708C449.304 137.851 448.733 137.279 447.876 137.279ZM431.303 216.712C431.303 234.713 418.731 248.428 402.159 248.428C385.587 248.428 372.443 234.999 372.443 216.712C372.443 198.14 385.015 184.996 402.159 184.996C419.303 184.996 431.303 198.997 431.303 216.712Z" fill="#282828"/>
<path d="M473.876 156.707C480.162 156.707 485.305 151.564 485.305 145.564C485.305 139.278 480.162 134.135 473.876 134.135C467.59 134.135 462.732 139.278 462.732 145.564C462.732 151.85 467.59 156.707 473.876 156.707Z" fill="#282828"/>
<path d="M481.305 169.281H466.161C465.372 169.281 464.732 169.921 464.732 170.71V262.715C464.732 263.504 465.372 264.144 466.161 264.144H481.305C482.094 264.144 482.733 263.504 482.733 262.715V170.71C482.733 169.921 482.094 169.281 481.305 169.281Z" fill="#282828"/>
<path d="M239.863 169.281C239.006 169.281 238.435 170.71 238.435 170.71C238.435 170.71 240.435 188.997 228.434 215.569C216.434 242.142 219.005 235.856 216.148 241.571C212.148 233.856 198.433 204.426 198.433 203.283C200.718 196.426 201.861 187.568 201.861 180.425V170.71C201.861 169.853 201.29 169.281 200.433 169.281H186.432C185.575 169.281 185.003 169.853 185.003 170.71V180.425C185.003 188.997 183.289 197.283 179.574 205.283C171.86 222.141 166.431 233.856 162.431 241.571C159.573 235.856 155.573 227.284 149.859 214.712C144.144 202.14 140.144 185.568 140.144 170.138C140.144 169.567 139.858 169.281 139.287 169.281H123.857C123.286 169.281 123 169.567 123 170.138C123 188.139 127 205.855 134.429 221.856C149.859 255.286 153.859 261.572 155.573 263.572C157.288 265.572 156.145 264.144 156.716 264.144H168.145C168.717 264.144 169.002 264.144 169.288 263.572C171.003 261.572 175.003 255.286 189.289 224.427C203.576 255.572 207.576 261.572 209.29 263.572C211.005 265.572 209.862 264.144 210.433 264.144H221.862C222.434 264.144 222.72 264.144 223.005 263.572C224.434 261.286 230.149 252.429 243.864 222.427C251.293 206.14 255.293 188.711 255.579 170.71C255.579 169.853 255.007 169.281 254.15 169.281H240.149H239.863Z" fill="#282828"/>
<path d="M260.439 238.712C260.439 217.568 276.154 212.711 297.298 208.139C313.299 204.71 323.299 203.853 325.299 198.424V196.996C325.299 189.281 319.585 183.281 305.013 183.281C290.44 183.281 282.726 196.138 282.44 200.424C282.154 204.71 281.868 201.567 281.011 201.567H263.867C263.01 201.567 262.439 200.996 262.439 200.139C263.867 179.852 280.44 167.565 305.013 167.565C329.3 167.565 343.586 178.423 343.586 202.424V249.284V262.999C343.586 263.856 343.015 264.428 342.157 264.428H325.871C325.014 264.428 324.442 263.856 324.442 262.999V249.57C318.156 260.713 306.155 266.142 292.44 266.142C272.154 266.142 259.867 254.999 259.867 238.998L260.439 238.712ZM325.014 225.569V213.854C319.299 217.854 309.298 219.568 299.869 221.568C289.012 224.426 280.154 227.854 280.154 237.855C280.154 247.855 285.869 250.999 296.441 250.999C307.013 250.999 325.014 243.284 325.014 225.569Z" fill="#282828"/>
<path d="M617.313 167.566C616.456 168.709 615.313 169.852 614.17 170.995C612.456 172.71 610.456 174.138 608.456 175.567C607.027 176.424 605.598 177.567 604.17 178.424C600.455 180.996 596.169 183.282 591.597 186.139C588.169 188.425 585.026 190.711 582.454 192.996C581.025 194.139 579.883 195.568 578.74 196.711C573.025 202.997 569.882 210.426 570.739 219.284C572.168 233.284 585.311 244.428 600.455 242.713C623.885 240.428 639.886 221.569 638.171 200.997C635.886 176.71 621.313 159.28 621.313 159.28C620.456 162.138 619.028 164.995 617.313 167.281V167.566Z" fill="#282828"/>
<path d="M595.026 259.572C570.739 259.572 551.024 240.142 551.024 216.426C551.024 192.711 575.597 174.71 584.454 170.424C625.885 150.994 609.313 141.851 601.312 139.851C595.026 138.136 588.169 137.279 581.311 137.565C547.309 138.708 520.736 165.566 518.451 198.711C516.165 231.856 546.166 268.143 583.597 268.143C621.028 268.143 635.028 244.142 639.6 236.713C644.172 229.284 640.743 234.999 640.457 235.284C633.314 243.285 615.884 259.572 594.74 259.572H595.026Z" fill="#282828"/>
</svg>
