<svg width="760" height="400" viewBox="0 0 760 400" fill="none" xmlns="http://www.w3.org/2000/svg">
<path d="M501.515 231.188C507.623 223.512 510.7 214.384 510.7 203.937C510.7 189.581 504.458 177.472 492.349 168.234C482.362 160.619 468.131 156 452.776 156C437.296 156 423.19 160.619 413.078 168.234C400.844 177.472 394.602 189.456 394.602 203.937C394.602 214.415 397.697 223.504 403.842 231.157L416.947 223.849C412.584 218.407 410.207 211.637 410.207 203.937C410.207 184.213 427.559 169.732 452.776 169.732C464.136 169.732 474.372 172.978 481.613 178.221C490.601 184.837 495.095 193.451 495.095 203.937C495.095 211.616 492.719 218.395 488.357 223.85L501.515 231.188Z" fill="#282828"/>
<path d="M127.992 210.179C127.992 222.787 122.624 233.024 111.888 240.888C103.275 247.255 91.1655 251 77.5585 251C63.9514 251 51.7175 247.13 43.1038 240.888C32.3679 233.024 27 222.787 27 210.179C27 197.82 32.3679 187.583 43.2286 179.719C51.9671 173.352 64.3259 169.357 77.5585 169.357C90.791 169.357 103.025 173.352 111.763 179.719C122.499 187.583 127.992 197.82 127.992 210.179ZM112.388 210.179C112.388 194.574 98.2812 182.965 77.5585 182.965C56.7109 182.965 42.4796 194.699 42.4796 210.179C42.4796 226.282 56.2116 237.518 77.5585 237.518C98.7805 237.518 112.388 226.282 112.388 210.179Z" fill="#282828"/>
<path d="M719.357 191.453C709.121 186.085 698.51 183.589 686.775 183.589C669.798 183.589 661.184 186.71 661.184 192.702C661.184 201.066 674.791 199.817 697.012 202.064C721.105 204.436 732.715 209.929 732.715 225.159C732.715 241.512 717.735 251 689.647 251C669.923 251 654.318 246.631 642.334 237.518L650.448 226.907C660.81 234.147 674.042 238.017 689.397 238.017C707.124 238.017 716.611 233.148 716.611 225.908C716.611 221.913 713.74 218.917 707.873 217.294C699.509 214.922 687.649 215.671 673.168 214.298C654.318 212.551 645.455 206.558 645.455 194.325C645.455 179.844 660.185 170.481 686.526 170.481C703.753 170.481 717.859 174.226 728.595 181.716L719.357 191.453Z" fill="#282828"/>
<path d="M623.638 249.252H601.293L549.112 185.212V249.252H534.131V172.478H556.477L608.658 236.519V172.478H623.638V249.252Z" fill="#282828"/>
<path d="M379.297 249.252H293.535V235.645L354.954 186.085H294.409V172.478H376.426V186.085L314.882 235.645H379.297V249.252Z" fill="#282828"/>
<path d="M276.155 249.252H261.175V172.478H276.155V249.252Z" fill="#282828"/>
<path d="M240.009 249.252H222.781L202.683 221.039H164.608V249.252H149.628V172.478H211.671C228.024 172.478 238.386 182.091 238.386 196.821C238.386 209.18 231.769 217.419 219.286 220.166L240.009 249.252ZM209.424 207.432C218.412 207.432 223.031 203.812 223.031 197.071C223.031 189.456 218.412 186.085 208.55 186.085H164.608V207.432H209.424Z" fill="#282828"/>
</svg>
