<svg width="760" height="400" viewBox="0 0 760 400" fill="none" xmlns="http://www.w3.org/2000/svg">
<path d="M142.321 136.951C142.321 137.069 142.321 137.186 142.321 137.308C142.423 137.351 142.525 137.395 142.631 137.44C145.606 139.095 147.112 143.938 148.007 146.977C150.295 155.09 150.295 155.09 150.169 158.355C150.069 158.343 149.968 158.331 149.865 158.318C133.724 156.511 117.004 164.595 103.615 172.803C103.462 172.897 103.308 172.99 103.149 173.087C99.4367 175.363 95.8521 177.848 92.3783 180.472C92.2719 180.552 92.1655 180.633 92.0558 180.715C89.9064 182.335 87.7872 184.011 85.8031 185.831C85.4619 186.144 85.1152 186.447 84.7643 186.749C84.0225 187.395 83.3008 188.064 82.5793 188.733C82.4588 188.844 82.3383 188.955 82.2141 189.07C82.1012 189.175 81.9884 189.28 81.8721 189.389C81.7701 189.483 81.668 189.578 81.5628 189.676C81.2992 189.921 81.2992 189.921 81.1412 190.283C81.0235 190.283 80.9058 190.283 80.7845 190.283C80.7388 190.387 80.693 190.492 80.6459 190.6C80.4078 191.032 80.1522 191.295 79.7923 191.631C79.0059 192.401 78.312 193.222 77.6313 194.086C77.4649 194.297 77.2976 194.507 77.1298 194.717C72.5976 200.402 69.141 207.101 69.5474 214.54C69.8314 216.865 70.8679 218.858 72.4013 220.605C72.5011 220.721 72.6009 220.838 72.7037 220.958C77.9806 226.68 87.637 227.754 94.9403 228.08C96.8685 228.146 98.799 228.14 100.728 228.141C100.851 228.141 100.974 228.141 101.1 228.141C104.999 228.143 108.839 228.024 112.712 227.561C113.165 227.513 113.619 227.465 114.072 227.417C126.39 226.058 138.406 222.784 150.12 218.84C150.733 218.634 151.346 218.429 151.96 218.226C153.259 217.796 154.551 217.353 155.832 216.87C156.007 216.805 156.181 216.739 156.361 216.672C158.329 215.926 160.28 215.141 162.232 214.355C162.487 214.252 162.742 214.15 162.997 214.047C163.12 213.997 163.244 213.947 163.372 213.896C164.132 213.59 164.896 213.295 165.662 213.005C166.524 212.675 167.363 212.313 168.2 211.925C168.792 211.653 169.389 211.394 169.987 211.136C170.098 211.088 170.209 211.04 170.323 210.991C170.779 210.795 171.234 210.599 171.69 210.404C174.314 209.277 176.89 208.058 179.458 206.808C179.855 206.615 180.252 206.422 180.649 206.229C182.166 205.492 183.678 204.745 185.186 203.989C185.767 203.697 186.349 203.409 186.932 203.121C188.798 202.199 190.642 201.251 192.46 200.237C193.51 199.652 194.573 199.106 195.652 198.577C196.279 198.263 196.889 197.923 197.495 197.568C197.793 197.417 197.793 197.417 198.149 197.417C197.492 195.513 196.797 193.63 196.049 191.76C195.756 191.026 195.465 190.291 195.174 189.556C195.081 189.321 195.081 189.321 194.986 189.082C194.232 187.178 193.493 185.269 192.754 183.36C192.683 183.177 192.612 182.994 192.539 182.806C192.177 181.87 191.815 180.934 191.452 179.997C190.802 178.317 190.151 176.637 189.5 174.958C189.289 174.413 189.078 173.868 188.867 173.323C188.175 171.537 187.48 169.753 186.779 167.971C186.644 167.628 186.509 167.285 186.374 166.942C186.122 166.3 185.868 165.658 185.614 165.017C185.502 164.731 185.389 164.445 185.277 164.159C185.226 164.029 185.174 163.9 185.121 163.767C184.916 163.243 184.772 162.847 184.772 162.279C184.654 162.279 184.537 162.279 184.415 162.279C184.323 162.591 184.323 162.591 184.229 162.909C183.841 164.069 183.301 165.159 182.773 166.26C182.45 166.936 182.129 167.614 181.808 168.291C181.742 168.43 181.676 168.569 181.609 168.712C180.962 170.08 180.334 171.457 179.711 172.836C178.732 175 177.743 177.158 176.746 179.313C175.702 181.568 174.667 183.827 173.641 186.09C172.649 188.28 171.642 190.463 170.631 192.645C169.938 194.139 169.249 195.635 168.585 197.143C168.533 197.26 168.481 197.378 168.428 197.499C168.19 198.038 167.955 198.576 167.722 199.117C164.7 205.998 158.607 210.266 151.774 212.935C144.473 215.659 135.053 218.787 127.16 218.464C128.594 215.201 130.171 212.026 131.839 208.877C132.426 207.765 133.003 206.649 133.581 205.533C134.359 204.031 135.14 202.531 135.93 201.035C136.58 199.802 137.221 198.565 137.862 197.328C138.571 195.958 139.282 194.59 140.002 193.226C140.824 191.67 141.633 190.108 142.443 188.545C143.381 186.733 144.325 184.923 145.27 183.114C145.714 182.263 146.158 181.412 146.602 180.562C146.78 180.22 146.958 179.878 147.137 179.536C147.225 179.367 147.313 179.198 147.404 179.023C148.207 177.485 148.207 177.485 148.474 176.972C148.653 176.63 148.832 176.287 149.01 175.945C149.452 175.099 149.893 174.253 150.335 173.407C151.301 171.558 152.264 169.706 153.223 167.853C153.994 166.366 154.768 164.88 155.551 163.399C156.311 161.958 157.059 160.51 157.808 159.062C158.405 157.91 159.005 156.76 159.611 155.613C160.367 154.183 161.11 152.747 161.852 151.31C162.662 149.741 163.475 148.175 164.3 146.615C164.947 145.389 165.584 144.158 166.222 142.926C166.977 141.468 167.733 140.01 168.496 138.556C168.569 138.418 168.641 138.279 168.716 138.137C168.995 137.605 169.278 137.094 169.611 136.594C170.137 136.524 170.137 136.524 170.826 136.52C171.016 136.518 171.016 136.518 171.209 136.516C171.635 136.512 172.06 136.511 172.486 136.511C172.791 136.509 173.095 136.506 173.399 136.504C174.228 136.497 175.056 136.495 175.885 136.493C176.402 136.492 176.919 136.49 177.437 136.488C179.241 136.481 181.045 136.477 182.849 136.476C184.531 136.474 186.214 136.465 187.897 136.453C189.34 136.443 190.784 136.439 192.228 136.438C193.09 136.438 193.953 136.435 194.816 136.427C195.627 136.419 196.438 136.419 197.25 136.423C197.548 136.424 197.846 136.422 198.144 136.417C200.396 136.384 200.396 136.384 201.014 136.902C201.251 137.272 201.399 137.606 201.538 138.021C201.643 138.221 201.747 138.42 201.854 138.626C201.997 138.923 201.997 138.923 202.142 139.226C202.195 139.335 202.247 139.445 202.302 139.558C202.472 139.911 202.641 140.265 202.809 140.619C202.929 140.867 203.048 141.116 203.167 141.364C203.463 141.98 203.758 142.596 204.053 143.213C204.285 143.699 204.517 144.184 204.75 144.669C205.067 145.331 205.383 145.993 205.699 146.655C206.21 147.724 206.722 148.792 207.235 149.86C207.324 150.046 207.413 150.231 207.505 150.422C207.685 150.798 207.866 151.173 208.046 151.549C208.493 152.48 208.94 153.411 209.387 154.342C209.565 154.713 209.743 155.085 209.922 155.457C210.278 156.2 210.635 156.943 210.992 157.686C211.124 157.962 211.124 157.962 211.259 158.243C211.438 158.615 211.616 158.987 211.795 159.359C212.238 160.282 212.681 161.205 213.126 162.126C213.872 163.674 214.616 165.221 215.337 166.78C215.388 166.889 215.438 166.998 215.491 167.111C215.733 167.635 215.975 168.159 216.215 168.684C216.765 169.877 217.337 171.056 217.927 172.228C218.627 173.621 219.308 175.023 219.988 176.426C220.054 176.561 220.119 176.696 220.187 176.835C221.177 178.875 222.159 180.917 223.121 182.97C224.204 182.678 225.113 182.113 226.075 181.554C227.466 180.756 228.864 179.982 230.289 179.246C231.441 178.651 232.566 178.034 233.68 177.369C234.34 176.992 235.02 176.66 235.703 176.325C236.465 175.948 237.209 175.543 237.947 175.121C239.268 174.368 240.607 173.651 241.95 172.936C243.557 172.081 245.151 171.208 246.732 170.306C247.986 169.589 249.244 168.912 250.542 168.279C251.289 167.904 252.013 167.492 252.738 167.077C254.194 166.251 255.674 165.47 257.153 164.686C258.334 164.057 259.495 163.406 260.648 162.727C261.195 162.41 261.747 162.129 262.317 161.855C263.954 161.049 265.534 160.144 267.112 159.228C268.313 158.533 269.524 157.879 270.773 157.273C271.411 156.959 272.035 156.62 272.66 156.282C272.768 156.224 272.875 156.166 272.986 156.106C273.25 155.964 273.513 155.822 273.777 155.679C273.793 159.016 273.806 162.353 273.814 165.689C273.817 167.238 273.822 168.788 273.831 170.337C273.838 171.687 273.842 173.037 273.844 174.387C273.845 175.102 273.847 175.817 273.852 176.532C273.857 177.205 273.859 177.878 273.857 178.551C273.858 178.798 273.859 179.045 273.862 179.292C273.865 179.629 273.864 179.966 273.863 180.303C273.864 180.586 273.864 180.586 273.865 180.875C273.754 181.49 273.541 181.689 273.063 182.078C272.759 182.277 272.447 182.465 272.13 182.645C271.945 182.75 271.76 182.856 271.569 182.965C271.371 183.077 271.172 183.189 270.967 183.304C270.759 183.423 270.55 183.542 270.341 183.661C270.02 183.845 269.698 184.028 269.376 184.211C268.334 184.804 267.298 185.407 266.263 186.013C265.91 186.219 265.556 186.426 265.203 186.632C265.028 186.734 264.854 186.836 264.674 186.941C263.785 187.461 262.895 187.98 262.005 188.499C261.648 188.707 261.291 188.915 260.934 189.123C241.671 200.36 241.671 200.36 241.135 200.673C240.781 200.879 240.427 201.086 240.073 201.293C239.141 201.836 238.21 202.379 237.277 202.92C236.986 203.089 236.986 203.089 236.69 203.261C236.319 203.477 235.949 203.692 235.578 203.907C235.326 204.053 235.326 204.053 235.07 204.202C234.923 204.287 234.777 204.372 234.626 204.46C234.11 204.772 233.61 205.106 233.109 205.444C234.473 208.448 235.839 211.451 237.212 214.451C238.192 216.593 239.168 218.736 240.142 220.88C240.764 222.251 241.388 223.621 242.016 224.989C242.254 225.508 242.492 226.028 242.73 226.547C242.789 226.676 242.848 226.804 242.909 226.937C243.885 229.068 244.838 231.208 245.785 233.351C246.62 235.238 247.477 237.112 248.36 238.977C249.356 241.083 250.322 243.202 251.269 245.331C251.331 245.47 251.394 245.61 251.458 245.753C251.635 246.15 251.81 246.546 251.986 246.943C252.038 247.06 252.09 247.177 252.144 247.297C252.437 247.962 252.682 248.631 252.908 249.322C249.616 249.349 246.324 249.376 243.033 249.401C241.504 249.412 239.976 249.424 238.447 249.437C237.114 249.449 235.781 249.459 234.448 249.469C233.743 249.474 233.038 249.48 232.333 249.486C231.668 249.492 231.002 249.497 230.337 249.501C229.98 249.504 229.622 249.507 229.264 249.511C227.978 249.518 226.718 249.467 225.44 249.322C225.221 249.299 225.002 249.275 224.777 249.251C222.412 248.945 220.124 248.383 218.54 246.46C217.671 245.289 217.125 244.047 216.588 242.7C215.902 240.988 215.212 239.277 214.517 237.568C213.272 234.51 212.036 231.448 210.803 228.385C210.591 227.859 210.38 227.334 210.168 226.809C209.959 226.291 209.751 225.773 209.542 225.255C209.445 225.014 209.348 224.773 209.251 224.532C209.182 224.362 209.182 224.362 209.112 224.189C209.045 224.022 209.045 224.022 208.976 223.852C208.845 223.525 208.714 223.198 208.583 222.872C208.395 222.403 208.204 221.935 208.011 221.468C207.962 221.346 207.912 221.224 207.861 221.098C207.765 220.864 207.669 220.63 207.572 220.397C207.37 219.899 207.246 219.543 207.246 219C207.061 219.095 206.876 219.19 206.685 219.288C202.54 221.42 198.384 223.531 194.217 225.619C193.747 225.855 193.277 226.091 192.807 226.327C189.794 227.841 186.762 229.301 183.696 230.707C183.109 230.976 182.523 231.249 181.938 231.522C170.157 237.019 157.933 241.729 145.353 245.041C145.203 245.08 145.053 245.12 144.899 245.161C136.899 247.259 128.798 248.709 120.571 249.545C120.426 249.56 120.281 249.574 120.132 249.59C116.408 249.966 112.697 250.078 108.955 250.08C108.744 250.08 108.533 250.08 108.316 250.08C97.5789 250.071 86.0746 248.597 76.5037 243.436C76.3391 243.348 76.1745 243.261 76.0049 243.171C75.5143 242.907 75.028 242.637 74.5417 242.365C74.2534 242.21 74.2534 242.21 73.9592 242.051C69.7336 239.72 65.871 236.396 62.9479 232.555C62.8197 232.388 62.8197 232.388 62.689 232.218C55.4906 222.773 51.8207 209.821 53.3384 197.986C54.5937 189.226 58.3058 180.828 63.483 173.694C63.5764 173.565 63.6698 173.436 63.766 173.302C64.8463 171.812 65.9719 170.404 67.2287 169.057C67.4378 168.82 67.6459 168.582 67.853 168.343C69.1493 166.858 70.4798 165.42 71.8773 164.029C72.0283 163.878 72.1792 163.726 72.3348 163.57C73.1237 162.782 73.9246 162.021 74.7704 161.294C75.1559 160.962 75.5282 160.617 75.9017 160.272C76.8006 159.461 77.743 158.718 78.6992 157.977C79.2464 157.552 79.7853 157.118 80.3227 156.681C83.9477 153.743 87.8411 151.074 91.8768 148.733C92.2269 148.529 92.5751 148.322 92.9232 148.115C103.369 141.904 115.037 136.963 127.16 135.346C127.305 135.326 127.45 135.307 127.6 135.287C128.463 135.174 129.326 135.075 130.192 134.989C130.414 134.966 130.414 134.966 130.64 134.942C134.804 134.528 138.743 134.566 142.321 136.951Z" fill="#282828"/>
<path d="M53.1387 261.807C120.888 261.807 188.636 261.807 258.438 261.807C258.438 267.81 258.438 273.814 258.438 280C190.689 280 122.941 280 53.1387 280C53.1387 273.996 53.1387 267.992 53.1387 261.807Z" fill="#282828"/>
<path d="M169.611 136.592C170.137 136.523 170.137 136.523 170.826 136.518C170.953 136.517 171.079 136.516 171.21 136.514C171.635 136.51 172.061 136.509 172.487 136.509C172.791 136.507 173.095 136.504 173.4 136.502C174.228 136.496 175.057 136.493 175.885 136.491C176.402 136.49 176.92 136.488 177.437 136.486C179.241 136.479 181.045 136.475 182.849 136.474C184.532 136.472 186.214 136.463 187.897 136.451C189.341 136.441 190.784 136.437 192.228 136.436C193.091 136.436 193.953 136.433 194.816 136.425C195.628 136.418 196.439 136.417 197.25 136.421C197.548 136.422 197.846 136.42 198.144 136.415C200.396 136.382 200.396 136.382 201.015 136.9C201.252 137.27 201.4 137.604 201.539 138.019C201.643 138.219 201.747 138.418 201.855 138.624C201.997 138.921 201.997 138.921 202.142 139.224C202.221 139.388 202.221 139.388 202.302 139.556C202.472 139.909 202.641 140.263 202.81 140.617C202.929 140.865 203.048 141.114 203.168 141.362C203.464 141.978 203.759 142.595 204.053 143.211C204.285 143.697 204.518 144.182 204.75 144.667C205.067 145.329 205.384 145.991 205.7 146.653C206.21 147.722 206.723 148.791 207.235 149.858C207.324 150.044 207.414 150.229 207.505 150.42C207.686 150.796 207.866 151.172 208.046 151.547C208.493 152.478 208.94 153.409 209.387 154.34C209.565 154.711 209.744 155.083 209.922 155.455C210.279 156.198 210.636 156.941 210.992 157.684C211.125 157.96 211.125 157.96 211.26 158.241C211.438 158.613 211.617 158.986 211.795 159.358C212.238 160.28 212.681 161.203 213.126 162.125C213.872 163.672 214.616 165.219 215.338 166.778C215.388 166.887 215.439 166.996 215.491 167.109C215.733 167.633 215.975 168.157 216.216 168.682C216.765 169.875 217.337 171.054 217.927 172.227C218.628 173.619 219.308 175.021 219.989 176.424C220.054 176.559 220.12 176.694 220.188 176.834C221.088 178.688 221.982 180.545 222.859 182.411C223.003 182.717 223.148 183.022 223.3 183.324C223.177 183.392 223.054 183.46 222.928 183.53C219.1 185.654 215.277 187.786 211.467 189.943C210.211 190.654 208.952 191.36 207.693 192.064C204.555 193.82 201.419 195.577 198.328 197.415C198.077 196.927 197.858 196.436 197.657 195.924C197.566 195.693 197.566 195.693 197.474 195.457C197.376 195.206 197.376 195.206 197.276 194.95C197.206 194.773 197.137 194.595 197.065 194.413C196.836 193.827 196.606 193.241 196.377 192.655C196.216 192.243 196.055 191.831 195.894 191.419C194.4 187.602 192.918 183.781 191.438 179.958C190.793 178.291 190.147 176.625 189.501 174.958C189.29 174.412 189.078 173.866 188.867 173.32C188.175 171.535 187.48 169.751 186.779 167.97C186.644 167.627 186.51 167.283 186.375 166.94C186.122 166.298 185.869 165.656 185.615 165.015C185.502 164.729 185.39 164.443 185.278 164.157C185.226 164.028 185.174 163.898 185.121 163.765C184.916 163.241 184.772 162.845 184.772 162.277C184.655 162.277 184.537 162.277 184.416 162.277C184.323 162.589 184.323 162.589 184.229 162.907C183.841 164.067 183.302 165.157 182.774 166.258C182.45 166.934 182.129 167.612 181.809 168.289C181.743 168.428 181.677 168.567 181.609 168.71C180.962 170.078 180.335 171.455 179.711 172.834C178.733 174.998 177.743 177.156 176.746 179.311C175.703 181.567 174.667 183.825 173.642 186.088C172.649 188.278 171.643 190.461 170.631 192.643C169.939 194.137 169.249 195.633 168.586 197.141C168.534 197.258 168.482 197.376 168.428 197.497C168.191 198.036 167.955 198.575 167.722 199.115C164.7 205.996 158.608 210.264 151.775 212.933C144.474 215.657 135.054 218.785 127.16 218.463C128.595 215.199 130.172 212.024 131.839 208.875C132.427 207.764 133.004 206.647 133.581 205.531C134.359 204.029 135.141 202.529 135.931 201.033C136.581 199.8 137.222 198.563 137.862 197.326C138.571 195.956 139.282 194.588 140.003 193.224C140.824 191.668 141.634 190.106 142.443 188.543C143.382 186.731 144.325 184.921 145.27 183.112C145.714 182.262 146.158 181.411 146.602 180.56C146.78 180.218 146.959 179.876 147.137 179.534C147.225 179.365 147.314 179.196 147.405 179.021C148.207 177.483 148.207 177.483 148.475 176.97C148.653 176.628 148.832 176.285 149.011 175.943C149.452 175.097 149.894 174.251 150.335 173.406C151.301 171.556 152.264 169.704 153.224 167.851C153.994 166.364 154.769 164.879 155.551 163.397C156.311 161.956 157.06 160.508 157.809 159.06C158.406 157.908 159.005 156.758 159.612 155.611C160.367 154.181 161.11 152.745 161.852 151.308C162.662 149.739 163.475 148.173 164.3 146.613C164.947 145.387 165.585 144.156 166.222 142.924C166.978 141.466 167.734 140.009 168.497 138.554C168.569 138.416 168.641 138.277 168.716 138.135C168.995 137.603 169.278 137.092 169.611 136.592Z" fill="#282828"/>
<path d="M585.952 212.377C586.353 212.378 586.753 212.377 587.154 212.376C589.514 212.375 591.852 212.44 594.169 212.935C594.437 212.993 594.437 212.993 594.711 213.051C599.978 214.233 605.172 216.324 609.285 219.892C609.535 220.106 609.535 220.106 609.789 220.324C610.719 221.138 610.719 221.138 611.069 221.497C611.069 221.615 611.069 221.733 611.069 221.854C611.186 221.854 611.304 221.854 611.425 221.854C611.92 222.385 612.361 222.961 612.808 223.533C613.02 223.802 613.235 224.069 613.449 224.335C617.281 229.219 618.411 235.975 617.757 242.047C617.128 246.998 615.284 251.496 612.139 255.387C612.021 255.534 611.903 255.682 611.781 255.835C609.857 258.106 607.452 259.745 604.826 261.094C604.614 261.207 604.403 261.319 604.192 261.432C595.571 265.919 584.993 265.979 575.752 263.591C575.539 263.537 575.325 263.482 575.105 263.426C569.07 261.719 563.382 257.693 560.056 252.354C559.992 252.252 559.928 252.15 559.862 252.045C556.393 246.422 555.085 239.211 556.494 232.713C556.55 232.482 556.608 232.251 556.667 232.021C556.713 231.842 556.713 231.842 556.76 231.66C558.178 226.348 561.454 221.55 565.897 218.286C566.024 218.193 566.15 218.101 566.28 218.005C566.642 217.74 567.005 217.478 567.369 217.216C567.605 217.042 567.605 217.042 567.846 216.864C570.771 214.844 574.275 213.826 577.714 213.114C577.86 213.083 578.006 213.053 578.156 213.021C580.743 212.493 583.319 212.37 585.952 212.377ZM574.793 225.789C574.575 226.02 574.359 226.254 574.147 226.491C574.056 226.592 573.966 226.693 573.872 226.797C570.917 230.408 569.948 235.688 570.223 240.226C570.235 240.432 570.248 240.639 570.26 240.852C570.712 245.497 572.952 249.986 576.494 253.025C579.734 255.576 584.28 256.948 588.416 256.635C588.64 256.621 588.865 256.606 589.096 256.591C593.792 256.21 597.308 254.095 600.367 250.571C600.902 249.908 601.281 249.214 601.615 248.43C601.667 248.311 601.718 248.191 601.771 248.068C603.342 244.345 604.075 240.33 603.577 236.301C603.562 236.173 603.546 236.044 603.53 235.912C603.113 232.609 602.175 229.454 600.01 226.848C599.925 226.737 599.84 226.627 599.753 226.513C596.691 222.715 592.17 221.471 587.524 220.962C582.659 220.962 578.323 222.386 574.793 225.789Z" fill="#282828"/>
<path d="M400.953 144.62C407.288 144.612 413.623 144.605 420.15 144.598C423.147 144.593 423.147 144.593 426.204 144.588C428.65 144.586 428.65 144.586 429.796 144.586C430.594 144.585 431.392 144.584 432.19 144.582C433.21 144.58 434.229 144.579 435.249 144.579C435.622 144.579 435.995 144.579 436.368 144.577C438.944 144.568 441.438 144.593 443.873 145.545C444.088 145.628 444.088 145.628 444.308 145.712C447.948 147.145 451.095 149.83 452.858 153.36C454.146 156.432 454.82 160.169 453.614 163.374C453.504 163.626 453.504 163.626 453.393 163.883C453.325 164.053 453.258 164.223 453.189 164.398C451.291 168.693 447.43 171.144 443.226 172.802C443.049 172.861 442.873 172.919 442.691 172.98C444.135 175.208 445.587 177.43 447.049 179.646C447.574 180.442 448.098 181.237 448.622 182.033C448.726 182.19 448.83 182.348 448.936 182.51C449.552 183.444 450.166 184.379 450.778 185.314C450.85 185.425 450.922 185.535 450.996 185.648C451.271 186.069 451.547 186.49 451.822 186.911C452.586 188.081 453.356 189.247 454.136 190.408C454.249 190.577 454.249 190.577 454.365 190.749C454.727 191.29 455.091 191.83 455.456 192.369C455.583 192.558 455.711 192.747 455.842 192.942C456.011 193.193 456.011 193.193 456.184 193.448C456.425 193.849 456.425 193.849 456.425 194.206C443.369 195.53 443.369 195.53 440.619 193.464C438.863 191.795 437.825 189.53 437.011 187.28C436.624 186.26 436.027 185.443 435.378 184.574C435.144 184.23 434.912 183.885 434.682 183.538C434.563 183.361 434.445 183.183 434.323 183C434.204 182.82 434.085 182.641 433.962 182.456C433.844 182.278 433.725 182.099 433.603 181.916C433.115 181.183 432.628 180.45 432.141 179.716C432.017 179.53 431.893 179.343 431.765 179.15C431.654 178.983 431.543 178.815 431.428 178.643C430.989 177.992 430.532 177.354 430.071 176.719C429.848 176.369 429.848 176.369 429.848 176.012C425.846 176.012 421.843 176.012 417.72 176.012C418.011 175.285 418.332 174.603 418.698 173.913C418.758 173.799 418.818 173.685 418.881 173.567C419.008 173.326 419.136 173.086 419.264 172.845C419.457 172.482 419.648 172.118 419.839 171.753C421.761 168.119 421.761 168.119 423.11 167.678C424.192 167.473 425.219 167.408 426.319 167.428C426.486 167.43 426.653 167.431 426.826 167.432C427.531 167.438 428.237 167.448 428.942 167.458C432.109 167.498 435.316 167.481 437.875 165.312C439.28 163.899 440.024 162.403 440.082 160.416C440.029 158.426 439.368 156.863 438.042 155.389C432.714 150.37 416.534 153.181 414.152 153.181C414.093 166.719 414.035 180.257 413.974 194.206C409.677 194.206 405.38 194.206 400.953 194.206C400.953 177.842 400.953 161.479 400.953 144.62Z" fill="#282828"/>
<path d="M415.219 213.29C420.671 213.279 426.123 213.268 431.74 213.257C433.455 213.252 435.17 213.247 436.937 213.242C439.047 213.239 439.047 213.239 440.039 213.239C440.724 213.239 441.41 213.237 442.095 213.234C449.263 213.204 457.202 213.268 462.664 218.641C462.773 218.735 462.882 218.829 462.994 218.926C465.191 220.887 466.409 224.129 466.613 227.019C466.798 231.078 465.786 234.576 463.042 237.657C461.26 239.542 458.595 240.908 456.065 241.472C455.829 241.472 455.594 241.472 455.351 241.472C458.189 245.798 461.042 250.112 463.947 254.394C465.132 256.143 466.297 257.902 467.438 259.68C467.885 260.374 468.337 261.065 468.792 261.753C469.264 262.479 469.264 262.479 469.264 262.876C467.442 262.901 465.62 262.92 463.798 262.931C462.952 262.937 462.106 262.945 461.26 262.957C460.444 262.968 459.627 262.975 458.811 262.977C458.499 262.979 458.188 262.983 457.877 262.989C457.44 262.997 457.004 262.998 456.568 262.997C456.439 263.001 456.31 263.005 456.178 263.009C455.678 263.003 455.288 262.974 454.898 262.644C454.657 262.358 454.657 262.358 454.281 261.806C454.188 261.673 454.094 261.54 453.998 261.403C453.919 261.28 453.84 261.158 453.758 261.031C453.234 260.231 452.682 259.457 452.118 258.684C451.345 257.619 450.578 256.55 449.822 255.474C448.982 254.279 448.13 253.093 447.274 251.91C446.474 250.805 445.678 249.697 444.887 248.585C444.615 248.203 444.342 247.821 444.069 247.44C443.873 247.164 443.676 246.888 443.479 246.611C443.385 246.481 443.291 246.35 443.195 246.216C443.108 246.094 443.021 245.971 442.932 245.845C442.854 245.737 442.777 245.629 442.697 245.517C442.509 245.218 442.509 245.218 442.33 244.683C438.563 244.683 434.796 244.683 430.915 244.683C432.711 241.091 432.711 241.091 433.423 239.755C433.508 239.59 433.594 239.425 433.681 239.254C434.22 238.248 434.764 237.463 435.731 236.834C435.879 236.738 436.027 236.642 436.179 236.543C437.063 236.197 437.879 236.224 438.82 236.227C439.016 236.225 439.211 236.223 439.412 236.221C440.036 236.215 440.659 236.212 441.283 236.21C442.101 236.208 442.918 236.202 443.736 236.193C444.013 236.194 444.013 236.194 444.296 236.195C446.736 236.17 449.16 235.5 450.946 233.759C452.367 231.999 452.859 230.346 452.676 228.095C452.282 226.445 451.478 224.738 450 223.814C448.156 222.799 446.318 222.508 444.232 222.525C444.06 222.525 443.887 222.525 443.71 222.525C443.147 222.525 442.584 222.528 442.022 222.53C441.629 222.531 441.236 222.531 440.842 222.532C439.814 222.533 438.785 222.537 437.756 222.541C436.703 222.544 435.651 222.546 434.599 222.548C432.539 222.552 430.478 222.558 428.418 222.565C428.418 222.772 428.418 222.978 428.418 223.191C428.422 228.092 428.425 232.993 428.427 237.894C428.427 238.497 428.427 239.099 428.428 239.702C428.428 239.822 428.428 239.942 428.428 240.065C428.429 242.01 428.43 243.956 428.432 245.901C428.433 247.895 428.434 249.889 428.435 251.884C428.435 253.005 428.435 254.126 428.437 255.246C428.438 256.3 428.438 257.354 428.438 258.407C428.438 258.795 428.438 259.183 428.439 259.571C428.44 260.098 428.44 260.625 428.439 261.153C428.44 261.308 428.44 261.464 428.441 261.624C428.438 262.677 428.438 262.677 428.239 262.876C423.943 262.876 419.646 262.876 415.219 262.876C415.219 246.513 415.219 230.149 415.219 213.29Z" fill="#282828"/>
<path d="M379.526 212.143C379.768 212.144 380.011 212.145 380.253 212.145C383.871 212.157 387.398 212.278 390.964 212.935C391.222 212.981 391.48 213.028 391.738 213.074C392.548 213.221 393.356 213.377 394.163 213.537C394.285 213.561 394.407 213.585 394.533 213.61C396.509 214.006 398.307 214.61 400.239 215.254C400.239 218.197 400.239 221.14 400.239 224.172C398.642 223.972 398.642 223.972 397.878 223.741C395.584 223.072 393.306 222.552 390.953 222.154C390.824 222.132 390.696 222.11 390.564 222.088C387.921 221.641 385.278 221.248 382.592 221.262C382.389 221.263 382.186 221.264 381.978 221.265C378.816 221.306 375.619 221.622 372.592 222.567C372.308 222.653 372.308 222.653 372.017 222.742C368.307 224.015 364.588 226.772 362.803 230.335C360.884 234.67 360.494 239.589 361.89 244.149C361.953 244.354 362.015 244.558 362.08 244.769C362.285 245.354 362.519 245.907 362.782 246.468C362.834 246.578 362.885 246.689 362.938 246.803C364.743 250.563 368.13 253.398 372.052 254.798C373.563 255.281 375.123 255.549 376.695 255.743C376.926 255.774 377.157 255.806 377.395 255.838C378.6 255.969 379.81 255.965 381.02 255.966C381.146 255.966 381.272 255.966 381.402 255.966C383.557 255.964 385.638 255.81 387.753 255.386C387.969 255.343 387.969 255.343 388.189 255.299C389.788 254.974 391.35 254.567 392.926 254.138C392.926 250.194 392.926 246.25 392.926 242.187C386.922 242.187 380.918 242.187 374.732 242.187C374.979 241.449 375.145 240.964 375.53 240.332C375.616 240.189 375.702 240.046 375.791 239.899C375.883 239.749 375.975 239.599 376.07 239.445C376.165 239.289 376.26 239.133 376.358 238.972C376.554 238.652 376.749 238.333 376.946 238.014C377.21 237.582 377.47 237.148 377.73 236.713C377.883 236.46 378.035 236.208 378.188 235.955C378.256 235.841 378.324 235.726 378.394 235.608C378.889 234.8 379.477 234.01 380.412 233.692C380.875 233.612 381.313 233.604 381.783 233.604C381.984 233.604 382.185 233.603 382.391 233.603C382.61 233.604 382.83 233.605 383.056 233.605C383.287 233.605 383.519 233.605 383.757 233.605C384.391 233.605 385.025 233.606 385.66 233.607C386.323 233.608 386.986 233.609 387.649 233.609C388.904 233.609 390.159 233.611 391.414 233.613C392.843 233.615 394.272 233.616 395.701 233.616C398.641 233.618 401.58 233.621 404.52 233.625C404.54 237.128 404.556 240.63 404.566 244.133C404.57 245.759 404.577 247.385 404.587 249.011C404.596 250.428 404.602 251.845 404.604 253.262C404.605 254.013 404.607 254.764 404.614 255.514C404.62 256.22 404.622 256.926 404.621 257.632C404.621 257.892 404.623 258.151 404.626 258.411C404.63 258.765 404.629 259.118 404.627 259.472C404.628 259.67 404.629 259.868 404.629 260.072C404.52 260.559 404.52 260.559 404.101 260.883C403.565 261.122 403.048 261.279 402.479 261.421C402.311 261.463 402.311 261.463 402.14 261.506C401.77 261.597 401.401 261.686 401.03 261.774C400.902 261.805 400.774 261.836 400.641 261.867C397.562 262.605 394.453 263.135 391.321 263.591C391.115 263.621 390.909 263.651 390.696 263.682C383.75 264.662 376.943 264.562 370.003 263.667C369.508 263.606 369.014 263.558 368.517 263.516C367.609 263.418 366.773 263.121 365.915 262.822C365.758 262.769 365.602 262.716 365.44 262.662C358.87 260.42 353.122 256.734 349.94 250.392C348.927 248.186 348.055 245.991 347.599 243.603C347.568 243.452 347.538 243.301 347.507 243.145C346.31 237.034 347.381 230.504 350.814 225.258C350.937 225.076 351.061 224.894 351.188 224.707C351.313 224.512 351.439 224.318 351.568 224.117C355.13 218.722 360.872 215.259 367.01 213.584C367.373 213.483 367.735 213.374 368.096 213.264C371.82 212.169 375.674 212.125 379.526 212.143Z" fill="#282828"/>
<path d="M550.241 144.618C550.477 144.617 550.477 144.617 550.717 144.617C550.849 144.616 550.982 144.616 551.119 144.615C558.427 144.727 565.981 147.771 571.315 152.77C575.595 157.292 577.717 163.31 577.575 169.478C577.346 176.112 575.733 181.818 571.115 186.715C570.967 186.873 570.82 187.03 570.668 187.192C569.186 188.648 567.389 189.635 565.585 190.639C565.46 190.71 565.334 190.78 565.205 190.853C562.16 192.54 558.842 193.478 555.418 194.028C555.231 194.059 555.044 194.089 554.851 194.12C554.175 194.206 553.53 194.229 552.848 194.228C552.721 194.228 552.595 194.229 552.464 194.229C552.041 194.229 551.618 194.228 551.196 194.227C550.886 194.227 550.577 194.227 550.268 194.227C549.442 194.227 548.616 194.226 547.791 194.225C547.015 194.224 546.239 194.224 545.464 194.224C543.197 194.223 540.93 194.22 538.663 194.218C533.597 194.214 528.532 194.211 523.312 194.207C523.312 177.902 523.312 161.598 523.312 144.799C527.631 144.77 531.95 144.74 536.4 144.71C537.762 144.701 539.124 144.692 540.527 144.682C542.195 144.671 542.195 144.671 542.976 144.665C543.52 144.662 544.064 144.658 544.608 144.654C545.304 144.649 545.999 144.645 546.694 144.64C546.949 144.638 547.203 144.637 547.457 144.635C548.385 144.628 549.313 144.623 550.241 144.618ZM536.155 153.183C536.137 153.602 536.132 154.017 536.133 154.436C536.133 154.569 536.133 154.702 536.133 154.839C536.133 155.287 536.134 155.735 536.135 156.183C536.135 156.503 536.135 156.822 536.135 157.142C536.134 158.013 536.136 158.885 536.137 159.756C536.138 160.665 536.138 161.575 536.138 162.484C536.139 164.207 536.14 165.93 536.142 167.654C536.144 169.615 536.145 171.576 536.146 173.538C536.148 177.574 536.151 181.609 536.155 185.645C536.844 185.835 537.5 185.851 538.211 185.852C538.345 185.853 538.48 185.854 538.618 185.855C539.063 185.858 539.508 185.859 539.953 185.86C540.106 185.86 540.259 185.861 540.416 185.861C541.228 185.864 542.04 185.866 542.852 185.866C543.683 185.867 544.513 185.872 545.344 185.877C545.989 185.88 546.634 185.881 547.279 185.881C547.585 185.882 547.891 185.883 548.196 185.886C552.28 185.915 556.159 185.31 559.234 182.385C560.295 181.27 561.086 180.026 561.84 178.689C561.935 178.522 562.03 178.356 562.129 178.184C564.535 173.709 564.949 168.681 563.595 163.823C563.217 162.633 562.651 161.566 562.018 160.496C561.936 160.347 561.854 160.199 561.77 160.046C560.489 157.905 558.476 156.309 556.31 155.145C556.158 155.059 556.006 154.974 555.85 154.885C554.69 154.264 553.474 153.885 552.208 153.539C551.994 153.479 551.779 153.42 551.559 153.358C550.761 153.161 549.986 153.103 549.167 153.072C548.929 153.062 548.929 153.062 548.686 153.052C546.522 152.972 544.355 152.977 542.19 152.981C541.573 152.982 540.957 152.981 540.34 152.98C539.747 152.98 539.153 152.98 538.56 152.981C538.339 152.98 538.117 152.98 537.889 152.979C537.586 152.98 537.586 152.98 537.276 152.981C537.009 152.981 537.009 152.981 536.736 152.982C536.339 152.959 536.339 152.959 536.155 153.183Z" fill="#282828"/>
<path d="M305.347 213.112C307.617 213.091 309.887 213.075 312.156 213.066C313.21 213.061 314.264 213.055 315.318 213.045C316.335 213.035 317.351 213.03 318.368 213.027C318.756 213.026 319.145 213.022 319.533 213.018C320.076 213.011 320.619 213.01 321.161 213.011C321.323 213.007 321.484 213.004 321.651 213.001C322.062 213.004 322.427 213.014 322.827 213.112C323.184 213.537 323.184 213.537 323.362 214.004C323.436 214.148 323.509 214.292 323.585 214.441C323.658 214.593 323.732 214.746 323.807 214.903C323.891 215.077 323.975 215.252 324.061 215.431C324.15 215.619 324.24 215.806 324.332 215.999C324.474 216.297 324.474 216.297 324.619 216.601C325.54 218.532 326.437 220.475 327.33 222.42C327.941 223.751 328.556 225.081 329.17 226.411C329.238 226.558 329.306 226.705 329.375 226.857C330.779 229.899 332.188 232.939 333.597 235.979C334.108 237.08 334.618 238.18 335.128 239.281C336.827 242.948 336.827 242.948 338.528 246.614C340.538 250.939 342.543 255.267 344.52 259.608C344.639 259.868 344.758 260.128 344.876 260.388C345.039 260.745 345.201 261.102 345.364 261.459C345.455 261.66 345.547 261.862 345.641 262.069C345.836 262.519 345.836 262.519 345.836 262.698C341.363 262.698 336.889 262.698 332.28 262.698C330.834 259.599 330.834 259.599 330.361 258.565C330.305 258.443 330.249 258.321 330.192 258.196C330.015 257.809 329.837 257.422 329.66 257.035C329.567 256.831 329.567 256.831 329.473 256.624C328.504 254.504 327.549 252.378 326.606 250.246C325.919 248.695 325.226 247.146 324.532 245.597C324.467 245.452 324.402 245.306 324.335 245.157C323.213 242.649 322.089 240.141 320.965 237.634C320.485 236.565 320.006 235.496 319.527 234.427C319.334 233.996 319.141 233.565 318.947 233.134C317.648 230.235 317.648 230.235 316.349 227.337C316.3 227.228 316.251 227.12 316.201 227.008C315.821 226.16 315.441 225.313 315.062 224.465C315.009 224.348 314.956 224.23 314.902 224.109C314.85 223.993 314.798 223.878 314.745 223.758C314.693 223.643 314.641 223.528 314.588 223.41C314.302 222.771 314.016 222.133 313.73 221.495C312.824 223.259 311.974 225.046 311.144 226.846C310.483 228.279 309.815 229.705 309.097 231.11C308.53 232.231 308.011 233.374 307.487 234.516C306.896 235.807 306.301 237.095 305.659 238.362C304.933 239.801 304.25 241.262 303.563 242.721C309.567 242.721 315.571 242.721 321.757 242.721C321.448 243.492 321.093 244.18 320.674 244.892C320.603 245.013 320.531 245.135 320.458 245.26C320.307 245.517 320.155 245.774 320.003 246.03C319.775 246.417 319.549 246.805 319.324 247.194C317.157 250.887 317.157 250.887 314.979 251.639C314.434 251.728 313.906 251.73 313.356 251.72C313.126 251.72 313.126 251.72 312.891 251.72C312.39 251.72 311.889 251.714 311.388 251.709C311.039 251.707 310.689 251.706 310.34 251.706C309.424 251.703 308.508 251.696 307.592 251.688C306.656 251.681 305.72 251.677 304.784 251.674C302.95 251.666 301.116 251.654 299.282 251.639C299.258 251.775 299.233 251.911 299.208 252.05C299.078 252.652 298.841 253.148 298.577 253.703C298.523 253.818 298.469 253.932 298.413 254.05C298.239 254.417 298.064 254.784 297.889 255.151C296.669 257.717 295.479 260.296 294.288 262.876C289.638 262.876 284.988 262.876 280.197 262.876C280.436 262.159 280.636 261.603 280.981 260.956C281.107 260.717 281.107 260.717 281.236 260.473C281.327 260.303 281.418 260.133 281.511 259.958C282.283 258.496 283.04 257.029 283.777 255.549C283.866 255.371 283.955 255.192 284.047 255.008C284.317 254.465 284.587 253.922 284.857 253.378C285.918 251.242 286.983 249.111 288.101 247.005C288.975 245.354 289.802 243.68 290.632 242.007C291.529 240.199 292.428 238.394 293.374 236.612C294.46 234.565 295.487 232.488 296.518 230.413C297.617 228.202 298.717 225.993 299.876 223.812C300.764 222.134 301.604 220.431 302.448 218.73C302.77 218.082 303.093 217.433 303.416 216.785C303.522 216.571 303.522 216.571 303.63 216.352C304.175 215.257 304.756 214.183 305.347 213.112Z" fill="#282828"/>
<path d="M668.857 213.112C684.632 213.112 700.407 213.112 716.66 213.112C717.115 214.252 717.555 215.381 717.95 216.54C718 216.687 718.051 216.834 718.103 216.986C718.208 217.293 718.313 217.6 718.418 217.907C718.578 218.378 718.74 218.849 718.902 219.32C719.005 219.62 719.107 219.919 719.21 220.219C719.258 220.36 719.307 220.501 719.357 220.646C719.692 221.633 719.692 221.633 719.692 222.031C707.272 222.031 694.853 222.031 682.057 222.031C682.057 232.508 682.057 242.985 682.057 253.78C695.182 253.78 708.308 253.78 721.832 253.78C721.714 253.839 721.597 253.898 721.475 253.958C721.409 254.254 721.35 254.552 721.297 254.85C721.199 255.119 721.093 255.386 720.98 255.65C720.915 255.802 720.85 255.954 720.783 256.111C720.713 256.273 720.642 256.435 720.57 256.602C720.497 256.77 720.424 256.939 720.349 257.112C720.195 257.466 720.04 257.821 719.885 258.175C719.648 258.717 719.415 259.261 719.182 259.806C719.032 260.15 718.881 260.494 718.73 260.839C718.661 261.002 718.592 261.165 718.521 261.333C718.454 261.483 718.387 261.634 718.318 261.789C718.26 261.922 718.202 262.055 718.143 262.192C717.825 262.636 717.53 262.706 717.016 262.876C716.597 262.921 716.597 262.921 716.154 262.92C715.985 262.921 715.815 262.922 715.641 262.923C715.363 262.921 715.363 262.921 715.081 262.919C714.884 262.92 714.687 262.92 714.484 262.92C713.821 262.921 713.157 262.919 712.494 262.917C712.012 262.917 711.53 262.917 711.047 262.917C709.885 262.917 708.723 262.916 707.561 262.913C706.217 262.911 704.873 262.911 703.528 262.91C699.979 262.908 696.43 262.903 692.881 262.899C680.989 262.888 680.989 262.888 668.857 262.876C668.857 246.454 668.857 230.032 668.857 213.112Z" fill="#282828"/>
<path d="M464.451 144.62C480.049 144.62 495.647 144.62 511.718 144.62C512.233 145.856 512.743 147.08 513.204 148.335C513.255 148.471 513.305 148.606 513.357 148.746C513.513 149.169 513.669 149.592 513.825 150.016C513.933 150.307 514.04 150.598 514.148 150.889C514.409 151.593 514.669 152.298 514.929 153.003C514.24 153.462 513.523 153.409 512.728 153.403C512.576 153.403 512.425 153.404 512.269 153.404C511.761 153.404 511.253 153.403 510.745 153.401C510.381 153.4 510.017 153.401 509.653 153.401C508.665 153.401 507.676 153.399 506.687 153.396C505.655 153.394 504.622 153.394 503.589 153.393C501.632 153.392 499.676 153.389 497.72 153.386C495.076 153.381 492.433 153.379 489.79 153.377C485.624 153.374 481.459 153.367 477.294 153.36C477.294 163.955 477.294 174.55 477.294 185.466C490.243 185.466 503.192 185.466 516.534 185.466C516.712 186.001 516.712 186.001 516.587 186.361C516.518 186.498 516.449 186.635 516.378 186.777C516.301 186.933 516.223 187.088 516.144 187.249C516.058 187.417 515.972 187.585 515.884 187.758C515.754 188.016 515.754 188.016 515.622 188.281C515.438 188.646 515.254 189.011 515.069 189.375C514.785 189.934 514.504 190.494 514.223 191.054C514.045 191.408 513.867 191.762 513.688 192.116C513.603 192.285 513.519 192.453 513.432 192.626C513.353 192.781 513.273 192.937 513.192 193.097C513.123 193.234 513.053 193.371 512.981 193.512C512.788 193.849 512.788 193.849 512.432 194.206C512.08 194.25 512.08 194.25 511.638 194.25C511.471 194.251 511.303 194.251 511.13 194.252C510.944 194.251 510.758 194.25 510.567 194.249C510.372 194.249 510.176 194.249 509.974 194.25C509.312 194.25 508.649 194.248 507.987 194.246C507.506 194.246 507.026 194.246 506.545 194.247C505.386 194.247 504.226 194.245 503.066 194.243C501.726 194.24 500.385 194.24 499.044 194.24C495.502 194.238 491.961 194.233 488.419 194.228C476.555 194.217 476.555 194.217 464.451 194.206C464.451 177.843 464.451 161.479 464.451 144.62Z" fill="#282828"/>
<path d="M373.127 142.936C373.326 142.936 373.525 142.937 373.731 142.937C376.859 142.95 379.863 143.108 382.937 143.727C383.135 143.766 383.333 143.804 383.537 143.843C385.871 144.3 388.166 144.887 390.45 145.544C390.66 145.604 390.87 145.663 391.086 145.724C391.277 145.782 391.469 145.839 391.667 145.898C391.837 145.948 392.007 145.998 392.183 146.05C392.374 146.136 392.374 146.136 392.569 146.224C392.746 146.758 392.763 147.084 392.751 147.639C392.747 147.817 392.744 147.996 392.74 148.18C392.735 148.372 392.73 148.565 392.725 148.763C392.721 148.96 392.717 149.157 392.713 149.36C392.699 149.991 392.684 150.622 392.669 151.252C392.659 151.679 392.65 152.107 392.641 152.534C392.618 153.582 392.593 154.63 392.569 155.678C392.254 155.593 391.94 155.508 391.626 155.423C391.45 155.376 391.275 155.329 391.095 155.28C390.535 155.123 389.993 154.931 389.447 154.73C384.867 153.149 380.072 152.602 375.256 152.59C375.108 152.589 374.96 152.589 374.808 152.588C372.298 152.582 369.844 152.718 367.43 153.471C367.28 153.517 367.13 153.563 366.976 153.611C364.411 154.439 362.306 155.69 360.284 157.462C360.121 157.603 359.957 157.744 359.789 157.889C356.804 160.658 355.593 164.681 355.411 168.66C355.283 173.279 356.409 177.436 359.617 180.869C362.979 184.282 367.904 185.993 372.644 186.043C372.782 186.044 372.921 186.046 373.063 186.048C376.539 186.082 379.866 185.923 383.293 185.287C383.479 185.253 383.665 185.22 383.856 185.185C385.993 184.792 388.01 184.24 390.031 183.44C390.808 183.137 391.599 182.875 392.39 182.611C392.39 185.731 392.39 188.85 392.39 192.065C388.26 193.51 388.26 193.51 386.604 193.882C386.418 193.925 386.231 193.968 386.039 194.012C385.481 194.139 384.923 194.262 384.364 194.383C384.199 194.419 384.034 194.456 383.864 194.493C381.487 195.005 379.12 195.298 376.694 195.454C376.435 195.47 376.435 195.47 376.171 195.488C366.557 196.08 356.61 194.572 349.172 188.012C348.891 187.759 348.612 187.504 348.334 187.249C348.188 187.12 348.042 186.991 347.892 186.858C343.929 183.168 341.402 177.032 341.174 171.683C340.973 164.416 342.919 157.964 347.921 152.545C349.845 150.518 351.791 148.87 354.22 147.473C354.323 147.413 354.426 147.353 354.533 147.292C357.058 145.844 359.67 144.877 362.48 144.129C362.666 144.078 362.852 144.028 363.043 143.976C366.383 143.125 369.692 142.916 373.127 142.936Z" fill="#282828"/>
<path d="M539.188 212.756C539.384 212.78 539.58 212.804 539.781 212.828C543.968 213.359 547.637 214.384 551.674 215.788C551.674 218.966 551.674 222.145 551.674 225.42C550.606 225.183 549.628 224.932 548.608 224.572C540.859 221.936 531.813 220.321 524.12 223.942C523.177 224.408 522.331 224.914 521.53 225.598C521.357 225.741 521.184 225.883 521.006 226.03C517.59 228.939 516.078 232.868 515.716 237.265C515.395 241.921 516.584 245.786 519.636 249.334C520.413 250.203 521.241 250.863 522.243 251.461C522.386 251.554 522.528 251.646 522.675 251.741C525.341 253.431 528.309 254.198 531.429 254.46C531.615 254.476 531.615 254.476 531.805 254.493C533.987 254.684 536.115 254.708 538.296 254.493C538.462 254.478 538.628 254.463 538.8 254.447C542.91 254.056 546.91 253.169 550.79 251.757C551.138 251.64 551.496 251.55 551.852 251.461C551.852 254.581 551.852 257.7 551.852 260.915C547.437 262.323 543.259 263.452 538.638 263.896C538.312 263.928 537.987 263.962 537.661 263.999C536.202 264.157 534.745 264.152 533.279 264.148C532.838 264.147 532.398 264.148 531.958 264.15C529.285 264.151 526.648 264.049 524.005 263.624C523.805 263.592 523.605 263.56 523.399 263.527C518.201 262.67 513.715 260.626 509.758 257.169C509.627 257.063 509.497 256.956 509.363 256.847C507.509 255.323 506.103 253.364 504.942 251.283C504.875 251.164 504.808 251.045 504.74 250.923C501.458 245.035 500.529 238.227 502.266 231.663C502.551 230.678 502.921 229.744 503.336 228.809C503.391 228.683 503.445 228.558 503.501 228.428C504.708 225.657 506.306 223.372 508.331 221.139C508.472 220.983 508.613 220.827 508.758 220.666C512.622 216.604 517.874 214.076 523.313 212.934C523.448 212.905 523.584 212.876 523.723 212.846C528.638 211.84 534.237 212.149 539.188 212.756Z" fill="#282828"/>
<path d="M232.752 205.266C233.3 205.54 233.381 205.976 233.628 206.53C233.705 206.7 233.705 206.7 233.783 206.873C233.953 207.251 234.122 207.629 234.29 208.008C234.41 208.275 234.53 208.541 234.65 208.808C234.837 209.224 235.025 209.642 235.212 210.059C235.813 211.397 236.422 212.731 237.033 214.064C237.333 214.717 237.631 215.37 237.93 216.023C238.019 216.217 238.019 216.217 238.109 216.415C238.789 217.902 239.465 219.391 240.141 220.881C240.763 222.251 241.387 223.622 242.015 224.99C242.253 225.509 242.491 226.028 242.729 226.547C242.818 226.74 242.818 226.74 242.908 226.938C243.884 229.068 244.838 231.208 245.784 233.351C246.619 235.238 247.477 237.112 248.359 238.977C249.355 241.083 250.321 243.202 251.268 245.331C251.331 245.471 251.393 245.61 251.457 245.754C251.634 246.15 251.81 246.547 251.985 246.943C252.037 247.06 252.09 247.177 252.143 247.297C252.436 247.963 252.682 248.631 252.907 249.322C249.615 249.35 246.324 249.376 243.032 249.401C241.503 249.413 239.975 249.425 238.446 249.438C237.113 249.449 235.78 249.46 234.447 249.469C233.742 249.474 233.037 249.48 232.332 249.486C231.667 249.492 231.002 249.497 230.337 249.502C229.979 249.504 229.621 249.508 229.264 249.511C227.977 249.519 226.717 249.467 225.439 249.322C225.111 249.287 225.111 249.287 224.776 249.252C222.412 248.945 220.123 248.383 218.539 246.461C217.67 245.29 217.124 244.047 216.587 242.7C215.901 240.988 215.211 239.277 214.516 237.569C213.271 234.51 212.036 231.448 210.802 228.385C210.591 227.86 210.379 227.334 210.167 226.809C209.958 226.291 209.75 225.773 209.541 225.256C209.444 225.014 209.347 224.773 209.25 224.532C209.204 224.419 209.159 224.306 209.112 224.189C209.067 224.078 209.022 223.967 208.976 223.852C208.844 223.525 208.713 223.199 208.582 222.872C208.394 222.403 208.203 221.935 208.011 221.468C207.961 221.346 207.911 221.224 207.86 221.098C207.764 220.864 207.668 220.631 207.571 220.397C207.369 219.899 207.245 219.544 207.245 219C207.128 218.941 207.01 218.882 206.889 218.821C207.057 218.738 207.226 218.654 207.399 218.567C209.264 217.638 211.122 216.696 212.975 215.745C213.12 215.67 213.265 215.596 213.414 215.52C215.22 214.593 217.016 213.651 218.792 212.667C220.249 211.864 221.729 211.107 223.209 210.349C224.922 209.472 226.628 208.588 228.315 207.662C228.47 207.577 228.625 207.492 228.784 207.405C229.354 207.091 229.924 206.777 230.493 206.462C230.874 206.251 231.255 206.042 231.637 205.834C231.747 205.773 231.856 205.711 231.969 205.648C232.225 205.51 232.488 205.386 232.752 205.266Z" fill="#282828"/>
<path d="M273.596 125C273.596 131.534 273.596 138.067 273.596 144.799C272.031 145.693 270.469 146.572 268.88 147.418C267.173 148.332 265.482 149.27 263.799 150.229C262.66 150.876 261.509 151.499 260.347 152.106C259.627 152.483 258.922 152.878 258.223 153.293C257.49 153.728 256.747 154.121 255.982 154.497C254.345 155.303 252.765 156.209 251.187 157.125C250.176 157.71 249.161 158.273 248.112 158.789C246.482 159.591 244.91 160.494 243.339 161.406C242.126 162.108 240.898 162.758 239.64 163.377C238.939 163.727 238.258 164.11 237.577 164.497C237.337 164.633 237.097 164.768 236.857 164.904C236.498 165.107 236.139 165.311 235.781 165.516C233.501 166.814 231.288 167.586 228.636 166.905C226.473 166.151 225.089 164.802 224.076 162.763C223.795 162.12 223.532 161.471 223.274 160.818C223.077 160.331 222.878 159.845 222.68 159.358C222.629 159.234 222.579 159.109 222.527 158.981C222.147 158.05 221.75 157.127 221.344 156.208C221.286 156.077 221.228 155.946 221.168 155.811C220.941 155.299 220.714 154.787 220.485 154.276C220.328 153.924 220.172 153.571 220.016 153.218C219.926 153.017 219.836 152.816 219.743 152.609C219.551 152.112 219.551 152.112 219.551 151.577C219.694 151.542 219.694 151.542 219.84 151.507C223.592 150.583 227.148 149.185 230.609 147.474C230.786 147.388 230.962 147.301 231.144 147.212C233.478 146.066 235.793 144.895 238.069 143.636C239.503 142.844 240.955 142.089 242.413 141.343C243.513 140.777 244.585 140.175 245.65 139.546C246.201 139.226 246.757 138.943 247.331 138.667C248.264 138.209 249.171 137.722 250.074 137.207C250.882 136.746 251.69 136.3 252.526 135.891C253.436 135.446 254.319 134.961 255.202 134.465C256.136 133.94 257.071 133.431 258.033 132.96C259.274 132.35 260.481 131.687 261.692 131.021C262.902 130.358 264.121 129.714 265.346 129.08C266.597 128.432 267.84 127.772 269.07 127.085C269.199 127.012 269.329 126.94 269.462 126.866C269.946 126.595 270.43 126.324 270.914 126.051C271.235 125.87 271.557 125.691 271.879 125.513C272.057 125.413 272.235 125.313 272.418 125.21C272.882 125 272.882 125 273.596 125Z" fill="#282828"/>
<path d="M613.364 144.891C613.558 144.89 613.751 144.89 613.95 144.889C614.597 144.888 615.244 144.892 615.891 144.896C616.355 144.896 616.819 144.896 617.283 144.895C618.282 144.895 619.281 144.897 620.279 144.901C621.723 144.907 623.167 144.909 624.611 144.91C626.954 144.911 629.296 144.916 631.639 144.923C633.915 144.929 636.19 144.934 638.465 144.937C638.606 144.938 638.746 144.938 638.891 144.938C639.595 144.939 640.299 144.94 641.003 144.941C646.84 144.948 652.678 144.961 658.515 144.977C658.278 145.674 658.041 146.372 657.802 147.069C657.721 147.305 657.641 147.541 657.561 147.778C655.986 152.421 655.986 152.421 654.948 153.36C649.802 154.83 644.247 153.716 638.895 153.716C638.895 167.137 638.895 180.557 638.895 194.384C634.598 194.384 630.301 194.384 625.874 194.384C625.541 194.051 625.674 193.571 625.673 193.128C625.673 192.971 625.674 192.815 625.674 192.654C625.674 192.489 625.674 192.324 625.674 192.155C625.674 191.598 625.675 191.041 625.676 190.485C625.676 190.088 625.676 189.691 625.675 189.293C625.675 188.211 625.676 187.13 625.678 186.048C625.679 184.918 625.679 183.789 625.679 182.66C625.68 180.763 625.681 178.866 625.682 176.97C625.684 175.016 625.685 173.062 625.686 171.108C625.686 170.986 625.686 170.864 625.686 170.739C625.687 169.682 625.687 168.624 625.687 167.566C625.689 163.009 625.693 158.452 625.696 153.895C619.28 153.836 612.864 153.777 606.254 153.716C606.537 152.868 606.856 152.091 607.245 151.292C607.306 151.165 607.367 151.039 607.43 150.908C607.559 150.642 607.688 150.376 607.818 150.11C608.014 149.705 608.21 149.3 608.405 148.894C608.531 148.634 608.657 148.374 608.783 148.115C608.841 147.995 608.898 147.875 608.958 147.751C610.01 145.602 610.975 144.863 613.364 144.891Z" fill="#282828"/>
<path d="M622.307 213.292C626.368 213.292 630.429 213.292 634.614 213.292C634.614 226.712 634.614 240.133 634.614 253.959C644.561 253.959 654.509 253.959 664.758 253.959C663.918 256.059 663.079 258.15 662.183 260.225C662.087 260.446 661.992 260.667 661.897 260.889C661.221 262.46 661.221 262.46 661.012 262.878C648.239 262.878 635.467 262.878 622.307 262.878C622.307 246.514 622.307 230.151 622.307 213.292Z" fill="#282828"/>
<path d="M478.721 213.292C483.018 213.292 487.314 213.292 491.741 213.292C491.887 213.874 491.942 214.269 491.942 214.853C491.943 215.024 491.943 215.195 491.944 215.371C491.943 215.558 491.943 215.746 491.942 215.939C491.943 216.238 491.943 216.238 491.943 216.543C491.944 217.213 491.943 217.883 491.943 218.554C491.943 219.033 491.943 219.513 491.944 219.992C491.945 221.161 491.944 222.329 491.944 223.498C491.944 224.447 491.943 225.397 491.944 226.346C491.944 226.481 491.944 226.616 491.944 226.755C491.944 227.029 491.944 227.303 491.944 227.578C491.944 230.15 491.944 232.722 491.943 235.294C491.942 237.503 491.942 239.712 491.943 241.921C491.944 244.484 491.944 247.048 491.944 249.611C491.944 249.884 491.944 250.157 491.944 250.431C491.944 250.632 491.944 250.632 491.944 250.838C491.943 251.787 491.944 252.736 491.944 253.684C491.945 254.84 491.944 255.995 491.944 257.15C491.943 257.74 491.943 258.33 491.943 258.92C491.944 259.558 491.943 260.196 491.942 260.834C491.943 261.117 491.943 261.117 491.944 261.405C491.943 261.66 491.943 261.66 491.942 261.919C491.942 262.066 491.942 262.214 491.942 262.366C491.92 262.699 491.92 262.699 491.741 262.878C487.445 262.878 483.148 262.878 478.721 262.878C478.721 246.514 478.721 230.151 478.721 213.292Z" fill="#282828"/>
<path d="M587.883 144.799C592.062 144.799 596.241 144.799 600.547 144.799C600.547 161.162 600.547 177.525 600.547 194.385C596.368 194.385 592.189 194.385 587.883 194.385C587.883 178.021 587.883 161.658 587.883 144.799Z" fill="#282828"/>
<path d="M693.099 233.071C693.31 233.071 693.521 233.071 693.738 233.071C694.312 233.071 694.887 233.072 695.461 233.073C696.063 233.074 696.664 233.074 697.266 233.075C698.403 233.075 699.541 233.077 700.679 233.078C701.974 233.08 703.27 233.081 704.566 233.082C707.23 233.084 709.895 233.087 712.559 233.091C712.432 233.646 712.277 234.004 711.937 234.464C711.845 234.59 711.753 234.716 711.658 234.846C711.558 234.981 711.458 235.115 711.355 235.254C711.144 235.542 710.932 235.829 710.721 236.117C710.612 236.265 710.504 236.413 710.391 236.565C710.068 237.007 709.748 237.451 709.43 237.897C709.328 238.039 709.226 238.181 709.122 238.327C708.929 238.597 708.736 238.867 708.544 239.137C706.734 241.657 706.734 241.657 705.067 242.01C703.755 242.181 702.445 242.214 701.123 242.211C700.842 242.212 700.842 242.212 700.555 242.212C699.943 242.213 699.331 242.212 698.719 242.212C698.291 242.212 697.863 242.212 697.435 242.212C696.542 242.212 695.649 242.212 694.756 242.211C693.611 242.21 692.465 242.211 691.319 242.212C690.437 242.213 689.556 242.212 688.674 242.212C688.251 242.212 687.829 242.212 687.406 242.212C686.817 242.213 686.228 242.212 685.64 242.211C685.377 242.212 685.377 242.212 685.109 242.212C684.869 242.211 684.869 242.211 684.624 242.211C684.485 242.211 684.346 242.211 684.203 242.21C683.842 242.188 683.842 242.188 683.307 242.01C683.611 241.097 684.138 240.338 684.663 239.54C684.762 239.389 684.861 239.238 684.963 239.083C685.172 238.764 685.383 238.446 685.593 238.127C685.913 237.643 686.229 237.156 686.544 236.669C686.749 236.359 686.954 236.049 687.16 235.739C687.253 235.594 687.346 235.449 687.441 235.3C688.173 234.211 688.945 233.431 690.264 233.159C691.205 233.046 692.153 233.068 693.099 233.071Z" fill="#282828"/>
<path d="M486.433 164.912C486.71 164.911 486.71 164.911 486.992 164.91C487.192 164.911 487.392 164.913 487.599 164.914C487.811 164.914 488.023 164.914 488.242 164.914C488.823 164.914 489.404 164.916 489.984 164.918C490.592 164.921 491.199 164.921 491.807 164.921C492.957 164.922 494.106 164.925 495.256 164.929C496.565 164.933 497.874 164.935 499.183 164.937C501.876 164.94 504.568 164.947 507.261 164.955C507.063 165.266 506.865 165.577 506.668 165.889C506.502 166.149 506.502 166.149 506.334 166.414C505.916 167.066 505.483 167.707 505.042 168.343C504.959 168.464 504.875 168.585 504.789 168.71C504.544 169.064 504.297 169.417 504.05 169.77C503.944 169.921 503.944 169.921 503.837 170.075C501.64 173.2 501.64 173.2 499.948 173.516C499.646 173.532 499.344 173.538 499.042 173.538C498.86 173.538 498.677 173.538 498.489 173.538C498.29 173.538 498.091 173.537 497.885 173.536C497.569 173.536 497.569 173.536 497.247 173.536C496.67 173.536 496.094 173.535 495.517 173.534C494.914 173.533 494.311 173.533 493.708 173.533C492.567 173.532 491.425 173.531 490.284 173.529C488.984 173.527 487.684 173.526 486.385 173.525C483.712 173.523 481.038 173.52 478.365 173.516C478.605 173.028 478.856 172.59 479.176 172.15C479.267 172.025 479.358 171.899 479.451 171.77C479.549 171.636 479.647 171.502 479.748 171.365C479.849 171.225 479.951 171.086 480.056 170.942C480.272 170.645 480.489 170.349 480.705 170.052C481.043 169.589 481.377 169.124 481.712 168.658C481.93 168.356 482.149 168.055 482.367 167.753C482.468 167.611 482.569 167.47 482.673 167.324C483.661 165.968 484.648 164.908 486.433 164.912Z" fill="#282828"/>
<path d="M490.028 133.323C490.143 133.322 490.257 133.322 490.376 133.322C490.755 133.323 491.134 133.327 491.514 133.331C491.777 133.332 492.04 133.333 492.303 133.333C492.996 133.335 493.688 133.341 494.38 133.347C495.087 133.352 495.793 133.354 496.5 133.357C497.886 133.363 499.272 133.372 500.658 133.383C500.658 134.119 500.37 134.283 499.867 134.81C499.242 135.475 498.644 136.149 498.072 136.861C497.335 137.775 496.566 138.656 495.741 139.491C495.458 139.815 495.458 139.815 495.239 140.298C494.868 140.934 494.534 141.422 493.881 141.766C492.341 142.107 490.706 141.95 489.143 141.889C488.703 141.879 488.264 141.87 487.824 141.862C486.751 141.841 485.678 141.808 484.605 141.766C484.648 141.676 484.691 141.586 484.735 141.494C484.936 141.07 485.136 140.646 485.337 140.222C485.41 140.068 485.483 139.914 485.559 139.754C485.885 139.066 486.211 138.378 486.535 137.688C486.805 137.115 487.076 136.542 487.348 135.97C487.483 135.68 487.483 135.68 487.622 135.385C487.709 135.201 487.797 135.017 487.887 134.827C487.964 134.664 488.04 134.502 488.119 134.335C488.627 133.423 488.98 133.317 490.028 133.323Z" fill="#282828"/>
</svg>
